<?xml version="1.0" encoding="UTF-8"?>
<svg width="372px" height="40px" viewBox="0 0 372 40" version="1.1" xmlns="http://www.w3.org/2000/svg" xmlns:xlink="http://www.w3.org/1999/xlink">
    <title>3do</title>
    <g id="system-list" stroke="none" stroke-width="1" fill="none" fill-rule="evenodd">
        <g id="画板" transform="translate(0, -180)">
            <g id="3do" transform="translate(0, 180)">
                <rect id="矩形备份-6" x="0" y="0" width="372" height="40"></rect>
                <g id="3DO" transform="translate(24, 0)" fill="#FFFFFF" fill-rule="nonzero">
                    <path d="M8,0 L8,2 L2,2 L2,0 L8,0 Z M0,2 L2,2 L2,4 L0,4 L0,2 Z M8,2 L10,2 L10,8 L8,8 L8,2 Z M4,8 L8,8 L8,10 L4,10 L4,8 Z M0,14 L2,14 L2,16 L0,16 L0,14 Z M8,10 L10,10 L10,16 L8,16 L8,10 Z M8,18 L2,18 L2,16 L8,16 L8,18 Z" id="形状"></path>
                    <path d="M20,2 L22,2 L22,4 L20,4 L20,2 Z M22,4 L24,4 L24,14 L22,14 L22,4 Z M20,14 L22,14 L22,16 L20,16 L20,14 Z M12,0 L20,0 L20,2 L14,2 L14,16 L20,16 L20,18 L12,18 L12,0 Z" id="形状"></path>
                    <path d="M36,2 L30,2 L30,0 L36,0 L36,2 Z M28,2 L30,2 L30,4 L28,4 L28,2 Z M36,2 L38,2 L38,4 L36,4 L36,2 Z M26,4 L28,4 L28,14 L26,14 L26,4 Z M38,4 L40,4 L40,14 L38,14 L38,4 Z M28,14 L30,14 L30,16 L28,16 L28,14 Z M36,14 L38,14 L38,16 L36,16 L36,14 Z M36,16 L36,18 L30,18 L30,16 L36,16 Z" id="形状"></path>
                </g>
            </g>
        </g>
    </g>
</svg>