<?xml version="1.0" encoding="UTF-8"?>
<svg width="372px" height="40px" viewBox="0 0 372 40" version="1.1" xmlns="http://www.w3.org/2000/svg" xmlns:xlink="http://www.w3.org/1999/xlink">
    <title>advision</title>
    <g id="system-list" stroke="none" stroke-width="1" fill="none" fill-rule="evenodd">
        <g id="画板" transform="translate(0, -312)">
            <g id="advision" transform="translate(0, 312)">
                <rect id="矩形备份-6" x="0" y="0" width="372" height="40"></rect>
                <g id="Advision-Vision" transform="translate(24, 0)" fill="#FFFFFF" fill-rule="nonzero">
                    <path d="M6,0 L8,0 L8,4 L6,4 L6,0 Z M4,4 L6,4 L6,8 L4,8 L4,4 Z M8,4 L10,4 L10,8 L8,8 L8,4 Z M10,10 L10,8 L12,8 L12,14 L10,14 L10,12 L4,12 L4,14 L2,14 L2,8 L4,8 L4,10 L10,10 Z M0,14 L2,14 L2,18 L0,18 L0,14 Z M12,14 L14,14 L14,18 L12,18 L12,14 Z" id="形状"></path>
                    <path d="M16,8 L18,8 L18,16 L16,16 L16,8 Z M24,8 L18,8 L18,6 L24,6 L24,0 L26,0 L26,18 L18,18 L18,16 L24,16 L24,8 Z" id="形状"></path>
                    <path d="M28,6 L30,6 L30,10 L28,10 L28,6 Z M36,6 L38,6 L38,10 L36,10 L36,6 Z M30,10 L32,10 L32,14 L30,14 L30,10 Z M34,10 L36,10 L36,14 L34,14 L34,10 Z M32,14 L34,14 L34,18 L32,18 L32,14 Z" id="形状"></path>
                    <path d="M42,0 L44,0 L44,2 L42,2 L42,0 Z M42,8 L40,8 L40,6 L44,6 L44,16 L46,16 L46,18 L40,18 L40,16 L42,16 L42,8 Z" id="形状"></path>
                    <path d="M56,8 L50,8 L50,6 L56,6 L56,8 Z M48,8 L50,8 L50,10 L48,10 L48,8 Z M56,8 L58,8 L58,10 L56,10 L56,8 Z M54,12 L50,12 L50,10 L54,10 L54,12 Z M54,12 L56,12 L56,14 L54,14 L54,12 Z M48,14 L50,14 L50,16 L48,16 L48,14 Z M56,14 L58,14 L58,16 L56,16 L56,14 Z M56,18 L50,18 L50,16 L56,16 L56,18 Z" id="形状"></path>
                    <path d="M62,0 L64,0 L64,2 L62,2 L62,0 Z M62,8 L60,8 L60,6 L64,6 L64,16 L66,16 L66,18 L60,18 L60,16 L62,16 L62,8 Z" id="形状"></path>
                    <path d="M76,8 L70,8 L70,6 L76,6 L76,8 Z M68,8 L70,8 L70,16 L68,16 L68,8 Z M76,8 L78,8 L78,16 L76,16 L76,8 Z M76,18 L70,18 L70,16 L76,16 L76,18 Z" id="形状"></path>
                    <path d="M88,8 L84,8 L84,6 L88,6 L88,8 Z M80,6 L82,6 L82,8 L84,8 L84,10 L82,10 L82,18 L80,18 L80,6 Z M88,8 L90,8 L90,18 L88,18 L88,8 Z" id="形状"></path>
                    <path d="M104,0 L106,0 L106,4 L104,4 L104,0 Z M116,0 L118,0 L118,4 L116,4 L116,0 Z M106,4 L108,4 L108,10 L106,10 L106,4 Z M114,4 L116,4 L116,10 L114,10 L114,4 Z M108,10 L110,10 L110,14 L108,14 L108,10 Z M112,10 L114,10 L114,14 L112,14 L112,10 Z M110,14 L112,14 L112,18 L110,18 L110,14 Z" id="形状"></path>
                    <path d="M122,0 L124,0 L124,2 L122,2 L122,0 Z M122,8 L120,8 L120,6 L124,6 L124,16 L126,16 L126,18 L120,18 L120,16 L122,16 L122,8 Z" id="形状"></path>
                    <path d="M136,8 L130,8 L130,6 L136,6 L136,8 Z M128,8 L130,8 L130,10 L128,10 L128,8 Z M136,8 L138,8 L138,10 L136,10 L136,8 Z M134,12 L130,12 L130,10 L134,10 L134,12 Z M134,12 L136,12 L136,14 L134,14 L134,12 Z M128,14 L130,14 L130,16 L128,16 L128,14 Z M136,14 L138,14 L138,16 L136,16 L136,14 Z M136,18 L130,18 L130,16 L136,16 L136,18 Z" id="形状"></path>
                    <path d="M142,0 L144,0 L144,2 L142,2 L142,0 Z M142,8 L140,8 L140,6 L144,6 L144,16 L146,16 L146,18 L140,18 L140,16 L142,16 L142,8 Z" id="形状"></path>
                    <path d="M156,8 L150,8 L150,6 L156,6 L156,8 Z M148,8 L150,8 L150,16 L148,16 L148,8 Z M156,8 L158,8 L158,16 L156,16 L156,8 Z M156,18 L150,18 L150,16 L156,16 L156,18 Z" id="形状"></path>
                    <path d="M168,8 L164,8 L164,6 L168,6 L168,8 Z M160,6 L162,6 L162,8 L164,8 L164,10 L162,10 L162,18 L160,18 L160,6 Z M168,8 L170,8 L170,18 L168,18 L168,8 Z" id="形状"></path>
                </g>
            </g>
        </g>
    </g>
</svg>