<?xml version="1.0" encoding="UTF-8"?>
<svg width="372px" height="40px" viewBox="0 0 372 40" version="1.1" xmlns="http://www.w3.org/2000/svg" xmlns:xlink="http://www.w3.org/1999/xlink">
    <title>alg</title>
    <g id="system-list" stroke="none" stroke-width="1" fill="none" fill-rule="evenodd">
        <g id="画板" transform="translate(0, -356)">
            <g id="alg" transform="translate(0, 356)">
                <rect id="矩形备份-6" x="0" y="0" width="372" height="40"></rect>
                <g id="American-Laser-Games" transform="translate(24, 0)" fill="#FFFFFF" fill-rule="nonzero">
                    <path d="M6,0 L8,0 L8,4 L6,4 L6,0 Z M4,4 L6,4 L6,8 L4,8 L4,4 Z M8,4 L10,4 L10,8 L8,8 L8,4 Z M10,10 L10,8 L12,8 L12,14 L10,14 L10,12 L4,12 L4,14 L2,14 L2,8 L4,8 L4,10 L10,10 Z M0,14 L2,14 L2,18 L0,18 L0,14 Z M12,14 L14,14 L14,18 L12,18 L12,14 Z" id="形状"></path>
                    <path d="M24,6 L28,6 L28,8 L24,8 L24,6 Z M16,6 L22,6 L22,8 L18,8 L18,18 L16,18 L16,6 Z M22,8 L24,8 L24,18 L22,18 L22,8 Z M28,8 L30,8 L30,18 L28,18 L28,8 Z" id="形状"></path>
                    <path d="M40,8 L34,8 L34,6 L40,6 L40,8 Z M42,12 L34,12 L34,16 L32,16 L32,8 L34,8 L34,10 L40,10 L40,8 L42,8 L42,12 Z M40,14 L42,14 L42,16 L40,16 L40,14 Z M40,18 L34,18 L34,16 L40,16 L40,18 Z" id="形状"></path>
                    <path d="M52,8 L48,8 L48,6 L52,6 L52,8 Z M44,6 L46,6 L46,8 L48,8 L48,10 L46,10 L46,18 L44,18 L44,6 Z" id="形状"></path>
                    <path d="M56,0 L58,0 L58,2 L56,2 L56,0 Z M56,8 L54,8 L54,6 L58,6 L58,16 L60,16 L60,18 L54,18 L54,16 L56,16 L56,8 Z" id="形状"></path>
                    <path d="M70,8 L64,8 L64,6 L70,6 L70,8 Z M70,8 L72,8 L72,10 L70,10 L70,8 Z M62,8 L64,8 L64,16 L62,16 L62,8 Z M70,14 L72,14 L72,16 L70,16 L70,14 Z M70,18 L64,18 L64,16 L70,16 L70,18 Z" id="形状"></path>
                    <path d="M82,8 L76,8 L76,6 L82,6 L82,8 Z M74,12 L76,12 L76,16 L74,16 L74,12 Z M84,18 L76,18 L76,16 L82,16 L82,12 L76,12 L76,10 L82,10 L82,8 L84,8 L84,18 Z" id="形状"></path>
                    <path d="M94,8 L90,8 L90,6 L94,6 L94,8 Z M86,6 L88,6 L88,8 L90,8 L90,10 L88,10 L88,18 L86,18 L86,6 Z M94,8 L96,8 L96,18 L94,18 L94,8 Z" id="形状"></path>
                    <polygon id="路径" points="110 0 112 0 112 16 120 16 120 18 110 18"></polygon>
                    <path d="M130,8 L124,8 L124,6 L130,6 L130,8 Z M122,12 L124,12 L124,16 L122,16 L122,12 Z M132,18 L124,18 L124,16 L130,16 L130,12 L124,12 L124,10 L130,10 L130,8 L132,8 L132,18 Z" id="形状"></path>
                    <path d="M142,8 L136,8 L136,6 L142,6 L142,8 Z M134,8 L136,8 L136,10 L134,10 L134,8 Z M142,8 L144,8 L144,10 L142,10 L142,8 Z M140,12 L136,12 L136,10 L140,10 L140,12 Z M140,12 L142,12 L142,14 L140,14 L140,12 Z M134,14 L136,14 L136,16 L134,16 L134,14 Z M142,14 L144,14 L144,16 L142,16 L142,14 Z M142,18 L136,18 L136,16 L142,16 L142,18 Z" id="形状"></path>
                    <path d="M154,8 L148,8 L148,6 L154,6 L154,8 Z M156,12 L148,12 L148,16 L146,16 L146,8 L148,8 L148,10 L154,10 L154,8 L156,8 L156,12 Z M154,14 L156,14 L156,16 L154,16 L154,14 Z M154,18 L148,18 L148,16 L154,16 L154,18 Z" id="形状"></path>
                    <path d="M166,8 L162,8 L162,6 L166,6 L166,8 Z M158,6 L160,6 L160,8 L162,8 L162,10 L160,10 L160,18 L158,18 L158,6 Z" id="形状"></path>
                    <path d="M190,2 L184,2 L184,0 L190,0 L190,2 Z M182,2 L184,2 L184,4 L182,4 L182,2 Z M190,2 L192,2 L192,4 L190,4 L190,2 Z M180,4 L182,4 L182,14 L180,14 L180,4 Z M182,14 L184,14 L184,16 L182,16 L182,14 Z M188,10 L192,10 L192,18 L184,18 L184,16 L190,16 L190,12 L188,12 L188,10 Z" id="形状"></path>
                    <path d="M202,8 L196,8 L196,6 L202,6 L202,8 Z M194,12 L196,12 L196,16 L194,16 L194,12 Z M204,18 L196,18 L196,16 L202,16 L202,12 L196,12 L196,10 L202,10 L202,8 L204,8 L204,18 Z" id="形状"></path>
                    <path d="M214,6 L218,6 L218,8 L214,8 L214,6 Z M206,6 L212,6 L212,8 L208,8 L208,18 L206,18 L206,6 Z M212,8 L214,8 L214,18 L212,18 L212,8 Z M218,8 L220,8 L220,18 L218,18 L218,8 Z" id="形状"></path>
                    <path d="M230,8 L224,8 L224,6 L230,6 L230,8 Z M232,12 L224,12 L224,16 L222,16 L222,8 L224,8 L224,10 L230,10 L230,8 L232,8 L232,12 Z M230,14 L232,14 L232,16 L230,16 L230,14 Z M230,18 L224,18 L224,16 L230,16 L230,18 Z" id="形状"></path>
                    <path d="M242,8 L236,8 L236,6 L242,6 L242,8 Z M234,8 L236,8 L236,10 L234,10 L234,8 Z M242,8 L244,8 L244,10 L242,10 L242,8 Z M240,12 L236,12 L236,10 L240,10 L240,12 Z M240,12 L242,12 L242,14 L240,14 L240,12 Z M234,14 L236,14 L236,16 L234,16 L234,14 Z M242,14 L244,14 L244,16 L242,16 L242,14 Z M242,18 L236,18 L236,16 L242,16 L242,18 Z" id="形状"></path>
                </g>
            </g>
        </g>
    </g>
</svg>