<?xml version="1.0" encoding="UTF-8"?>
<svg width="372px" height="40px" viewBox="0 0 372 40" version="1.1" xmlns="http://www.w3.org/2000/svg" xmlns:xlink="http://www.w3.org/1999/xlink">
    <title>amiga</title>
    <g id="system-list" stroke="none" stroke-width="1" fill="none" fill-rule="evenodd">
        <g id="画板" transform="translate(0, -4)">
            <g id="amiga" transform="translate(0, 4)">
                <rect id="矩形备份-6" x="0" y="0" width="372" height="40"></rect>
                <g id="Amiga" transform="translate(24, 0)" fill="#FFFFFF" fill-rule="nonzero">
                    <path d="M6,0 L8,0 L8,4 L6,4 L6,0 Z M4,4 L6,4 L6,8 L4,8 L4,4 Z M8,4 L10,4 L10,8 L8,8 L8,4 Z M10,10 L10,8 L12,8 L12,14 L10,14 L10,12 L4,12 L4,14 L2,14 L2,8 L4,8 L4,10 L10,10 Z M0,14 L2,14 L2,18 L0,18 L0,14 Z M12,14 L14,14 L14,18 L12,18 L12,14 Z" id="形状"></path>
                    <path d="M24,6 L28,6 L28,8 L24,8 L24,6 Z M16,6 L22,6 L22,8 L18,8 L18,18 L16,18 L16,6 Z M22,8 L24,8 L24,18 L22,18 L22,8 Z M28,8 L30,8 L30,18 L28,18 L28,8 Z" id="形状"></path>
                    <path d="M34,0 L36,0 L36,2 L34,2 L34,0 Z M34,8 L32,8 L32,6 L36,6 L36,16 L38,16 L38,18 L32,18 L32,16 L34,16 L34,8 Z" id="形状"></path>
                    <path d="M40,8 L42,8 L42,16 L40,16 L40,8 Z M48,8 L42,8 L42,6 L50,6 L50,20 L48,20 L48,18 L42,18 L42,16 L48,16 L48,8 Z M48,20 L48,22 L42,22 L42,20 L48,20 Z" id="形状"></path>
                    <path d="M60,8 L54,8 L54,6 L60,6 L60,8 Z M52,12 L54,12 L54,16 L52,16 L52,12 Z M62,18 L54,18 L54,16 L60,16 L60,12 L54,12 L54,10 L60,10 L60,8 L62,8 L62,18 Z" id="形状"></path>
                </g>
            </g>
        </g>
    </g>
</svg>