<?xml version="1.0" encoding="UTF-8"?>
<svg width="372px" height="40px" viewBox="0 0 372 40" version="1.1" xmlns="http://www.w3.org/2000/svg" xmlns:xlink="http://www.w3.org/1999/xlink">
    <title>apple2</title>
    <g id="system-list" stroke="none" stroke-width="1" fill="none" fill-rule="evenodd">
        <g id="画板" transform="translate(0, -224)">
            <g id="apple2" transform="translate(0, 224)">
                <rect id="矩形备份-6" x="0" y="0" width="372" height="40"></rect>
                <g id="Apple-II" transform="translate(24, 0)" fill="#FFFFFF" fill-rule="nonzero">
                    <path d="M6,0 L8,0 L8,4 L6,4 L6,0 Z M4,4 L6,4 L6,8 L4,8 L4,4 Z M8,4 L10,4 L10,8 L8,8 L8,4 Z M10,10 L10,8 L12,8 L12,14 L10,14 L10,12 L4,12 L4,14 L2,14 L2,8 L4,8 L4,10 L10,10 Z M0,14 L2,14 L2,18 L0,18 L0,14 Z M12,14 L14,14 L14,18 L12,18 L12,14 Z" id="形状"></path>
                    <path d="M24,8 L26,8 L26,16 L24,16 L24,8 Z M24,8 L18,8 L18,16 L24,16 L24,18 L18,18 L18,22 L16,22 L16,6 L24,6 L24,8 Z" id="形状"></path>
                    <path d="M36,8 L38,8 L38,16 L36,16 L36,8 Z M36,8 L30,8 L30,16 L36,16 L36,18 L30,18 L30,22 L28,22 L28,6 L36,6 L36,8 Z" id="形状"></path>
                    <polygon id="路径" points="42 2 40 2 40 0 44 0 44 16 46 16 46 18 42 18"></polygon>
                    <path d="M56,8 L50,8 L50,6 L56,6 L56,8 Z M58,12 L50,12 L50,16 L48,16 L48,8 L50,8 L50,10 L56,10 L56,8 L58,8 L58,12 Z M56,14 L58,14 L58,16 L56,16 L56,14 Z M56,18 L50,18 L50,16 L56,16 L56,18 Z" id="形状"></path>
                    <polygon id="路径" points="74 2 72 2 72 0 78 0 78 2 76 2 76 16 78 16 78 18 72 18 72 16 74 16"></polygon>
                    <polygon id="路径" points="82 2 80 2 80 0 86 0 86 2 84 2 84 16 86 16 86 18 80 18 80 16 82 16"></polygon>
                </g>
            </g>
        </g>
    </g>
</svg>