<?xml version="1.0" encoding="UTF-8"?>
<svg width="372px" height="40px" viewBox="0 0 372 40" version="1.1" xmlns="http://www.w3.org/2000/svg" xmlns:xlink="http://www.w3.org/1999/xlink">
    <title>arduboy</title>
    <g id="system-list" stroke="none" stroke-width="1" fill="none" fill-rule="evenodd">
        <g id="画板" transform="translate(0, -92)">
            <g id="arduboy" transform="translate(0, 92)">
                <rect id="矩形备份-6" x="0" y="0" width="372" height="40"></rect>
                <g id="Arduboy" transform="translate(24, 0)" fill="#FFFFFF" fill-rule="nonzero">
                    <path d="M6,0 L8,0 L8,4 L6,4 L6,0 Z M4,4 L6,4 L6,8 L4,8 L4,4 Z M8,4 L10,4 L10,8 L8,8 L8,4 Z M10,10 L10,8 L12,8 L12,14 L10,14 L10,12 L4,12 L4,14 L2,14 L2,8 L4,8 L4,10 L10,10 Z M0,14 L2,14 L2,18 L0,18 L0,14 Z M12,14 L14,14 L14,18 L12,18 L12,14 Z" id="形状"></path>
                    <path d="M24,8 L20,8 L20,6 L24,6 L24,8 Z M16,6 L18,6 L18,8 L20,8 L20,10 L18,10 L18,18 L16,18 L16,6 Z" id="形状"></path>
                    <path d="M26,8 L28,8 L28,16 L26,16 L26,8 Z M34,8 L28,8 L28,6 L34,6 L34,0 L36,0 L36,18 L28,18 L28,16 L34,16 L34,8 Z" id="形状"></path>
                    <path d="M38,6 L40,6 L40,16 L38,16 L38,6 Z M40,16 L44,16 L44,18 L40,18 L40,16 Z M46,6 L48,6 L48,18 L46,18 L46,16 L44,16 L44,14 L46,14 L46,6 Z" id="形状"></path>
                    <path d="M58,8 L60,8 L60,16 L58,16 L58,8 Z M50,0 L52,0 L52,6 L58,6 L58,8 L52,8 L52,16 L58,16 L58,18 L50,18 L50,0 Z" id="形状"></path>
                    <path d="M70,8 L64,8 L64,6 L70,6 L70,8 Z M62,8 L64,8 L64,16 L62,16 L62,8 Z M70,8 L72,8 L72,16 L70,16 L70,8 Z M70,18 L64,18 L64,16 L70,16 L70,18 Z" id="形状"></path>
                    <path d="M74,6 L76,6 L76,12 L74,12 L74,6 Z M82,6 L84,6 L84,12 L82,12 L82,6 Z M76,12 L78,12 L78,16 L76,16 L76,12 Z M80,12 L82,12 L82,16 L80,16 L80,12 Z M78,16 L80,16 L80,20 L78,20 L78,16 Z M74,20 L78,20 L78,22 L74,22 L74,20 Z" id="形状"></path>
                </g>
            </g>
        </g>
    </g>
</svg>