<?xml version="1.0" encoding="UTF-8"?>
<svg width="372px" height="40px" viewBox="0 0 372 40" version="1.1" xmlns="http://www.w3.org/2000/svg" xmlns:xlink="http://www.w3.org/1999/xlink">
    <title>atarixegs</title>
    <g id="system-list" stroke="none" stroke-width="1" fill="none" fill-rule="evenodd">
        <g id="画板" transform="translate(0, -752)">
            <g id="atarixegs" transform="translate(0, 752)">
                <rect id="矩形备份-6" x="0" y="0" width="372" height="40"></rect>
                <g id="Atari-XEGS" transform="translate(24, 0)" fill="#FFFFFF" fill-rule="nonzero">
                    <path d="M6,0 L8,0 L8,4 L6,4 L6,0 Z M4,4 L6,4 L6,8 L4,8 L4,4 Z M8,4 L10,4 L10,8 L8,8 L8,4 Z M10,10 L10,8 L12,8 L12,14 L10,14 L10,12 L4,12 L4,14 L2,14 L2,8 L4,8 L4,10 L10,10 Z M0,14 L2,14 L2,18 L0,18 L0,14 Z M12,14 L14,14 L14,18 L12,18 L12,14 Z" id="形状"></path>
                    <path d="M18,8 L16,8 L16,6 L18,6 L18,0 L20,0 L20,6 L24,6 L24,8 L20,8 L20,16 L18,16 L18,8 Z M24,18 L20,18 L20,16 L24,16 L24,18 Z" id="形状"></path>
                    <path d="M34,8 L28,8 L28,6 L34,6 L34,8 Z M26,12 L28,12 L28,16 L26,16 L26,12 Z M36,18 L28,18 L28,16 L34,16 L34,12 L28,12 L28,10 L34,10 L34,8 L36,8 L36,18 Z" id="形状"></path>
                    <path d="M46,8 L42,8 L42,6 L46,6 L46,8 Z M38,6 L40,6 L40,8 L42,8 L42,10 L40,10 L40,18 L38,18 L38,6 Z" id="形状"></path>
                    <path d="M50,0 L52,0 L52,2 L50,2 L50,0 Z M50,8 L48,8 L48,6 L52,6 L52,16 L54,16 L54,18 L48,18 L48,16 L50,16 L50,8 Z" id="形状"></path>
                    <path d="M68,0 L70,0 L70,2 L68,2 L68,0 Z M80,0 L82,0 L82,2 L80,2 L80,0 Z M70,2 L72,2 L72,6 L70,6 L70,2 Z M78,2 L80,2 L80,6 L78,6 L78,2 Z M72,6 L74,6 L74,8 L72,8 L72,6 Z M76,6 L78,6 L78,8 L76,8 L76,6 Z M74,8 L76,8 L76,10 L74,10 L74,8 Z M72,10 L74,10 L74,12 L72,12 L72,10 Z M76,10 L78,10 L78,12 L76,12 L76,10 Z M70,12 L72,12 L72,16 L70,16 L70,12 Z M78,12 L80,12 L80,16 L78,16 L78,12 Z M68,16 L70,16 L70,18 L68,18 L68,16 Z M80,16 L82,16 L82,18 L80,18 L80,16 Z" id="形状"></path>
                    <polygon id="路径" points="84 0 96 0 96 2 86 2 86 8 94 8 94 10 86 10 86 16 96 16 96 18 84 18"></polygon>
                    <path d="M108,2 L102,2 L102,0 L108,0 L108,2 Z M100,2 L102,2 L102,4 L100,4 L100,2 Z M108,2 L110,2 L110,4 L108,4 L108,2 Z M98,4 L100,4 L100,14 L98,14 L98,4 Z M100,14 L102,14 L102,16 L100,16 L100,14 Z M106,10 L110,10 L110,18 L102,18 L102,16 L108,16 L108,12 L106,12 L106,10 Z" id="形状"></path>
                    <path d="M122,2 L114,2 L114,0 L122,0 L122,2 Z M122,2 L124,2 L124,4 L122,4 L122,2 Z M112,2 L114,2 L114,6 L112,6 L112,2 Z M114,6 L116,6 L116,8 L114,8 L114,6 Z M116,8 L120,8 L120,10 L116,10 L116,8 Z M120,10 L122,10 L122,12 L120,12 L120,10 Z M112,14 L114,14 L114,16 L112,16 L112,14 Z M122,12 L124,12 L124,16 L122,16 L122,12 Z M122,16 L122,18 L114,18 L114,16 L122,16 Z" id="形状"></path>
                </g>
            </g>
        </g>
    </g>
</svg>