<?xml version="1.0" encoding="UTF-8"?>
<svg width="372px" height="40px" viewBox="0 0 372 40" version="1.1" xmlns="http://www.w3.org/2000/svg" xmlns:xlink="http://www.w3.org/1999/xlink">
    <title>atari7800</title>
    <g id="system-list" stroke="none" stroke-width="1" fill="none" fill-rule="evenodd">
        <g id="画板" transform="translate(0, -884)">
            <g id="atari7800" transform="translate(0, 884)">
                <rect id="矩形备份-6" x="0" y="0" width="372" height="40"></rect>
                <g id="Atari-7800" transform="translate(24, 0)" fill="#FFFFFF" fill-rule="nonzero">
                    <path d="M6,0 L8,0 L8,4 L6,4 L6,0 Z M4,4 L6,4 L6,8 L4,8 L4,4 Z M8,4 L10,4 L10,8 L8,8 L8,4 Z M10,10 L10,8 L12,8 L12,14 L10,14 L10,12 L4,12 L4,14 L2,14 L2,8 L4,8 L4,10 L10,10 Z M0,14 L2,14 L2,18 L0,18 L0,14 Z M12,14 L14,14 L14,18 L12,18 L12,14 Z" id="形状"></path>
                    <path d="M18,8 L16,8 L16,6 L18,6 L18,0 L20,0 L20,6 L24,6 L24,8 L20,8 L20,16 L18,16 L18,8 Z M24,18 L20,18 L20,16 L24,16 L24,18 Z" id="形状"></path>
                    <path d="M34,8 L28,8 L28,6 L34,6 L34,8 Z M26,12 L28,12 L28,16 L26,16 L26,12 Z M36,18 L28,18 L28,16 L34,16 L34,12 L28,12 L28,10 L34,10 L34,8 L36,8 L36,18 Z" id="形状"></path>
                    <path d="M46,8 L42,8 L42,6 L46,6 L46,8 Z M38,6 L40,6 L40,8 L42,8 L42,10 L40,10 L40,18 L38,18 L38,6 Z" id="形状"></path>
                    <path d="M50,0 L52,0 L52,2 L50,2 L50,0 Z M50,8 L48,8 L48,6 L52,6 L52,16 L54,16 L54,18 L48,18 L48,16 L50,16 L50,8 Z" id="形状"></path>
                    <path d="M76,2 L68,2 L68,0 L78,0 L78,6 L76,6 L76,2 Z M74,6 L76,6 L76,10 L74,10 L74,6 Z M72,10 L74,10 L74,18 L72,18 L72,10 Z" id="形状"></path>
                    <path d="M88,0 L88,2 L82,2 L82,0 L88,0 Z M80,2 L82,2 L82,8 L80,8 L80,2 Z M88,2 L90,2 L90,8 L88,8 L88,2 Z M88,8 L88,10 L82,10 L82,8 L88,8 Z M80,10 L82,10 L82,16 L80,16 L80,10 Z M88,10 L90,10 L90,16 L88,16 L88,10 Z M88,18 L82,18 L82,16 L88,16 L88,18 Z" id="形状"></path>
                    <path d="M100,0 L100,2 L94,2 L94,0 L100,0 Z M96,8 L98,8 L98,10 L96,10 L96,8 Z M92,2 L94,2 L94,10 L96,10 L96,12 L94,12 L94,16 L92,16 L92,2 Z M100,8 L98,8 L98,6 L100,6 L100,2 L102,2 L102,16 L100,16 L100,8 Z M100,18 L94,18 L94,16 L100,16 L100,18 Z" id="形状"></path>
                    <path d="M112,0 L112,2 L106,2 L106,0 L112,0 Z M108,8 L110,8 L110,10 L108,10 L108,8 Z M104,2 L106,2 L106,10 L108,10 L108,12 L106,12 L106,16 L104,16 L104,2 Z M112,8 L110,8 L110,6 L112,6 L112,2 L114,2 L114,16 L112,16 L112,8 Z M112,18 L106,18 L106,16 L112,16 L112,18 Z" id="形状"></path>
                </g>
            </g>
        </g>
    </g>
</svg>