<?xml version="1.0" encoding="UTF-8"?>
<svg width="372px" height="40px" viewBox="0 0 372 40" version="1.1" xmlns="http://www.w3.org/2000/svg" xmlns:xlink="http://www.w3.org/1999/xlink">
    <title>atlus</title>
    <g id="system-list" stroke="none" stroke-width="1" fill="none" fill-rule="evenodd">
        <g id="画板" transform="translate(0, -1060)">
            <g id="atlus" transform="translate(0, 1060)">
                <rect id="矩形备份-6" x="0" y="0" width="372" height="40"></rect>
                <g id="Atlus" transform="translate(24, 0)" fill="#FFFFFF" fill-rule="nonzero">
                    <path d="M6,0 L8,0 L8,4 L6,4 L6,0 Z M4,4 L6,4 L6,8 L4,8 L4,4 Z M8,4 L10,4 L10,8 L8,8 L8,4 Z M10,10 L10,8 L12,8 L12,14 L10,14 L10,12 L4,12 L4,14 L2,14 L2,8 L4,8 L4,10 L10,10 Z M0,14 L2,14 L2,18 L0,18 L0,14 Z M12,14 L14,14 L14,18 L12,18 L12,14 Z" id="形状"></path>
                    <path d="M18,8 L16,8 L16,6 L18,6 L18,0 L20,0 L20,6 L24,6 L24,8 L20,8 L20,16 L18,16 L18,8 Z M24,18 L20,18 L20,16 L24,16 L24,18 Z" id="形状"></path>
                    <polygon id="路径" points="28 2 26 2 26 0 30 0 30 16 32 16 32 18 28 18"></polygon>
                    <path d="M34,6 L36,6 L36,16 L34,16 L34,6 Z M36,16 L40,16 L40,18 L36,18 L36,16 Z M42,6 L44,6 L44,18 L42,18 L42,16 L40,16 L40,14 L42,14 L42,6 Z" id="形状"></path>
                    <path d="M54,8 L48,8 L48,6 L54,6 L54,8 Z M46,8 L48,8 L48,10 L46,10 L46,8 Z M54,8 L56,8 L56,10 L54,10 L54,8 Z M52,12 L48,12 L48,10 L52,10 L52,12 Z M52,12 L54,12 L54,14 L52,14 L52,12 Z M46,14 L48,14 L48,16 L46,16 L46,14 Z M54,14 L56,14 L56,16 L54,16 L54,14 Z M54,18 L48,18 L48,16 L54,16 L54,18 Z" id="形状"></path>
                </g>
            </g>
        </g>
    </g>
</svg>