<?xml version="1.0" encoding="UTF-8"?>
<svg width="372px" height="40px" viewBox="0 0 372 40" version="1.1" xmlns="http://www.w3.org/2000/svg" xmlns:xlink="http://www.w3.org/1999/xlink">
    <title>atomiswave</title>
    <g id="system-list" stroke="none" stroke-width="1" fill="none" fill-rule="evenodd">
        <g id="画板" transform="translate(0, -708)">
            <g id="atomiswave" transform="translate(0, 708)">
                <rect id="矩形备份-6" x="0" y="0" width="372" height="40"></rect>
                <g id="Atomiswave" transform="translate(24, 0)" fill="#FFFFFF" fill-rule="nonzero">
                    <path d="M6,0 L8,0 L8,4 L6,4 L6,0 Z M4,4 L6,4 L6,8 L4,8 L4,4 Z M8,4 L10,4 L10,8 L8,8 L8,4 Z M10,10 L10,8 L12,8 L12,14 L10,14 L10,12 L4,12 L4,14 L2,14 L2,8 L4,8 L4,10 L10,10 Z M0,14 L2,14 L2,18 L0,18 L0,14 Z M12,14 L14,14 L14,18 L12,18 L12,14 Z" id="形状"></path>
                    <path d="M18,8 L16,8 L16,6 L18,6 L18,0 L20,0 L20,6 L24,6 L24,8 L20,8 L20,16 L18,16 L18,8 Z M24,18 L20,18 L20,16 L24,16 L24,18 Z" id="形状"></path>
                    <path d="M34,8 L28,8 L28,6 L34,6 L34,8 Z M26,8 L28,8 L28,16 L26,16 L26,8 Z M34,8 L36,8 L36,16 L34,16 L34,8 Z M34,18 L28,18 L28,16 L34,16 L34,18 Z" id="形状"></path>
                    <path d="M46,6 L50,6 L50,8 L46,8 L46,6 Z M38,6 L44,6 L44,8 L40,8 L40,18 L38,18 L38,6 Z M44,8 L46,8 L46,18 L44,18 L44,8 Z M50,8 L52,8 L52,18 L50,18 L50,8 Z" id="形状"></path>
                    <path d="M56,0 L58,0 L58,2 L56,2 L56,0 Z M56,8 L54,8 L54,6 L58,6 L58,16 L60,16 L60,18 L54,18 L54,16 L56,16 L56,8 Z" id="形状"></path>
                    <path d="M70,8 L64,8 L64,6 L70,6 L70,8 Z M62,8 L64,8 L64,10 L62,10 L62,8 Z M70,8 L72,8 L72,10 L70,10 L70,8 Z M68,12 L64,12 L64,10 L68,10 L68,12 Z M68,12 L70,12 L70,14 L68,14 L68,12 Z M62,14 L64,14 L64,16 L62,16 L62,14 Z M70,14 L72,14 L72,16 L70,16 L70,14 Z M70,18 L64,18 L64,16 L70,16 L70,18 Z" id="形状"></path>
                    <path d="M80,6 L82,6 L82,10 L80,10 L80,6 Z M74,6 L76,6 L76,14 L74,14 L74,6 Z M78,10 L80,10 L80,14 L78,14 L78,10 Z M82,10 L84,10 L84,14 L82,14 L82,10 Z M86,6 L88,6 L88,14 L86,14 L86,6 Z M76,14 L78,14 L78,18 L76,18 L76,14 Z M84,14 L86,14 L86,18 L84,18 L84,14 Z" id="形状"></path>
                    <path d="M98,8 L92,8 L92,6 L98,6 L98,8 Z M90,12 L92,12 L92,16 L90,16 L90,12 Z M100,18 L92,18 L92,16 L98,16 L98,12 L92,12 L92,10 L98,10 L98,8 L100,8 L100,18 Z" id="形状"></path>
                    <path d="M102,6 L104,6 L104,10 L102,10 L102,6 Z M110,6 L112,6 L112,10 L110,10 L110,6 Z M104,10 L106,10 L106,14 L104,14 L104,10 Z M108,10 L110,10 L110,14 L108,14 L108,10 Z M106,14 L108,14 L108,18 L106,18 L106,14 Z" id="形状"></path>
                    <path d="M122,8 L116,8 L116,6 L122,6 L122,8 Z M124,12 L116,12 L116,16 L114,16 L114,8 L116,8 L116,10 L122,10 L122,8 L124,8 L124,12 Z M122,14 L124,14 L124,16 L122,16 L122,14 Z M122,18 L116,18 L116,16 L122,16 L122,18 Z" id="形状"></path>
                </g>
            </g>
        </g>
    </g>
</svg>