<?xml version="1.0" encoding="UTF-8"?>
<svg width="372px" height="40px" viewBox="0 0 372 40" version="1.1" xmlns="http://www.w3.org/2000/svg" xmlns:xlink="http://www.w3.org/1999/xlink">
    <title>auto-allgames</title>
    <g id="system-list" stroke="none" stroke-width="1" fill="none" fill-rule="evenodd">
        <g id="画板" transform="translate(0, -664)">
            <g id="auto-allgames" transform="translate(0, 664)">
                <rect id="矩形备份-6" x="0" y="0" width="372" height="40"></rect>
                <g id="All-Games" transform="translate(24, 0)" fill="#FFFFFF" fill-rule="nonzero">
                    <path d="M6,0 L8,0 L8,4 L6,4 L6,0 Z M4,4 L6,4 L6,8 L4,8 L4,4 Z M8,4 L10,4 L10,8 L8,8 L8,4 Z M10,10 L10,8 L12,8 L12,14 L10,14 L10,12 L4,12 L4,14 L2,14 L2,8 L4,8 L4,10 L10,10 Z M0,14 L2,14 L2,18 L0,18 L0,14 Z M12,14 L14,14 L14,18 L12,18 L12,14 Z" id="形状"></path>
                    <polygon id="路径" points="18 2 16 2 16 0 20 0 20 16 22 16 22 18 18 18"></polygon>
                    <polygon id="路径" points="26 2 24 2 24 0 28 0 28 16 30 16 30 18 26 18"></polygon>
                    <path d="M54,2 L48,2 L48,0 L54,0 L54,2 Z M46,2 L48,2 L48,4 L46,4 L46,2 Z M54,2 L56,2 L56,4 L54,4 L54,2 Z M44,4 L46,4 L46,14 L44,14 L44,4 Z M46,14 L48,14 L48,16 L46,16 L46,14 Z M52,10 L56,10 L56,18 L48,18 L48,16 L54,16 L54,12 L52,12 L52,10 Z" id="形状"></path>
                    <path d="M66,8 L60,8 L60,6 L66,6 L66,8 Z M58,12 L60,12 L60,16 L58,16 L58,12 Z M68,18 L60,18 L60,16 L66,16 L66,12 L60,12 L60,10 L66,10 L66,8 L68,8 L68,18 Z" id="形状"></path>
                    <path d="M78,6 L82,6 L82,8 L78,8 L78,6 Z M70,6 L76,6 L76,8 L72,8 L72,18 L70,18 L70,6 Z M76,8 L78,8 L78,18 L76,18 L76,8 Z M82,8 L84,8 L84,18 L82,18 L82,8 Z" id="形状"></path>
                    <path d="M94,8 L88,8 L88,6 L94,6 L94,8 Z M96,12 L88,12 L88,16 L86,16 L86,8 L88,8 L88,10 L94,10 L94,8 L96,8 L96,12 Z M94,14 L96,14 L96,16 L94,16 L94,14 Z M94,18 L88,18 L88,16 L94,16 L94,18 Z" id="形状"></path>
                    <path d="M106,8 L100,8 L100,6 L106,6 L106,8 Z M98,8 L100,8 L100,10 L98,10 L98,8 Z M106,8 L108,8 L108,10 L106,10 L106,8 Z M104,12 L100,12 L100,10 L104,10 L104,12 Z M104,12 L106,12 L106,14 L104,14 L104,12 Z M98,14 L100,14 L100,16 L98,16 L98,14 Z M106,14 L108,14 L108,16 L106,16 L106,14 Z M106,18 L100,18 L100,16 L106,16 L106,18 Z" id="形状"></path>
                </g>
            </g>
        </g>
    </g>
</svg>