<?xml version="1.0" encoding="UTF-8"?>
<svg width="372px" height="40px" viewBox="0 0 372 40" version="1.1" xmlns="http://www.w3.org/2000/svg" xmlns:xlink="http://www.w3.org/1999/xlink">
    <title>auto-favorites</title>
    <g id="system-list" stroke="none" stroke-width="1" fill="none" fill-rule="evenodd">
        <g id="画板" transform="translate(0, -532)">
            <g id="auto-favorites" transform="translate(0, 532)">
                <rect id="矩形备份-6" x="0" y="0" width="372" height="40"></rect>
                <g id="Favorites" transform="translate(24, 0)" fill="#FFFFFF" fill-rule="nonzero">
                    <polygon id="路径" points="0 0 12 0 12 2 2 2 2 8 10 8 10 10 2 10 2 18 0 18"></polygon>
                    <path d="M22,8 L16,8 L16,6 L22,6 L22,8 Z M14,12 L16,12 L16,16 L14,16 L14,12 Z M24,18 L16,18 L16,16 L22,16 L22,12 L16,12 L16,10 L22,10 L22,8 L24,8 L24,18 Z" id="形状"></path>
                    <path d="M26,6 L28,6 L28,10 L26,10 L26,6 Z M34,6 L36,6 L36,10 L34,10 L34,6 Z M28,10 L30,10 L30,14 L28,14 L28,10 Z M32,10 L34,10 L34,14 L32,14 L32,10 Z M30,14 L32,14 L32,18 L30,18 L30,14 Z" id="形状"></path>
                    <path d="M46,8 L40,8 L40,6 L46,6 L46,8 Z M38,8 L40,8 L40,16 L38,16 L38,8 Z M46,8 L48,8 L48,16 L46,16 L46,8 Z M46,18 L40,18 L40,16 L46,16 L46,18 Z" id="形状"></path>
                    <path d="M58,8 L54,8 L54,6 L58,6 L58,8 Z M50,6 L52,6 L52,8 L54,8 L54,10 L52,10 L52,18 L50,18 L50,6 Z" id="形状"></path>
                    <path d="M62,0 L64,0 L64,2 L62,2 L62,0 Z M62,8 L60,8 L60,6 L64,6 L64,16 L66,16 L66,18 L60,18 L60,16 L62,16 L62,8 Z" id="形状"></path>
                    <path d="M70,8 L68,8 L68,6 L70,6 L70,0 L72,0 L72,6 L76,6 L76,8 L72,8 L72,16 L70,16 L70,8 Z M76,18 L72,18 L72,16 L76,16 L76,18 Z" id="形状"></path>
                    <path d="M86,8 L80,8 L80,6 L86,6 L86,8 Z M88,12 L80,12 L80,16 L78,16 L78,8 L80,8 L80,10 L86,10 L86,8 L88,8 L88,12 Z M86,14 L88,14 L88,16 L86,16 L86,14 Z M86,18 L80,18 L80,16 L86,16 L86,18 Z" id="形状"></path>
                    <path d="M98,8 L92,8 L92,6 L98,6 L98,8 Z M90,8 L92,8 L92,10 L90,10 L90,8 Z M98,8 L100,8 L100,10 L98,10 L98,8 Z M96,12 L92,12 L92,10 L96,10 L96,12 Z M96,12 L98,12 L98,14 L96,14 L96,12 Z M90,14 L92,14 L92,16 L90,16 L90,14 Z M98,14 L100,14 L100,16 L98,16 L98,14 Z M98,18 L92,18 L92,16 L98,16 L98,18 Z" id="形状"></path>
                </g>
            </g>
        </g>
    </g>
</svg>