<?xml version="1.0" encoding="UTF-8"?>
<svg width="372px" height="40px" viewBox="0 0 372 40" version="1.1" xmlns="http://www.w3.org/2000/svg" xmlns:xlink="http://www.w3.org/1999/xlink">
    <title>auto-lastplayed</title>
    <g id="system-list" stroke="none" stroke-width="1" fill="none" fill-rule="evenodd">
        <g id="画板" transform="translate(0, -488)">
            <g id="auto-lastplayed" transform="translate(0, 488)">
                <rect id="矩形备份-6" x="0" y="0" width="372" height="40"></rect>
                <g id="Last-Played" transform="translate(24, 0)" fill="#FFFFFF" fill-rule="nonzero">
                    <polygon id="路径" points="0 0 2 0 2 16 10 16 10 18 0 18"></polygon>
                    <path d="M20,8 L14,8 L14,6 L20,6 L20,8 Z M12,12 L14,12 L14,16 L12,16 L12,12 Z M22,18 L14,18 L14,16 L20,16 L20,12 L14,12 L14,10 L20,10 L20,8 L22,8 L22,18 Z" id="形状"></path>
                    <path d="M32,8 L26,8 L26,6 L32,6 L32,8 Z M24,8 L26,8 L26,10 L24,10 L24,8 Z M32,8 L34,8 L34,10 L32,10 L32,8 Z M30,12 L26,12 L26,10 L30,10 L30,12 Z M30,12 L32,12 L32,14 L30,14 L30,12 Z M24,14 L26,14 L26,16 L24,16 L24,14 Z M32,14 L34,14 L34,16 L32,16 L32,14 Z M32,18 L26,18 L26,16 L32,16 L32,18 Z" id="形状"></path>
                    <path d="M38,8 L36,8 L36,6 L38,6 L38,0 L40,0 L40,6 L44,6 L44,8 L40,8 L40,16 L38,16 L38,8 Z M44,18 L40,18 L40,16 L44,16 L44,18 Z" id="形状"></path>
                    <path d="M68,2 L70,2 L70,8 L68,8 L68,2 Z M58,0 L68,0 L68,2 L60,2 L60,8 L68,8 L68,10 L60,10 L60,18 L58,18 L58,0 Z" id="形状"></path>
                    <polygon id="路径" points="74 2 72 2 72 0 76 0 76 16 78 16 78 18 74 18"></polygon>
                    <path d="M88,8 L82,8 L82,6 L88,6 L88,8 Z M80,12 L82,12 L82,16 L80,16 L80,12 Z M90,18 L82,18 L82,16 L88,16 L88,12 L82,12 L82,10 L88,10 L88,8 L90,8 L90,18 Z" id="形状"></path>
                    <path d="M92,6 L94,6 L94,12 L92,12 L92,6 Z M100,6 L102,6 L102,12 L100,12 L100,6 Z M94,12 L96,12 L96,16 L94,16 L94,12 Z M98,12 L100,12 L100,16 L98,16 L98,12 Z M96,16 L98,16 L98,20 L96,20 L96,16 Z M92,20 L96,20 L96,22 L92,22 L92,20 Z" id="形状"></path>
                    <path d="M112,8 L106,8 L106,6 L112,6 L112,8 Z M114,12 L106,12 L106,16 L104,16 L104,8 L106,8 L106,10 L112,10 L112,8 L114,8 L114,12 Z M112,14 L114,14 L114,16 L112,16 L112,14 Z M112,18 L106,18 L106,16 L112,16 L112,18 Z" id="形状"></path>
                    <path d="M116,8 L118,8 L118,16 L116,16 L116,8 Z M124,8 L118,8 L118,6 L124,6 L124,0 L126,0 L126,18 L118,18 L118,16 L124,16 L124,8 Z" id="形状"></path>
                </g>
            </g>
        </g>
    </g>
</svg>