<?xml version="1.0" encoding="UTF-8"?>
<svg width="372px" height="40px" viewBox="0 0 372 40" version="1.1" xmlns="http://www.w3.org/2000/svg" xmlns:xlink="http://www.w3.org/1999/xlink">
    <title>auto-allgames</title>
    <g id="页面-1" stroke="none" stroke-width="1" fill="none" fill-rule="evenodd">
        <g id="home_fusion_prop_logo备份" transform="translate(-96, -28)">
            <g id="auto-allgames" transform="translate(96, 28)">
                <rect id="space" x="0" y="0" width="372" height="40"></rect>
                <g id="ALL-GAMES" transform="translate(24, 0)" fill="#FFFFFF" fill-rule="nonzero">
                    <path d="M6,0 L8,0 L8,4 L6,4 L6,0 Z M4,4 L6,4 L6,8 L4,8 L4,4 Z M8,4 L10,4 L10,8 L8,8 L8,4 Z M10,10 L10,8 L12,8 L12,14 L10,14 L10,12 L4,12 L4,14 L2,14 L2,8 L4,8 L4,10 L10,10 Z M0,14 L2,14 L2,18 L0,18 L0,14 Z M12,14 L14,14 L14,18 L12,18 L12,14 Z" id="形状"></path>
                    <polygon id="路径" points="16 0 18 0 18 16 26 16 26 18 16 18"></polygon>
                    <polygon id="路径" points="28 0 30 0 30 16 38 16 38 18 28 18"></polygon>
                    <path d="M62,2 L56,2 L56,0 L62,0 L62,2 Z M54,2 L56,2 L56,4 L54,4 L54,2 Z M62,2 L64,2 L64,4 L62,4 L62,2 Z M52,4 L54,4 L54,14 L52,14 L52,4 Z M54,14 L56,14 L56,16 L54,16 L54,14 Z M60,10 L64,10 L64,18 L56,18 L56,16 L62,16 L62,12 L60,12 L60,10 Z" id="形状"></path>
                    <path d="M72,0 L74,0 L74,4 L72,4 L72,0 Z M70,4 L72,4 L72,8 L70,8 L70,4 Z M74,4 L76,4 L76,8 L74,8 L74,4 Z M76,10 L76,8 L78,8 L78,14 L76,14 L76,12 L70,12 L70,14 L68,14 L68,8 L70,8 L70,10 L76,10 Z M66,14 L68,14 L68,18 L66,18 L66,14 Z M78,14 L80,14 L80,18 L78,18 L78,14 Z" id="形状"></path>
                    <path d="M86,6 L88,6 L88,10 L86,10 L86,6 Z M94,6 L96,6 L96,10 L94,10 L94,6 Z M88,10 L90,10 L90,14 L88,14 L88,10 Z M92,10 L94,10 L94,14 L92,14 L92,10 Z M82,0 L84,0 L84,2 L86,2 L86,6 L84,6 L84,18 L82,18 L82,0 Z M90,14 L92,14 L92,18 L90,18 L90,14 Z M98,6 L96,6 L96,2 L98,2 L98,0 L100,0 L100,18 L98,18 L98,6 Z" id="形状"></path>
                    <polygon id="路径" points="102 0 114 0 114 2 104 2 104 8 112 8 112 10 104 10 104 16 114 16 114 18 102 18"></polygon>
                    <path d="M126,2 L118,2 L118,0 L126,0 L126,2 Z M126,2 L128,2 L128,4 L126,4 L126,2 Z M116,2 L118,2 L118,6 L116,6 L116,2 Z M118,6 L120,6 L120,8 L118,8 L118,6 Z M120,8 L124,8 L124,10 L120,10 L120,8 Z M124,10 L126,10 L126,12 L124,12 L124,10 Z M116,14 L118,14 L118,16 L116,16 L116,14 Z M126,12 L128,12 L128,16 L126,16 L126,12 Z M126,16 L126,18 L118,18 L118,16 L126,16 Z" id="形状"></path>
                </g>
            </g>
        </g>
    </g>
</svg>