<?xml version="1.0" encoding="UTF-8"?>
<svg width="372px" height="40px" viewBox="0 0 372 40" version="1.1" xmlns="http://www.w3.org/2000/svg" xmlns:xlink="http://www.w3.org/1999/xlink">
    <title>banpresto</title>
    <g id="system-list" stroke="none" stroke-width="1" fill="none" fill-rule="evenodd">
        <g id="画板" transform="translate(0, -400)">
            <g id="banpresto" transform="translate(0, 400)">
                <rect id="矩形备份-6" x="0" y="0" width="372" height="40"></rect>
                <g id="Banpresto" transform="translate(24, 0)" fill="#FFFFFF" fill-rule="nonzero">
                    <path d="M10,2 L12,2 L12,8 L10,8 L10,2 Z M10,10 L12,10 L12,16 L10,16 L10,10 Z M0,0 L10,0 L10,2 L2,2 L2,8 L10,8 L10,10 L2,10 L2,16 L10,16 L10,18 L0,18 L0,0 Z" id="形状"></path>
                    <path d="M22,8 L16,8 L16,6 L22,6 L22,8 Z M14,12 L16,12 L16,16 L14,16 L14,12 Z M24,18 L16,18 L16,16 L22,16 L22,12 L16,12 L16,10 L22,10 L22,8 L24,8 L24,18 Z" id="形状"></path>
                    <path d="M34,8 L30,8 L30,6 L34,6 L34,8 Z M26,6 L28,6 L28,8 L30,8 L30,10 L28,10 L28,18 L26,18 L26,6 Z M34,8 L36,8 L36,18 L34,18 L34,8 Z" id="形状"></path>
                    <path d="M46,8 L48,8 L48,16 L46,16 L46,8 Z M46,8 L40,8 L40,16 L46,16 L46,18 L40,18 L40,22 L38,22 L38,6 L46,6 L46,8 Z" id="形状"></path>
                    <path d="M58,8 L54,8 L54,6 L58,6 L58,8 Z M50,6 L52,6 L52,8 L54,8 L54,10 L52,10 L52,18 L50,18 L50,6 Z" id="形状"></path>
                    <path d="M68,8 L62,8 L62,6 L68,6 L68,8 Z M70,12 L62,12 L62,16 L60,16 L60,8 L62,8 L62,10 L68,10 L68,8 L70,8 L70,12 Z M68,14 L70,14 L70,16 L68,16 L68,14 Z M68,18 L62,18 L62,16 L68,16 L68,18 Z" id="形状"></path>
                    <path d="M80,8 L74,8 L74,6 L80,6 L80,8 Z M72,8 L74,8 L74,10 L72,10 L72,8 Z M80,8 L82,8 L82,10 L80,10 L80,8 Z M78,12 L74,12 L74,10 L78,10 L78,12 Z M78,12 L80,12 L80,14 L78,14 L78,12 Z M72,14 L74,14 L74,16 L72,16 L72,14 Z M80,14 L82,14 L82,16 L80,16 L80,14 Z M80,18 L74,18 L74,16 L80,16 L80,18 Z" id="形状"></path>
                    <path d="M86,8 L84,8 L84,6 L86,6 L86,0 L88,0 L88,6 L92,6 L92,8 L88,8 L88,16 L86,16 L86,8 Z M92,18 L88,18 L88,16 L92,16 L92,18 Z" id="形状"></path>
                    <path d="M102,8 L96,8 L96,6 L102,6 L102,8 Z M94,8 L96,8 L96,16 L94,16 L94,8 Z M102,8 L104,8 L104,16 L102,16 L102,8 Z M102,18 L96,18 L96,16 L102,16 L102,18 Z" id="形状"></path>
                </g>
            </g>
        </g>
    </g>
</svg>