<?xml version="1.0" encoding="UTF-8"?>
<svg width="372px" height="40px" viewBox="0 0 372 40" version="1.1" xmlns="http://www.w3.org/2000/svg" xmlns:xlink="http://www.w3.org/1999/xlink">
    <title>channelf备份 3</title>
    <g id="system-list" stroke="none" stroke-width="1" fill="none" fill-rule="evenodd">
        <g id="画板" transform="translate(0, -1940)">
            <g id="channelf备份-3" transform="translate(0, 1940)">
                <rect id="矩形备份-6" x="0" y="0" width="372" height="40"></rect>
                <g id="Capcom" transform="translate(24, 0)" fill="#FFFFFF" fill-rule="nonzero">
                    <path d="M10,2 L4,2 L4,0 L10,0 L10,2 Z M2,2 L4,2 L4,4 L2,4 L2,2 Z M10,2 L12,2 L12,4 L10,4 L10,2 Z M0,4 L2,4 L2,14 L0,14 L0,4 Z M2,14 L4,14 L4,16 L2,16 L2,14 Z M10,14 L12,14 L12,16 L10,16 L10,14 Z M10,16 L10,18 L4,18 L4,16 L10,16 Z" id="形状"></path>
                    <path d="M22,8 L16,8 L16,6 L22,6 L22,8 Z M14,12 L16,12 L16,16 L14,16 L14,12 Z M24,18 L16,18 L16,16 L22,16 L22,12 L16,12 L16,10 L22,10 L22,8 L24,8 L24,18 Z" id="形状"></path>
                    <path d="M34,8 L36,8 L36,16 L34,16 L34,8 Z M34,8 L28,8 L28,16 L34,16 L34,18 L28,18 L28,22 L26,22 L26,6 L34,6 L34,8 Z" id="形状"></path>
                    <path d="M46,8 L40,8 L40,6 L46,6 L46,8 Z M46,8 L48,8 L48,10 L46,10 L46,8 Z M38,8 L40,8 L40,16 L38,16 L38,8 Z M46,14 L48,14 L48,16 L46,16 L46,14 Z M46,18 L40,18 L40,16 L46,16 L46,18 Z" id="形状"></path>
                    <path d="M58,8 L52,8 L52,6 L58,6 L58,8 Z M50,8 L52,8 L52,16 L50,16 L50,8 Z M58,8 L60,8 L60,16 L58,16 L58,8 Z M58,18 L52,18 L52,16 L58,16 L58,18 Z" id="形状"></path>
                    <path d="M70,6 L74,6 L74,8 L70,8 L70,6 Z M62,6 L68,6 L68,8 L64,8 L64,18 L62,18 L62,6 Z M68,8 L70,8 L70,18 L68,18 L68,8 Z M74,8 L76,8 L76,18 L74,18 L74,8 Z" id="形状"></path>
                </g>
            </g>
        </g>
    </g>
</svg>