<?xml version="1.0" encoding="UTF-8"?>
<svg width="372px" height="40px" viewBox="0 0 372 40" version="1.1" xmlns="http://www.w3.org/2000/svg" xmlns:xlink="http://www.w3.org/1999/xlink">
    <title>cdimono1</title>
    <g id="system-list" stroke="none" stroke-width="1" fill="none" fill-rule="evenodd">
        <g id="画板" transform="translate(0, -1852)">
            <g id="cdimono1" transform="translate(0, 1852)">
                <rect id="矩形备份-6" x="0" y="0" width="372" height="40"></rect>
                <g id="CDi" transform="translate(24, 0)" fill="#FFFFFF" fill-rule="nonzero">
                    <path d="M10,2 L4,2 L4,0 L10,0 L10,2 Z M2,2 L4,2 L4,4 L2,4 L2,2 Z M10,2 L12,2 L12,4 L10,4 L10,2 Z M0,4 L2,4 L2,14 L0,14 L0,4 Z M2,14 L4,14 L4,16 L2,16 L2,14 Z M10,14 L12,14 L12,16 L10,16 L10,14 Z M10,16 L10,18 L4,18 L4,16 L10,16 Z" id="形状"></path>
                    <path d="M22,2 L24,2 L24,4 L22,4 L22,2 Z M24,4 L26,4 L26,14 L24,14 L24,4 Z M22,14 L24,14 L24,16 L22,16 L22,14 Z M14,0 L22,0 L22,2 L16,2 L16,16 L22,16 L22,18 L14,18 L14,0 Z" id="形状"></path>
                    <path d="M30,0 L32,0 L32,2 L30,2 L30,0 Z M30,8 L28,8 L28,6 L32,6 L32,16 L34,16 L34,18 L28,18 L28,16 L30,16 L30,8 Z" id="形状"></path>
                </g>
            </g>
        </g>
    </g>
</svg>