<?xml version="1.0" encoding="UTF-8"?>
<svg width="372px" height="40px" viewBox="0 0 372 40" version="1.1" xmlns="http://www.w3.org/2000/svg" xmlns:xlink="http://www.w3.org/1999/xlink">
    <title>colecovision</title>
    <g id="system-list" stroke="none" stroke-width="1" fill="none" fill-rule="evenodd">
        <g id="画板" transform="translate(0, -1676)">
            <g id="colecovision" transform="translate(0, 1676)">
                <rect id="矩形备份-6" x="0" y="0" width="372" height="40"></rect>
                <g id="Colecovision" transform="translate(24, 0)" fill="#FFFFFF" fill-rule="nonzero">
                    <path d="M10,2 L4,2 L4,0 L10,0 L10,2 Z M2,2 L4,2 L4,4 L2,4 L2,2 Z M10,2 L12,2 L12,4 L10,4 L10,2 Z M0,4 L2,4 L2,14 L0,14 L0,4 Z M2,14 L4,14 L4,16 L2,16 L2,14 Z M10,14 L12,14 L12,16 L10,16 L10,14 Z M10,16 L10,18 L4,18 L4,16 L10,16 Z" id="形状"></path>
                    <path d="M22,8 L16,8 L16,6 L22,6 L22,8 Z M14,8 L16,8 L16,16 L14,16 L14,8 Z M22,8 L24,8 L24,16 L22,16 L22,8 Z M22,18 L16,18 L16,16 L22,16 L22,18 Z" id="形状"></path>
                    <polygon id="路径" points="28 2 26 2 26 0 30 0 30 16 32 16 32 18 28 18"></polygon>
                    <path d="M42,8 L36,8 L36,6 L42,6 L42,8 Z M44,12 L36,12 L36,16 L34,16 L34,8 L36,8 L36,10 L42,10 L42,8 L44,8 L44,12 Z M42,14 L44,14 L44,16 L42,16 L42,14 Z M42,18 L36,18 L36,16 L42,16 L42,18 Z" id="形状"></path>
                    <path d="M54,8 L48,8 L48,6 L54,6 L54,8 Z M54,8 L56,8 L56,10 L54,10 L54,8 Z M46,8 L48,8 L48,16 L46,16 L46,8 Z M54,14 L56,14 L56,16 L54,16 L54,14 Z M54,18 L48,18 L48,16 L54,16 L54,18 Z" id="形状"></path>
                    <path d="M66,8 L60,8 L60,6 L66,6 L66,8 Z M58,8 L60,8 L60,16 L58,16 L58,8 Z M66,8 L68,8 L68,16 L66,16 L66,8 Z M66,18 L60,18 L60,16 L66,16 L66,18 Z" id="形状"></path>
                    <path d="M70,6 L72,6 L72,10 L70,10 L70,6 Z M78,6 L80,6 L80,10 L78,10 L78,6 Z M72,10 L74,10 L74,14 L72,14 L72,10 Z M76,10 L78,10 L78,14 L76,14 L76,10 Z M74,14 L76,14 L76,18 L74,18 L74,14 Z" id="形状"></path>
                    <path d="M84,0 L86,0 L86,2 L84,2 L84,0 Z M84,8 L82,8 L82,6 L86,6 L86,16 L88,16 L88,18 L82,18 L82,16 L84,16 L84,8 Z" id="形状"></path>
                    <path d="M98,8 L92,8 L92,6 L98,6 L98,8 Z M90,8 L92,8 L92,10 L90,10 L90,8 Z M98,8 L100,8 L100,10 L98,10 L98,8 Z M96,12 L92,12 L92,10 L96,10 L96,12 Z M96,12 L98,12 L98,14 L96,14 L96,12 Z M90,14 L92,14 L92,16 L90,16 L90,14 Z M98,14 L100,14 L100,16 L98,16 L98,14 Z M98,18 L92,18 L92,16 L98,16 L98,18 Z" id="形状"></path>
                    <path d="M104,0 L106,0 L106,2 L104,2 L104,0 Z M104,8 L102,8 L102,6 L106,6 L106,16 L108,16 L108,18 L102,18 L102,16 L104,16 L104,8 Z" id="形状"></path>
                    <path d="M118,8 L112,8 L112,6 L118,6 L118,8 Z M110,8 L112,8 L112,16 L110,16 L110,8 Z M118,8 L120,8 L120,16 L118,16 L118,8 Z M118,18 L112,18 L112,16 L118,16 L118,18 Z" id="形状"></path>
                    <path d="M130,8 L126,8 L126,6 L130,6 L130,8 Z M122,6 L124,6 L124,8 L126,8 L126,10 L124,10 L124,18 L122,18 L122,6 Z M130,8 L132,8 L132,18 L130,18 L130,8 Z" id="形状"></path>
                </g>
            </g>
        </g>
    </g>
</svg>