<?xml version="1.0" encoding="UTF-8"?>
<svg width="372px" height="40px" viewBox="0 0 372 40" version="1.1" xmlns="http://www.w3.org/2000/svg" xmlns:xlink="http://www.w3.org/1999/xlink">
    <title>cps3</title>
    <g id="system-list" stroke="none" stroke-width="1" fill="none" fill-rule="evenodd">
        <g id="画板" transform="translate(0, -1544)">
            <g id="cps3" transform="translate(0, 1544)">
                <rect id="矩形备份-6" x="0" y="0" width="372" height="40"></rect>
                <g id="Capcom-Play-System-3" transform="translate(24, 0)" fill="#FFFFFF" fill-rule="nonzero">
                    <path d="M10,2 L4,2 L4,0 L10,0 L10,2 Z M2,2 L4,2 L4,4 L2,4 L2,2 Z M10,2 L12,2 L12,4 L10,4 L10,2 Z M0,4 L2,4 L2,14 L0,14 L0,4 Z M2,14 L4,14 L4,16 L2,16 L2,14 Z M10,14 L12,14 L12,16 L10,16 L10,14 Z M10,16 L10,18 L4,18 L4,16 L10,16 Z" id="形状"></path>
                    <path d="M22,8 L16,8 L16,6 L22,6 L22,8 Z M14,12 L16,12 L16,16 L14,16 L14,12 Z M24,18 L16,18 L16,16 L22,16 L22,12 L16,12 L16,10 L22,10 L22,8 L24,8 L24,18 Z" id="形状"></path>
                    <path d="M34,8 L36,8 L36,16 L34,16 L34,8 Z M34,8 L28,8 L28,16 L34,16 L34,18 L28,18 L28,22 L26,22 L26,6 L34,6 L34,8 Z" id="形状"></path>
                    <path d="M46,8 L40,8 L40,6 L46,6 L46,8 Z M46,8 L48,8 L48,10 L46,10 L46,8 Z M38,8 L40,8 L40,16 L38,16 L38,8 Z M46,14 L48,14 L48,16 L46,16 L46,14 Z M46,18 L40,18 L40,16 L46,16 L46,18 Z" id="形状"></path>
                    <path d="M58,8 L52,8 L52,6 L58,6 L58,8 Z M50,8 L52,8 L52,16 L50,16 L50,8 Z M58,8 L60,8 L60,16 L58,16 L58,8 Z M58,18 L52,18 L52,16 L58,16 L58,18 Z" id="形状"></path>
                    <path d="M70,6 L74,6 L74,8 L70,8 L70,6 Z M62,6 L68,6 L68,8 L64,8 L64,18 L62,18 L62,6 Z M68,8 L70,8 L70,18 L68,18 L68,8 Z M74,8 L76,8 L76,18 L74,18 L74,8 Z" id="形状"></path>
                    <path d="M100,2 L102,2 L102,8 L100,8 L100,2 Z M90,0 L100,0 L100,2 L92,2 L92,8 L100,8 L100,10 L92,10 L92,18 L90,18 L90,0 Z" id="形状"></path>
                    <polygon id="路径" points="106 2 104 2 104 0 108 0 108 16 110 16 110 18 106 18"></polygon>
                    <path d="M120,8 L114,8 L114,6 L120,6 L120,8 Z M112,12 L114,12 L114,16 L112,16 L112,12 Z M122,18 L114,18 L114,16 L120,16 L120,12 L114,12 L114,10 L120,10 L120,8 L122,8 L122,18 Z" id="形状"></path>
                    <path d="M124,6 L126,6 L126,12 L124,12 L124,6 Z M132,6 L134,6 L134,12 L132,12 L132,6 Z M126,12 L128,12 L128,16 L126,16 L126,12 Z M130,12 L132,12 L132,16 L130,16 L130,12 Z M128,16 L130,16 L130,20 L128,20 L128,16 Z M124,20 L128,20 L128,22 L124,22 L124,20 Z" id="形状"></path>
                    <path d="M158,2 L150,2 L150,0 L158,0 L158,2 Z M158,2 L160,2 L160,4 L158,4 L158,2 Z M148,2 L150,2 L150,6 L148,6 L148,2 Z M150,6 L152,6 L152,8 L150,8 L150,6 Z M152,8 L156,8 L156,10 L152,10 L152,8 Z M156,10 L158,10 L158,12 L156,12 L156,10 Z M148,14 L150,14 L150,16 L148,16 L148,14 Z M158,12 L160,12 L160,16 L158,16 L158,12 Z M158,16 L158,18 L150,18 L150,16 L158,16 Z" id="形状"></path>
                    <path d="M162,6 L164,6 L164,12 L162,12 L162,6 Z M170,6 L172,6 L172,12 L170,12 L170,6 Z M164,12 L166,12 L166,16 L164,16 L164,12 Z M168,12 L170,12 L170,16 L168,16 L168,12 Z M166,16 L168,16 L168,20 L166,20 L166,16 Z M162,20 L166,20 L166,22 L162,22 L162,20 Z" id="形状"></path>
                    <path d="M182,8 L176,8 L176,6 L182,6 L182,8 Z M174,8 L176,8 L176,10 L174,10 L174,8 Z M182,8 L184,8 L184,10 L182,10 L182,8 Z M180,12 L176,12 L176,10 L180,10 L180,12 Z M180,12 L182,12 L182,14 L180,14 L180,12 Z M174,14 L176,14 L176,16 L174,16 L174,14 Z M182,14 L184,14 L184,16 L182,16 L182,14 Z M182,18 L176,18 L176,16 L182,16 L182,18 Z" id="形状"></path>
                    <path d="M188,8 L186,8 L186,6 L188,6 L188,0 L190,0 L190,6 L194,6 L194,8 L190,8 L190,16 L188,16 L188,8 Z M194,18 L190,18 L190,16 L194,16 L194,18 Z" id="形状"></path>
                    <path d="M204,8 L198,8 L198,6 L204,6 L204,8 Z M206,12 L198,12 L198,16 L196,16 L196,8 L198,8 L198,10 L204,10 L204,8 L206,8 L206,12 Z M204,14 L206,14 L206,16 L204,16 L204,14 Z M204,18 L198,18 L198,16 L204,16 L204,18 Z" id="形状"></path>
                    <path d="M216,6 L220,6 L220,8 L216,8 L216,6 Z M208,6 L214,6 L214,8 L210,8 L210,18 L208,18 L208,6 Z M214,8 L216,8 L216,18 L214,18 L214,8 Z M220,8 L222,8 L222,18 L220,18 L220,8 Z" id="形状"></path>
                    <path d="M244,0 L244,2 L238,2 L238,0 L244,0 Z M236,2 L238,2 L238,4 L236,4 L236,2 Z M244,2 L246,2 L246,8 L244,8 L244,2 Z M240,8 L244,8 L244,10 L240,10 L240,8 Z M236,14 L238,14 L238,16 L236,16 L236,14 Z M244,10 L246,10 L246,16 L244,16 L244,10 Z M244,18 L238,18 L238,16 L244,16 L244,18 Z" id="形状"></path>
                </g>
            </g>
        </g>
    </g>
</svg>