<?xml version="1.0" encoding="UTF-8"?>
<svg width="372px" height="40px" viewBox="0 0 372 40" version="1.1" xmlns="http://www.w3.org/2000/svg" xmlns:xlink="http://www.w3.org/1999/xlink">
    <title>custom-collections</title>
    <g id="system-list" stroke="none" stroke-width="1" fill="none" fill-rule="evenodd">
        <g id="画板" transform="translate(0, -1500)">
            <g id="custom-collections" transform="translate(0, 1500)">
                <rect id="矩形备份-6" x="0" y="0" width="372" height="40"></rect>
                <g id="Custom-Collection" transform="translate(24, 0)" fill="#FFFFFF" fill-rule="nonzero">
                    <path d="M10,2 L4,2 L4,0 L10,0 L10,2 Z M2,2 L4,2 L4,4 L2,4 L2,2 Z M10,2 L12,2 L12,4 L10,4 L10,2 Z M0,4 L2,4 L2,14 L0,14 L0,4 Z M2,14 L4,14 L4,16 L2,16 L2,14 Z M10,14 L12,14 L12,16 L10,16 L10,14 Z M10,16 L10,18 L4,18 L4,16 L10,16 Z" id="形状"></path>
                    <path d="M14,6 L16,6 L16,16 L14,16 L14,6 Z M16,16 L20,16 L20,18 L16,18 L16,16 Z M22,6 L24,6 L24,18 L22,18 L22,16 L20,16 L20,14 L22,14 L22,6 Z" id="形状"></path>
                    <path d="M34,8 L28,8 L28,6 L34,6 L34,8 Z M26,8 L28,8 L28,10 L26,10 L26,8 Z M34,8 L36,8 L36,10 L34,10 L34,8 Z M32,12 L28,12 L28,10 L32,10 L32,12 Z M32,12 L34,12 L34,14 L32,14 L32,12 Z M26,14 L28,14 L28,16 L26,16 L26,14 Z M34,14 L36,14 L36,16 L34,16 L34,14 Z M34,18 L28,18 L28,16 L34,16 L34,18 Z" id="形状"></path>
                    <path d="M40,8 L38,8 L38,6 L40,6 L40,0 L42,0 L42,6 L46,6 L46,8 L42,8 L42,16 L40,16 L40,8 Z M46,18 L42,18 L42,16 L46,16 L46,18 Z" id="形状"></path>
                    <path d="M56,8 L50,8 L50,6 L56,6 L56,8 Z M48,8 L50,8 L50,16 L48,16 L48,8 Z M56,8 L58,8 L58,16 L56,16 L56,8 Z M56,18 L50,18 L50,16 L56,16 L56,18 Z" id="形状"></path>
                    <path d="M68,6 L72,6 L72,8 L68,8 L68,6 Z M60,6 L66,6 L66,8 L62,8 L62,18 L60,18 L60,6 Z M66,8 L68,8 L68,18 L66,18 L66,8 Z M72,8 L74,8 L74,18 L72,18 L72,8 Z" id="形状"></path>
                    <path d="M98,2 L92,2 L92,0 L98,0 L98,2 Z M90,2 L92,2 L92,4 L90,4 L90,2 Z M98,2 L100,2 L100,4 L98,4 L98,2 Z M88,4 L90,4 L90,14 L88,14 L88,4 Z M90,14 L92,14 L92,16 L90,16 L90,14 Z M98,14 L100,14 L100,16 L98,16 L98,14 Z M98,16 L98,18 L92,18 L92,16 L98,16 Z" id="形状"></path>
                    <path d="M110,8 L104,8 L104,6 L110,6 L110,8 Z M102,8 L104,8 L104,16 L102,16 L102,8 Z M110,8 L112,8 L112,16 L110,16 L110,8 Z M110,18 L104,18 L104,16 L110,16 L110,18 Z" id="形状"></path>
                    <polygon id="路径" points="116 2 114 2 114 0 118 0 118 16 120 16 120 18 116 18"></polygon>
                    <polygon id="路径" points="124 2 122 2 122 0 126 0 126 16 128 16 128 18 124 18"></polygon>
                    <path d="M138,8 L132,8 L132,6 L138,6 L138,8 Z M140,12 L132,12 L132,16 L130,16 L130,8 L132,8 L132,10 L138,10 L138,8 L140,8 L140,12 Z M138,14 L140,14 L140,16 L138,16 L138,14 Z M138,18 L132,18 L132,16 L138,16 L138,18 Z" id="形状"></path>
                    <path d="M150,8 L144,8 L144,6 L150,6 L150,8 Z M150,8 L152,8 L152,10 L150,10 L150,8 Z M142,8 L144,8 L144,16 L142,16 L142,8 Z M150,14 L152,14 L152,16 L150,16 L150,14 Z M150,18 L144,18 L144,16 L150,16 L150,18 Z" id="形状"></path>
                    <path d="M156,8 L154,8 L154,6 L156,6 L156,0 L158,0 L158,6 L162,6 L162,8 L158,8 L158,16 L156,16 L156,8 Z M162,18 L158,18 L158,16 L162,16 L162,18 Z" id="形状"></path>
                    <path d="M166,0 L168,0 L168,2 L166,2 L166,0 Z M166,8 L164,8 L164,6 L168,6 L168,16 L170,16 L170,18 L164,18 L164,16 L166,16 L166,8 Z" id="形状"></path>
                    <path d="M180,8 L174,8 L174,6 L180,6 L180,8 Z M172,8 L174,8 L174,16 L172,16 L172,8 Z M180,8 L182,8 L182,16 L180,16 L180,8 Z M180,18 L174,18 L174,16 L180,16 L180,18 Z" id="形状"></path>
                    <path d="M192,8 L188,8 L188,6 L192,6 L192,8 Z M184,6 L186,6 L186,8 L188,8 L188,10 L186,10 L186,18 L184,18 L184,6 Z M192,8 L194,8 L194,18 L192,18 L192,8 Z" id="形状"></path>
                </g>
            </g>
        </g>
    </g>
</svg>