<?xml version="1.0" encoding="UTF-8"?>
<svg width="372px" height="42px" viewBox="0 0 372 42" version="1.1" xmlns="http://www.w3.org/2000/svg" xmlns:xlink="http://www.w3.org/1999/xlink">
    <title>default</title>
    <g id="system-list" stroke="none" stroke-width="1" fill="none" fill-rule="evenodd">
        <g id="画板" transform="translate(0, -1410)">
            <g id="default" transform="translate(0, 1410)">
                <rect id="矩形备份-6" x="0" y="2" width="372" height="40"></rect>
                <g id="No-Logo-(Wait-For-Up" transform="translate(24, 0)" fill="#FFFFFF" fill-rule="nonzero">
                    <path d="M4,6 L6,6 L6,10 L4,10 L4,6 Z M6,10 L8,10 L8,14 L6,14 L6,10 Z M0,2 L2,2 L2,4 L4,4 L4,6 L2,6 L2,20 L0,20 L0,2 Z M10,2 L12,2 L12,20 L10,20 L10,18 L8,18 L8,14 L10,14 L10,2 Z" id="形状"></path>
                    <path d="M22,10 L16,10 L16,8 L22,8 L22,10 Z M14,10 L16,10 L16,18 L14,18 L14,10 Z M22,10 L24,10 L24,18 L22,18 L22,10 Z M22,20 L16,20 L16,18 L22,18 L22,20 Z" id="形状"></path>
                    <polygon id="路径" points="38 2 40 2 40 18 48 18 48 20 38 20"></polygon>
                    <path d="M58,10 L52,10 L52,8 L58,8 L58,10 Z M50,10 L52,10 L52,18 L50,18 L50,10 Z M58,10 L60,10 L60,18 L58,18 L58,10 Z M58,20 L52,20 L52,18 L58,18 L58,20 Z" id="形状"></path>
                    <path d="M62,10 L64,10 L64,18 L62,18 L62,10 Z M70,10 L64,10 L64,8 L72,8 L72,22 L70,22 L70,20 L64,20 L64,18 L70,18 L70,10 Z M70,22 L70,24 L64,24 L64,22 L70,22 Z" id="形状"></path>
                    <path d="M82,10 L76,10 L76,8 L82,8 L82,10 Z M74,10 L76,10 L76,18 L74,18 L74,10 Z M82,10 L84,10 L84,18 L82,18 L82,10 Z M82,20 L76,20 L76,18 L82,18 L82,20 Z" id="形状"></path>
                    <path d="M104,0 L106,0 L106,2 L104,2 L104,0 Z M102,2 L104,2 L104,6 L102,6 L102,2 Z M100,6 L102,6 L102,16 L100,16 L100,6 Z M102,16 L104,16 L104,20 L102,20 L102,16 Z M104,20 L106,20 L106,22 L104,22 L104,20 Z" id="形状"></path>
                    <path d="M110,2 L112,2 L112,8 L110,8 L110,2 Z M118,2 L120,2 L120,8 L118,8 L118,2 Z M126,2 L128,2 L128,8 L126,8 L126,2 Z M112,8 L114,8 L114,14 L112,14 L112,8 Z M116,8 L118,8 L118,14 L116,14 L116,8 Z M120,8 L122,8 L122,14 L120,14 L120,8 Z M124,8 L126,8 L126,14 L124,14 L124,8 Z M114,14 L116,14 L116,20 L114,20 L114,14 Z M122,14 L124,14 L124,20 L122,20 L122,14 Z" id="形状"></path>
                    <path d="M138,10 L132,10 L132,8 L138,8 L138,10 Z M130,14 L132,14 L132,18 L130,18 L130,14 Z M140,20 L132,20 L132,18 L138,18 L138,14 L132,14 L132,12 L138,12 L138,10 L140,10 L140,20 Z" id="形状"></path>
                    <path d="M144,2 L146,2 L146,4 L144,4 L144,2 Z M144,10 L142,10 L142,8 L146,8 L146,18 L148,18 L148,20 L142,20 L142,18 L144,18 L144,10 Z" id="形状"></path>
                    <path d="M152,10 L150,10 L150,8 L152,8 L152,2 L154,2 L154,8 L158,8 L158,10 L154,10 L154,18 L152,18 L152,10 Z M158,20 L154,20 L154,18 L158,18 L158,20 Z" id="形状"></path>
                    <polygon id="路径" points="172 2 184 2 184 4 174 4 174 10 182 10 182 12 174 12 174 20 172 20"></polygon>
                    <path d="M194,10 L188,10 L188,8 L194,8 L194,10 Z M186,10 L188,10 L188,18 L186,18 L186,10 Z M194,10 L196,10 L196,18 L194,18 L194,10 Z M194,20 L188,20 L188,18 L194,18 L194,20 Z" id="形状"></path>
                    <path d="M206,10 L202,10 L202,8 L206,8 L206,10 Z M198,8 L200,8 L200,10 L202,10 L202,12 L200,12 L200,20 L198,20 L198,8 Z" id="形状"></path>
                    <path d="M220,2 L222,2 L222,18 L220,18 L220,2 Z M230,2 L232,2 L232,18 L230,18 L230,2 Z M230,18 L230,20 L222,20 L222,18 L230,18 Z" id="形状"></path>
                    <path d="M242,10 L244,10 L244,18 L242,18 L242,10 Z M242,10 L236,10 L236,18 L242,18 L242,20 L236,20 L236,24 L234,24 L234,8 L242,8 L242,10 Z" id="形状"></path>
                    <path d="M246,10 L248,10 L248,18 L246,18 L246,10 Z M254,10 L248,10 L248,8 L254,8 L254,2 L256,2 L256,20 L248,20 L248,18 L254,18 L254,10 Z" id="形状"></path>
                    <path d="M266,10 L260,10 L260,8 L266,8 L266,10 Z M258,14 L260,14 L260,18 L258,18 L258,14 Z M268,20 L260,20 L260,18 L266,18 L266,14 L260,14 L260,12 L266,12 L266,10 L268,10 L268,20 Z" id="形状"></path>
                    <path d="M272,10 L270,10 L270,8 L272,8 L272,2 L274,2 L274,8 L278,8 L278,10 L274,10 L274,18 L272,18 L272,10 Z M278,20 L274,20 L274,18 L278,18 L278,20 Z" id="形状"></path>
                    <path d="M288,10 L282,10 L282,8 L288,8 L288,10 Z M290,14 L282,14 L282,18 L280,18 L280,10 L282,10 L282,12 L288,12 L288,10 L290,10 L290,14 Z M288,16 L290,16 L290,18 L288,18 L288,16 Z M288,20 L282,20 L282,18 L288,18 L288,20 Z" id="形状"></path>
                    <path d="M294,0 L296,0 L296,2 L294,2 L294,0 Z M296,2 L298,2 L298,6 L296,6 L296,2 Z M298,6 L300,6 L300,16 L298,16 L298,6 Z M296,16 L298,16 L298,20 L296,20 L296,16 Z M294,20 L296,20 L296,22 L294,22 L294,20 Z" id="形状"></path>
                </g>
            </g>
        </g>
    </g>
</svg>