<?xml version="1.0" encoding="UTF-8"?>
<svg width="372px" height="40px" viewBox="0 0 372 40" version="1.1" xmlns="http://www.w3.org/2000/svg" xmlns:xlink="http://www.w3.org/1999/xlink">
    <title>doom</title>
    <g id="system-list" stroke="none" stroke-width="1" fill="none" fill-rule="evenodd">
        <g id="画板" transform="translate(0, -1368)">
            <g id="doom" transform="translate(0, 1368)">
                <rect id="矩形备份-6" x="0" y="0" width="372" height="40"></rect>
                <g id="Doom" transform="translate(24, 0)" fill="#FFFFFF" fill-rule="nonzero">
                    <path d="M8,2 L10,2 L10,4 L8,4 L8,2 Z M10,4 L12,4 L12,14 L10,14 L10,4 Z M8,14 L10,14 L10,16 L8,16 L8,14 Z M0,0 L8,0 L8,2 L2,2 L2,16 L8,16 L8,18 L0,18 L0,0 Z" id="形状"></path>
                    <path d="M22,8 L16,8 L16,6 L22,6 L22,8 Z M14,8 L16,8 L16,16 L14,16 L14,8 Z M22,8 L24,8 L24,16 L22,16 L22,8 Z M22,18 L16,18 L16,16 L22,16 L22,18 Z" id="形状"></path>
                    <path d="M34,8 L28,8 L28,6 L34,6 L34,8 Z M26,8 L28,8 L28,16 L26,16 L26,8 Z M34,8 L36,8 L36,16 L34,16 L34,8 Z M34,18 L28,18 L28,16 L34,16 L34,18 Z" id="形状"></path>
                    <path d="M46,6 L50,6 L50,8 L46,8 L46,6 Z M38,6 L44,6 L44,8 L40,8 L40,18 L38,18 L38,6 Z M44,8 L46,8 L46,18 L44,18 L44,8 Z M50,8 L52,8 L52,18 L50,18 L50,8 Z" id="形状"></path>
                </g>
            </g>
        </g>
    </g>
</svg>