<?xml version="1.0" encoding="UTF-8"?>
<svg width="372px" height="42px" viewBox="0 0 372 42" version="1.1" xmlns="http://www.w3.org/2000/svg" xmlns:xlink="http://www.w3.org/1999/xlink">
    <title>dos</title>
    <g id="system-list" stroke="none" stroke-width="1" fill="none" fill-rule="evenodd">
        <g id="画板" transform="translate(0, -1322)">
            <g id="dos" transform="translate(0, 1322)">
                <rect id="矩形备份-6" x="0" y="2" width="372" height="40"></rect>
                <g id="PC-(MS-DOS)" transform="translate(24, 0)" fill="#FFFFFF" fill-rule="nonzero">
                    <path d="M10,4 L12,4 L12,10 L10,10 L10,4 Z M0,2 L10,2 L10,4 L2,4 L2,10 L10,10 L10,12 L2,12 L2,20 L0,20 L0,2 Z" id="形状"></path>
                    <path d="M24,4 L18,4 L18,2 L24,2 L24,4 Z M16,4 L18,4 L18,6 L16,6 L16,4 Z M24,4 L26,4 L26,6 L24,6 L24,4 Z M14,6 L16,6 L16,16 L14,16 L14,6 Z M16,16 L18,16 L18,18 L16,18 L16,16 Z M24,16 L26,16 L26,18 L24,18 L24,16 Z M24,18 L24,20 L18,20 L18,18 L24,18 Z" id="形状"></path>
                    <path d="M46,0 L48,0 L48,2 L46,2 L46,0 Z M44,2 L46,2 L46,6 L44,6 L44,2 Z M42,6 L44,6 L44,16 L42,16 L42,6 Z M44,16 L46,16 L46,20 L44,20 L44,16 Z M46,20 L48,20 L48,22 L46,22 L46,20 Z" id="形状"></path>
                    <path d="M56,8 L58,8 L58,12 L56,12 L56,8 Z M64,8 L66,8 L66,12 L64,12 L64,8 Z M58,12 L60,12 L60,16 L58,16 L58,12 Z M62,12 L64,12 L64,16 L62,16 L62,12 Z M52,2 L54,2 L54,4 L56,4 L56,8 L54,8 L54,20 L52,20 L52,2 Z M60,16 L62,16 L62,20 L60,20 L60,16 Z M68,8 L66,8 L66,4 L68,4 L68,2 L70,2 L70,20 L68,20 L68,8 Z" id="形状"></path>
                    <path d="M82,4 L74,4 L74,2 L82,2 L82,4 Z M82,4 L84,4 L84,6 L82,6 L82,4 Z M72,4 L74,4 L74,8 L72,8 L72,4 Z M74,8 L76,8 L76,10 L74,10 L74,8 Z M76,10 L80,10 L80,12 L76,12 L76,10 Z M80,12 L82,12 L82,14 L80,14 L80,12 Z M72,16 L74,16 L74,18 L72,18 L72,16 Z M82,14 L84,14 L84,18 L82,18 L82,14 Z M82,18 L82,20 L74,20 L74,18 L82,18 Z" id="形状"></path>
                    <polygon id="路径" points="96 10 96 12 86 12 86 10"></polygon>
                    <path d="M106,4 L108,4 L108,6 L106,6 L106,4 Z M108,6 L110,6 L110,16 L108,16 L108,6 Z M106,16 L108,16 L108,18 L106,18 L106,16 Z M98,2 L106,2 L106,4 L100,4 L100,18 L106,18 L106,20 L98,20 L98,2 Z" id="形状"></path>
                    <path d="M122,4 L116,4 L116,2 L122,2 L122,4 Z M114,4 L116,4 L116,6 L114,6 L114,4 Z M122,4 L124,4 L124,6 L122,6 L122,4 Z M112,6 L114,6 L114,16 L112,16 L112,6 Z M124,6 L126,6 L126,16 L124,16 L124,6 Z M114,16 L116,16 L116,18 L114,18 L114,16 Z M122,16 L124,16 L124,18 L122,18 L122,16 Z M122,18 L122,20 L116,20 L116,18 L122,18 Z" id="形状"></path>
                    <path d="M138,4 L130,4 L130,2 L138,2 L138,4 Z M138,4 L140,4 L140,6 L138,6 L138,4 Z M128,4 L130,4 L130,8 L128,8 L128,4 Z M130,8 L132,8 L132,10 L130,10 L130,8 Z M132,10 L136,10 L136,12 L132,12 L132,10 Z M136,12 L138,12 L138,14 L136,14 L136,12 Z M128,16 L130,16 L130,18 L128,18 L128,16 Z M138,14 L140,14 L140,18 L138,18 L138,14 Z M138,18 L138,20 L130,20 L130,18 L138,18 Z" id="形状"></path>
                    <path d="M144,0 L146,0 L146,2 L144,2 L144,0 Z M146,2 L148,2 L148,6 L146,6 L146,2 Z M148,6 L150,6 L150,16 L148,16 L148,6 Z M146,16 L148,16 L148,20 L146,20 L146,16 Z M144,20 L146,20 L146,22 L144,22 L144,20 Z" id="形状"></path>
                </g>
            </g>
        </g>
    </g>
</svg>