<?xml version="1.0" encoding="UTF-8"?>
<svg width="372px" height="42px" viewBox="0 0 372 42" version="1.1" xmlns="http://www.w3.org/2000/svg" xmlns:xlink="http://www.w3.org/1999/xlink">
    <title>enterprise</title>
    <g id="system-list" stroke="none" stroke-width="1" fill="none" fill-rule="evenodd">
        <g id="画板" transform="translate(0, -1146)">
            <g id="enterprise" transform="translate(0, 1146)">
                <rect id="矩形备份-6" x="0" y="2" width="372" height="40"></rect>
                <g id="Enterprise-64/128" transform="translate(24, 0)" fill="#FFFFFF" fill-rule="nonzero">
                    <polygon id="路径" points="0 2 12 2 12 4 2 4 2 10 10 10 10 12 2 12 2 18 12 18 12 20 0 20"></polygon>
                    <path d="M22,10 L18,10 L18,8 L22,8 L22,10 Z M14,8 L16,8 L16,10 L18,10 L18,12 L16,12 L16,20 L14,20 L14,8 Z M22,10 L24,10 L24,20 L22,20 L22,10 Z" id="形状"></path>
                    <path d="M28,10 L26,10 L26,8 L28,8 L28,2 L30,2 L30,8 L34,8 L34,10 L30,10 L30,18 L28,18 L28,10 Z M34,20 L30,20 L30,18 L34,18 L34,20 Z" id="形状"></path>
                    <path d="M44,10 L38,10 L38,8 L44,8 L44,10 Z M46,14 L38,14 L38,18 L36,18 L36,10 L38,10 L38,12 L44,12 L44,10 L46,10 L46,14 Z M44,16 L46,16 L46,18 L44,18 L44,16 Z M44,20 L38,20 L38,18 L44,18 L44,20 Z" id="形状"></path>
                    <path d="M56,10 L52,10 L52,8 L56,8 L56,10 Z M48,8 L50,8 L50,10 L52,10 L52,12 L50,12 L50,20 L48,20 L48,8 Z" id="形状"></path>
                    <path d="M66,10 L68,10 L68,18 L66,18 L66,10 Z M66,10 L60,10 L60,18 L66,18 L66,20 L60,20 L60,24 L58,24 L58,8 L66,8 L66,10 Z" id="形状"></path>
                    <path d="M78,10 L74,10 L74,8 L78,8 L78,10 Z M70,8 L72,8 L72,10 L74,10 L74,12 L72,12 L72,20 L70,20 L70,8 Z" id="形状"></path>
                    <path d="M82,2 L84,2 L84,4 L82,4 L82,2 Z M82,10 L80,10 L80,8 L84,8 L84,18 L86,18 L86,20 L80,20 L80,18 L82,18 L82,10 Z" id="形状"></path>
                    <path d="M96,10 L90,10 L90,8 L96,8 L96,10 Z M88,10 L90,10 L90,12 L88,12 L88,10 Z M96,10 L98,10 L98,12 L96,12 L96,10 Z M94,14 L90,14 L90,12 L94,12 L94,14 Z M94,14 L96,14 L96,16 L94,16 L94,14 Z M88,16 L90,16 L90,18 L88,18 L88,16 Z M96,16 L98,16 L98,18 L96,18 L96,16 Z M96,20 L90,20 L90,18 L96,18 L96,20 Z" id="形状"></path>
                    <path d="M108,10 L102,10 L102,8 L108,8 L108,10 Z M110,14 L102,14 L102,18 L100,18 L100,10 L102,10 L102,12 L108,12 L108,10 L110,10 L110,14 Z M108,16 L110,16 L110,18 L108,18 L108,16 Z M108,20 L102,20 L102,18 L108,18 L108,20 Z" id="形状"></path>
                    <path d="M132,2 L132,4 L126,4 L126,2 L132,2 Z M132,4 L134,4 L134,6 L132,6 L132,4 Z M124,4 L126,4 L126,10 L132,10 L132,12 L126,12 L126,18 L124,18 L124,4 Z M132,12 L134,12 L134,18 L132,18 L132,12 Z M132,20 L126,20 L126,18 L132,18 L132,20 Z" id="形状"></path>
                    <path d="M138,4 L140,4 L140,10 L138,10 L138,4 Z M136,10 L138,10 L138,14 L142,14 L142,4 L140,4 L140,2 L144,2 L144,14 L146,14 L146,16 L144,16 L144,20 L142,20 L142,16 L136,16 L136,10 Z" id="形状"></path>
                    <path d="M156,0 L158,0 L158,4 L156,4 L156,0 Z M154,4 L156,4 L156,8 L154,8 L154,4 Z M152,8 L154,8 L154,14 L152,14 L152,8 Z M150,14 L152,14 L152,18 L150,18 L150,14 Z M148,18 L150,18 L150,22 L148,22 L148,18 Z" id="形状"></path>
                    <path d="M160,6 L162,6 L162,8 L160,8 L160,6 Z M170,20 L160,20 L160,18 L164,18 L164,6 L162,6 L162,4 L164,4 L164,2 L166,2 L166,18 L170,18 L170,20 Z" id="形状"></path>
                    <path d="M180,2 L180,4 L174,4 L174,2 L180,2 Z M172,4 L174,4 L174,6 L172,6 L172,4 Z M180,4 L182,4 L182,10 L180,10 L180,4 Z M178,10 L180,10 L180,12 L178,12 L178,10 Z M176,12 L178,12 L178,14 L176,14 L176,12 Z M174,14 L176,14 L176,16 L174,16 L174,14 Z M172,16 L174,16 L174,18 L182,18 L182,20 L172,20 L172,16 Z" id="形状"></path>
                    <path d="M192,2 L192,4 L186,4 L186,2 L192,2 Z M184,4 L186,4 L186,10 L184,10 L184,4 Z M192,4 L194,4 L194,10 L192,10 L192,4 Z M192,10 L192,12 L186,12 L186,10 L192,10 Z M184,12 L186,12 L186,18 L184,18 L184,12 Z M192,12 L194,12 L194,18 L192,18 L192,12 Z M192,20 L186,20 L186,18 L192,18 L192,20 Z" id="形状"></path>
                </g>
            </g>
        </g>
    </g>
</svg>