<?xml version="1.0" encoding="UTF-8"?>
<svg width="372px" height="40px" viewBox="0 0 372 40" version="1.1" xmlns="http://www.w3.org/2000/svg" xmlns:xlink="http://www.w3.org/1999/xlink">
    <title>fds</title>
    <g id="system-list" stroke="none" stroke-width="1" fill="none" fill-rule="evenodd">
        <g id="画板" transform="translate(0, -1192)">
            <g id="fds" transform="translate(0, 1192)">
                <rect id="矩形备份-6" x="0" y="0" width="372" height="40"></rect>
                <g id="Famicom-Disk-System" transform="translate(24, 0)" fill="#FFFFFF" fill-rule="nonzero">
                    <polygon id="路径" points="0 0 12 0 12 2 2 2 2 8 10 8 10 10 2 10 2 18 0 18"></polygon>
                    <path d="M22,8 L16,8 L16,6 L22,6 L22,8 Z M14,12 L16,12 L16,16 L14,16 L14,12 Z M24,18 L16,18 L16,16 L22,16 L22,12 L16,12 L16,10 L22,10 L22,8 L24,8 L24,18 Z" id="形状"></path>
                    <path d="M34,6 L38,6 L38,8 L34,8 L34,6 Z M26,6 L32,6 L32,8 L28,8 L28,18 L26,18 L26,6 Z M32,8 L34,8 L34,18 L32,18 L32,8 Z M38,8 L40,8 L40,18 L38,18 L38,8 Z" id="形状"></path>
                    <path d="M44,0 L46,0 L46,2 L44,2 L44,0 Z M44,8 L42,8 L42,6 L46,6 L46,16 L48,16 L48,18 L42,18 L42,16 L44,16 L44,8 Z" id="形状"></path>
                    <path d="M58,8 L52,8 L52,6 L58,6 L58,8 Z M58,8 L60,8 L60,10 L58,10 L58,8 Z M50,8 L52,8 L52,16 L50,16 L50,8 Z M58,14 L60,14 L60,16 L58,16 L58,14 Z M58,18 L52,18 L52,16 L58,16 L58,18 Z" id="形状"></path>
                    <path d="M70,8 L64,8 L64,6 L70,6 L70,8 Z M62,8 L64,8 L64,16 L62,16 L62,8 Z M70,8 L72,8 L72,16 L70,16 L70,8 Z M70,18 L64,18 L64,16 L70,16 L70,18 Z" id="形状"></path>
                    <path d="M82,6 L86,6 L86,8 L82,8 L82,6 Z M74,6 L80,6 L80,8 L76,8 L76,18 L74,18 L74,6 Z M80,8 L82,8 L82,18 L80,18 L80,8 Z M86,8 L88,8 L88,18 L86,18 L86,8 Z" id="形状"></path>
                    <path d="M110,2 L112,2 L112,4 L110,4 L110,2 Z M112,4 L114,4 L114,14 L112,14 L112,4 Z M110,14 L112,14 L112,16 L110,16 L110,14 Z M102,0 L110,0 L110,2 L104,2 L104,16 L110,16 L110,18 L102,18 L102,0 Z" id="形状"></path>
                    <path d="M118,0 L120,0 L120,2 L118,2 L118,0 Z M118,8 L116,8 L116,6 L120,6 L120,16 L122,16 L122,18 L116,18 L116,16 L118,16 L118,8 Z" id="形状"></path>
                    <path d="M132,8 L126,8 L126,6 L132,6 L132,8 Z M124,8 L126,8 L126,10 L124,10 L124,8 Z M132,8 L134,8 L134,10 L132,10 L132,8 Z M130,12 L126,12 L126,10 L130,10 L130,12 Z M130,12 L132,12 L132,14 L130,14 L130,12 Z M124,14 L126,14 L126,16 L124,16 L124,14 Z M132,14 L134,14 L134,16 L132,16 L132,14 Z M132,18 L126,18 L126,16 L132,16 L132,18 Z" id="形状"></path>
                    <path d="M144,6 L146,6 L146,8 L144,8 L144,6 Z M140,8 L144,8 L144,10 L140,10 L140,8 Z M140,12 L142,12 L142,14 L140,14 L140,12 Z M142,14 L144,14 L144,16 L142,16 L142,14 Z M136,0 L138,0 L138,10 L140,10 L140,12 L138,12 L138,18 L136,18 L136,0 Z M144,16 L146,16 L146,18 L144,18 L144,16 Z" id="形状"></path>
                    <path d="M170,2 L162,2 L162,0 L170,0 L170,2 Z M170,2 L172,2 L172,4 L170,4 L170,2 Z M160,2 L162,2 L162,6 L160,6 L160,2 Z M162,6 L164,6 L164,8 L162,8 L162,6 Z M164,8 L168,8 L168,10 L164,10 L164,8 Z M168,10 L170,10 L170,12 L168,12 L168,10 Z M160,14 L162,14 L162,16 L160,16 L160,14 Z M170,12 L172,12 L172,16 L170,16 L170,12 Z M170,16 L170,18 L162,18 L162,16 L170,16 Z" id="形状"></path>
                    <path d="M174,6 L176,6 L176,12 L174,12 L174,6 Z M182,6 L184,6 L184,12 L182,12 L182,6 Z M176,12 L178,12 L178,16 L176,16 L176,12 Z M180,12 L182,12 L182,16 L180,16 L180,12 Z M178,16 L180,16 L180,20 L178,20 L178,16 Z M174,20 L178,20 L178,22 L174,22 L174,20 Z" id="形状"></path>
                    <path d="M194,8 L188,8 L188,6 L194,6 L194,8 Z M186,8 L188,8 L188,10 L186,10 L186,8 Z M194,8 L196,8 L196,10 L194,10 L194,8 Z M192,12 L188,12 L188,10 L192,10 L192,12 Z M192,12 L194,12 L194,14 L192,14 L192,12 Z M186,14 L188,14 L188,16 L186,16 L186,14 Z M194,14 L196,14 L196,16 L194,16 L194,14 Z M194,18 L188,18 L188,16 L194,16 L194,18 Z" id="形状"></path>
                    <path d="M200,8 L198,8 L198,6 L200,6 L200,0 L202,0 L202,6 L206,6 L206,8 L202,8 L202,16 L200,16 L200,8 Z M206,18 L202,18 L202,16 L206,16 L206,18 Z" id="形状"></path>
                    <path d="M216,8 L210,8 L210,6 L216,6 L216,8 Z M218,12 L210,12 L210,16 L208,16 L208,8 L210,8 L210,10 L216,10 L216,8 L218,8 L218,12 Z M216,14 L218,14 L218,16 L216,16 L216,14 Z M216,18 L210,18 L210,16 L216,16 L216,18 Z" id="形状"></path>
                    <path d="M228,6 L232,6 L232,8 L228,8 L228,6 Z M220,6 L226,6 L226,8 L222,8 L222,18 L220,18 L220,6 Z M226,8 L228,8 L228,18 L226,18 L226,8 Z M232,8 L234,8 L234,18 L232,18 L232,8 Z" id="形状"></path>
                </g>
            </g>
        </g>
    </g>
</svg>