<?xml version="1.0" encoding="UTF-8"?>
<svg width="372px" height="40px" viewBox="0 0 372 40" version="1.1" xmlns="http://www.w3.org/2000/svg" xmlns:xlink="http://www.w3.org/1999/xlink">
    <title>gb</title>
    <g id="页面-1" stroke="none" stroke-width="1" fill="none" fill-rule="evenodd">
        <g id="home_fusion_prop_logo备份" transform="translate(-96, -68)">
            <g id="BAR" transform="translate(96, 28)">
                <g id="gb" transform="translate(0, 40)">
                    <rect id="space" x="0" y="0" width="372" height="40"></rect>
                    <g id="GAME-BOY" transform="translate(24, 0)" fill="#FFFFFF" fill-rule="nonzero">
                        <path d="M10,2 L4,2 L4,0 L10,0 L10,2 Z M2,2 L4,2 L4,4 L2,4 L2,2 Z M10,2 L12,2 L12,4 L10,4 L10,2 Z M0,4 L2,4 L2,14 L0,14 L0,4 Z M2,14 L4,14 L4,16 L2,16 L2,14 Z M8,10 L12,10 L12,18 L4,18 L4,16 L10,16 L10,12 L8,12 L8,10 Z" id="形状"></path>
                        <path d="M20,0 L22,0 L22,4 L20,4 L20,0 Z M18,4 L20,4 L20,8 L18,8 L18,4 Z M22,4 L24,4 L24,8 L22,8 L22,4 Z M24,10 L24,8 L26,8 L26,14 L24,14 L24,12 L18,12 L18,14 L16,14 L16,8 L18,8 L18,10 L24,10 Z M14,14 L16,14 L16,18 L14,18 L14,14 Z M26,14 L28,14 L28,18 L26,18 L26,14 Z" id="形状"></path>
                        <path d="M34,6 L36,6 L36,10 L34,10 L34,6 Z M42,6 L44,6 L44,10 L42,10 L42,6 Z M36,10 L38,10 L38,14 L36,14 L36,10 Z M40,10 L42,10 L42,14 L40,14 L40,10 Z M30,0 L32,0 L32,2 L34,2 L34,6 L32,6 L32,18 L30,18 L30,0 Z M38,14 L40,14 L40,18 L38,18 L38,14 Z M46,6 L44,6 L44,2 L46,2 L46,0 L48,0 L48,18 L46,18 L46,6 Z" id="形状"></path>
                        <polygon id="路径" points="50 0 62 0 62 2 52 2 52 8 60 8 60 10 52 10 52 16 62 16 62 18 50 18"></polygon>
                        <path d="M86,2 L88,2 L88,8 L86,8 L86,2 Z M86,10 L88,10 L88,16 L86,16 L86,10 Z M76,0 L86,0 L86,2 L78,2 L78,8 L86,8 L86,10 L78,10 L78,16 L86,16 L86,18 L76,18 L76,0 Z" id="形状"></path>
                        <path d="M100,2 L94,2 L94,0 L100,0 L100,2 Z M92,2 L94,2 L94,4 L92,4 L92,2 Z M100,2 L102,2 L102,4 L100,4 L100,2 Z M90,4 L92,4 L92,14 L90,14 L90,4 Z M102,4 L104,4 L104,14 L102,14 L102,4 Z M92,14 L94,14 L94,16 L92,16 L92,14 Z M100,14 L102,14 L102,16 L100,16 L100,14 Z M100,16 L100,18 L94,18 L94,16 L100,16 Z" id="形状"></path>
                        <path d="M106,0 L108,0 L108,2 L106,2 L106,0 Z M118,0 L120,0 L120,2 L118,2 L118,0 Z M108,2 L110,2 L110,6 L108,6 L108,2 Z M116,2 L118,2 L118,6 L116,6 L116,2 Z M110,6 L112,6 L112,10 L110,10 L110,6 Z M114,6 L116,6 L116,10 L114,10 L114,6 Z M112,10 L114,10 L114,18 L112,18 L112,10 Z" id="形状"></path>
                    </g>
                </g>
            </g>
        </g>
    </g>
</svg>