<?xml version="1.0" encoding="UTF-8"?>
<svg width="372px" height="40px" viewBox="0 0 372 40" version="1.1" xmlns="http://www.w3.org/2000/svg" xmlns:xlink="http://www.w3.org/1999/xlink">
    <title>gba</title>
    <g id="页面-1" stroke="none" stroke-width="1" fill="none" fill-rule="evenodd">
        <g id="home_fusion_prop_logo备份" transform="translate(-96, -148)">
            <g id="BAR" transform="translate(96, 28)">
                <g id="gba" transform="translate(0, 120)">
                    <rect id="space" x="0" y="0" width="372" height="40"></rect>
                    <g id="GAME-BOY-ADVANCE" transform="translate(24, 0)" fill="#FFFFFF" fill-rule="nonzero">
                        <path d="M10,2 L4,2 L4,0 L10,0 L10,2 Z M2,2 L4,2 L4,4 L2,4 L2,2 Z M10,2 L12,2 L12,4 L10,4 L10,2 Z M0,4 L2,4 L2,14 L0,14 L0,4 Z M2,14 L4,14 L4,16 L2,16 L2,14 Z M8,10 L12,10 L12,18 L4,18 L4,16 L10,16 L10,12 L8,12 L8,10 Z" id="形状"></path>
                        <path d="M20,0 L22,0 L22,4 L20,4 L20,0 Z M18,4 L20,4 L20,8 L18,8 L18,4 Z M22,4 L24,4 L24,8 L22,8 L22,4 Z M24,10 L24,8 L26,8 L26,14 L24,14 L24,12 L18,12 L18,14 L16,14 L16,8 L18,8 L18,10 L24,10 Z M14,14 L16,14 L16,18 L14,18 L14,14 Z M26,14 L28,14 L28,18 L26,18 L26,14 Z" id="形状"></path>
                        <path d="M34,6 L36,6 L36,10 L34,10 L34,6 Z M42,6 L44,6 L44,10 L42,10 L42,6 Z M36,10 L38,10 L38,14 L36,14 L36,10 Z M40,10 L42,10 L42,14 L40,14 L40,10 Z M30,0 L32,0 L32,2 L34,2 L34,6 L32,6 L32,18 L30,18 L30,0 Z M38,14 L40,14 L40,18 L38,18 L38,14 Z M46,6 L44,6 L44,2 L46,2 L46,0 L48,0 L48,18 L46,18 L46,6 Z" id="形状"></path>
                        <polygon id="路径" points="50 0 62 0 62 2 52 2 52 8 60 8 60 10 52 10 52 16 62 16 62 18 50 18"></polygon>
                        <path d="M86,2 L88,2 L88,8 L86,8 L86,2 Z M86,10 L88,10 L88,16 L86,16 L86,10 Z M76,0 L86,0 L86,2 L78,2 L78,8 L86,8 L86,10 L78,10 L78,16 L86,16 L86,18 L76,18 L76,0 Z" id="形状"></path>
                        <path d="M100,2 L94,2 L94,0 L100,0 L100,2 Z M92,2 L94,2 L94,4 L92,4 L92,2 Z M100,2 L102,2 L102,4 L100,4 L100,2 Z M90,4 L92,4 L92,14 L90,14 L90,4 Z M102,4 L104,4 L104,14 L102,14 L102,4 Z M92,14 L94,14 L94,16 L92,16 L92,14 Z M100,14 L102,14 L102,16 L100,16 L100,14 Z M100,16 L100,18 L94,18 L94,16 L100,16 Z" id="形状"></path>
                        <path d="M106,0 L108,0 L108,2 L106,2 L106,0 Z M118,0 L120,0 L120,2 L118,2 L118,0 Z M108,2 L110,2 L110,6 L108,6 L108,2 Z M116,2 L118,2 L118,6 L116,6 L116,2 Z M110,6 L112,6 L112,10 L110,10 L110,6 Z M114,6 L116,6 L116,10 L114,10 L114,6 Z M112,10 L114,10 L114,18 L112,18 L112,10 Z" id="形状"></path>
                        <path d="M140,0 L142,0 L142,4 L140,4 L140,0 Z M138,4 L140,4 L140,8 L138,8 L138,4 Z M142,4 L144,4 L144,8 L142,8 L142,4 Z M144,10 L144,8 L146,8 L146,14 L144,14 L144,12 L138,12 L138,14 L136,14 L136,8 L138,8 L138,10 L144,10 Z M134,14 L136,14 L136,18 L134,18 L134,14 Z M146,14 L148,14 L148,18 L146,18 L146,14 Z" id="形状"></path>
                        <path d="M158,2 L160,2 L160,4 L158,4 L158,2 Z M160,4 L162,4 L162,14 L160,14 L160,4 Z M158,14 L160,14 L160,16 L158,16 L158,14 Z M150,0 L158,0 L158,2 L152,2 L152,16 L158,16 L158,18 L150,18 L150,0 Z" id="形状"></path>
                        <path d="M164,0 L166,0 L166,4 L164,4 L164,0 Z M176,0 L178,0 L178,4 L176,4 L176,0 Z M166,4 L168,4 L168,10 L166,10 L166,4 Z M174,4 L176,4 L176,10 L174,10 L174,4 Z M168,10 L170,10 L170,14 L168,14 L168,10 Z M172,10 L174,10 L174,14 L172,14 L172,10 Z M170,14 L172,14 L172,18 L170,18 L170,14 Z" id="形状"></path>
                        <path d="M186,0 L188,0 L188,4 L186,4 L186,0 Z M184,4 L186,4 L186,8 L184,8 L184,4 Z M188,4 L190,4 L190,8 L188,8 L188,4 Z M190,10 L190,8 L192,8 L192,14 L190,14 L190,12 L184,12 L184,14 L182,14 L182,8 L184,8 L184,10 L190,10 Z M180,14 L182,14 L182,18 L180,18 L180,14 Z M192,14 L194,14 L194,18 L192,18 L192,14 Z" id="形状"></path>
                        <path d="M200,4 L202,4 L202,8 L200,8 L200,4 Z M202,8 L204,8 L204,12 L202,12 L202,8 Z M196,0 L198,0 L198,2 L200,2 L200,4 L198,4 L198,18 L196,18 L196,0 Z M206,0 L208,0 L208,18 L206,18 L206,16 L204,16 L204,12 L206,12 L206,0 Z" id="形状"></path>
                        <path d="M220,2 L214,2 L214,0 L220,0 L220,2 Z M212,2 L214,2 L214,4 L212,4 L212,2 Z M220,2 L222,2 L222,4 L220,4 L220,2 Z M210,4 L212,4 L212,14 L210,14 L210,4 Z M212,14 L214,14 L214,16 L212,16 L212,14 Z M220,14 L222,14 L222,16 L220,16 L220,14 Z M220,16 L220,18 L214,18 L214,16 L220,16 Z" id="形状"></path>
                        <polygon id="路径" points="224 0 236 0 236 2 226 2 226 8 234 8 234 10 226 10 226 16 236 16 236 18 224 18"></polygon>
                    </g>
                </g>
            </g>
        </g>
    </g>
</svg>