<?xml version="1.0" encoding="UTF-8"?>
<svg width="372px" height="40px" viewBox="0 0 372 40" version="1.1" xmlns="http://www.w3.org/2000/svg" xmlns:xlink="http://www.w3.org/1999/xlink">
    <title>gba</title>
    <g id="system-list" stroke="none" stroke-width="1" fill="none" fill-rule="evenodd">
        <g id="画板" transform="translate(0, -3084)">
            <g id="gba" transform="translate(0, 3084)">
                <rect id="矩形备份-6" x="0" y="0" width="372" height="40"></rect>
                <g id="Game-Boy-Advance" transform="translate(24, 0)" fill="#FFFFFF" fill-rule="nonzero">
                    <path d="M10,2 L4,2 L4,0 L10,0 L10,2 Z M2,2 L4,2 L4,4 L2,4 L2,2 Z M10,2 L12,2 L12,4 L10,4 L10,2 Z M0,4 L2,4 L2,14 L0,14 L0,4 Z M2,14 L4,14 L4,16 L2,16 L2,14 Z M8,10 L12,10 L12,18 L4,18 L4,16 L10,16 L10,12 L8,12 L8,10 Z" id="形状"></path>
                    <path d="M22,8 L16,8 L16,6 L22,6 L22,8 Z M14,12 L16,12 L16,16 L14,16 L14,12 Z M24,18 L16,18 L16,16 L22,16 L22,12 L16,12 L16,10 L22,10 L22,8 L24,8 L24,18 Z" id="形状"></path>
                    <path d="M34,6 L38,6 L38,8 L34,8 L34,6 Z M26,6 L32,6 L32,8 L28,8 L28,18 L26,18 L26,6 Z M32,8 L34,8 L34,18 L32,18 L32,8 Z M38,8 L40,8 L40,18 L38,18 L38,8 Z" id="形状"></path>
                    <path d="M50,8 L44,8 L44,6 L50,6 L50,8 Z M52,12 L44,12 L44,16 L42,16 L42,8 L44,8 L44,10 L50,10 L50,8 L52,8 L52,12 Z M50,14 L52,14 L52,16 L50,16 L50,14 Z M50,18 L44,18 L44,16 L50,16 L50,18 Z" id="形状"></path>
                    <path d="M76,2 L78,2 L78,8 L76,8 L76,2 Z M76,10 L78,10 L78,16 L76,16 L76,10 Z M66,0 L76,0 L76,2 L68,2 L68,8 L76,8 L76,10 L68,10 L68,16 L76,16 L76,18 L66,18 L66,0 Z" id="形状"></path>
                    <path d="M88,8 L82,8 L82,6 L88,6 L88,8 Z M80,8 L82,8 L82,16 L80,16 L80,8 Z M88,8 L90,8 L90,16 L88,16 L88,8 Z M88,18 L82,18 L82,16 L88,16 L88,18 Z" id="形状"></path>
                    <path d="M92,6 L94,6 L94,12 L92,12 L92,6 Z M100,6 L102,6 L102,12 L100,12 L100,6 Z M94,12 L96,12 L96,16 L94,16 L94,12 Z M98,12 L100,12 L100,16 L98,16 L98,12 Z M96,16 L98,16 L98,20 L96,20 L96,16 Z M92,20 L96,20 L96,22 L92,22 L92,20 Z" id="形状"></path>
                    <path d="M122,0 L124,0 L124,4 L122,4 L122,0 Z M120,4 L122,4 L122,8 L120,8 L120,4 Z M124,4 L126,4 L126,8 L124,8 L124,4 Z M126,10 L126,8 L128,8 L128,14 L126,14 L126,12 L120,12 L120,14 L118,14 L118,8 L120,8 L120,10 L126,10 Z M116,14 L118,14 L118,18 L116,18 L116,14 Z M128,14 L130,14 L130,18 L128,18 L128,14 Z" id="形状"></path>
                    <path d="M132,8 L134,8 L134,16 L132,16 L132,8 Z M140,8 L134,8 L134,6 L140,6 L140,0 L142,0 L142,18 L134,18 L134,16 L140,16 L140,8 Z" id="形状"></path>
                    <path d="M144,6 L146,6 L146,10 L144,10 L144,6 Z M152,6 L154,6 L154,10 L152,10 L152,6 Z M146,10 L148,10 L148,14 L146,14 L146,10 Z M150,10 L152,10 L152,14 L150,14 L150,10 Z M148,14 L150,14 L150,18 L148,18 L148,14 Z" id="形状"></path>
                    <path d="M164,8 L158,8 L158,6 L164,6 L164,8 Z M156,12 L158,12 L158,16 L156,16 L156,12 Z M166,18 L158,18 L158,16 L164,16 L164,12 L158,12 L158,10 L164,10 L164,8 L166,8 L166,18 Z" id="形状"></path>
                    <path d="M176,8 L172,8 L172,6 L176,6 L176,8 Z M168,6 L170,6 L170,8 L172,8 L172,10 L170,10 L170,18 L168,18 L168,6 Z M176,8 L178,8 L178,18 L176,18 L176,8 Z" id="形状"></path>
                    <path d="M188,8 L182,8 L182,6 L188,6 L188,8 Z M188,8 L190,8 L190,10 L188,10 L188,8 Z M180,8 L182,8 L182,16 L180,16 L180,8 Z M188,14 L190,14 L190,16 L188,16 L188,14 Z M188,18 L182,18 L182,16 L188,16 L188,18 Z" id="形状"></path>
                    <path d="M200,8 L194,8 L194,6 L200,6 L200,8 Z M202,12 L194,12 L194,16 L192,16 L192,8 L194,8 L194,10 L200,10 L200,8 L202,8 L202,12 Z M200,14 L202,14 L202,16 L200,16 L200,14 Z M200,18 L194,18 L194,16 L200,16 L200,18 Z" id="形状"></path>
                </g>
            </g>
        </g>
    </g>
</svg>