<?xml version="1.0" encoding="UTF-8"?>
<svg width="372px" height="40px" viewBox="0 0 372 40" version="1.1" xmlns="http://www.w3.org/2000/svg" xmlns:xlink="http://www.w3.org/1999/xlink">
    <title>gbc</title>
    <g id="system-list" stroke="none" stroke-width="1" fill="none" fill-rule="evenodd">
        <g id="画板" transform="translate(0, -3040)">
            <g id="gbc" transform="translate(0, 3040)">
                <rect id="矩形备份-6" x="0" y="0" width="372" height="40"></rect>
                <g id="Game-Boy-Color" transform="translate(24, 0)" fill="#FFFFFF" fill-rule="nonzero">
                    <path d="M10,2 L4,2 L4,0 L10,0 L10,2 Z M2,2 L4,2 L4,4 L2,4 L2,2 Z M10,2 L12,2 L12,4 L10,4 L10,2 Z M0,4 L2,4 L2,14 L0,14 L0,4 Z M2,14 L4,14 L4,16 L2,16 L2,14 Z M8,10 L12,10 L12,18 L4,18 L4,16 L10,16 L10,12 L8,12 L8,10 Z" id="形状"></path>
                    <path d="M22,8 L16,8 L16,6 L22,6 L22,8 Z M14,12 L16,12 L16,16 L14,16 L14,12 Z M24,18 L16,18 L16,16 L22,16 L22,12 L16,12 L16,10 L22,10 L22,8 L24,8 L24,18 Z" id="形状"></path>
                    <path d="M34,6 L38,6 L38,8 L34,8 L34,6 Z M26,6 L32,6 L32,8 L28,8 L28,18 L26,18 L26,6 Z M32,8 L34,8 L34,18 L32,18 L32,8 Z M38,8 L40,8 L40,18 L38,18 L38,8 Z" id="形状"></path>
                    <path d="M50,8 L44,8 L44,6 L50,6 L50,8 Z M52,12 L44,12 L44,16 L42,16 L42,8 L44,8 L44,10 L50,10 L50,8 L52,8 L52,12 Z M50,14 L52,14 L52,16 L50,16 L50,14 Z M50,18 L44,18 L44,16 L50,16 L50,18 Z" id="形状"></path>
                    <path d="M76,2 L78,2 L78,8 L76,8 L76,2 Z M76,10 L78,10 L78,16 L76,16 L76,10 Z M66,0 L76,0 L76,2 L68,2 L68,8 L76,8 L76,10 L68,10 L68,16 L76,16 L76,18 L66,18 L66,0 Z" id="形状"></path>
                    <path d="M88,8 L82,8 L82,6 L88,6 L88,8 Z M80,8 L82,8 L82,16 L80,16 L80,8 Z M88,8 L90,8 L90,16 L88,16 L88,8 Z M88,18 L82,18 L82,16 L88,16 L88,18 Z" id="形状"></path>
                    <path d="M92,6 L94,6 L94,12 L92,12 L92,6 Z M100,6 L102,6 L102,12 L100,12 L100,6 Z M94,12 L96,12 L96,16 L94,16 L94,12 Z M98,12 L100,12 L100,16 L98,16 L98,12 Z M96,16 L98,16 L98,20 L96,20 L96,16 Z M92,20 L96,20 L96,22 L92,22 L92,20 Z" id="形状"></path>
                    <path d="M126,2 L120,2 L120,0 L126,0 L126,2 Z M118,2 L120,2 L120,4 L118,4 L118,2 Z M126,2 L128,2 L128,4 L126,4 L126,2 Z M116,4 L118,4 L118,14 L116,14 L116,4 Z M118,14 L120,14 L120,16 L118,16 L118,14 Z M126,14 L128,14 L128,16 L126,16 L126,14 Z M126,16 L126,18 L120,18 L120,16 L126,16 Z" id="形状"></path>
                    <path d="M138,8 L132,8 L132,6 L138,6 L138,8 Z M130,8 L132,8 L132,16 L130,16 L130,8 Z M138,8 L140,8 L140,16 L138,16 L138,8 Z M138,18 L132,18 L132,16 L138,16 L138,18 Z" id="形状"></path>
                    <polygon id="路径" points="144 2 142 2 142 0 146 0 146 16 148 16 148 18 144 18"></polygon>
                    <path d="M158,8 L152,8 L152,6 L158,6 L158,8 Z M150,8 L152,8 L152,16 L150,16 L150,8 Z M158,8 L160,8 L160,16 L158,16 L158,8 Z M158,18 L152,18 L152,16 L158,16 L158,18 Z" id="形状"></path>
                    <path d="M170,8 L166,8 L166,6 L170,6 L170,8 Z M162,6 L164,6 L164,8 L166,8 L166,10 L164,10 L164,18 L162,18 L162,6 Z" id="形状"></path>
                </g>
            </g>
        </g>
    </g>
</svg>