<?xml version="1.0" encoding="UTF-8"?>
<svg width="372px" height="40px" viewBox="0 0 372 40" version="1.1" xmlns="http://www.w3.org/2000/svg" xmlns:xlink="http://www.w3.org/1999/xlink">
    <title>gc</title>
    <g id="system-list" stroke="none" stroke-width="1" fill="none" fill-rule="evenodd">
        <g id="画板" transform="translate(0, -2996)">
            <g id="gc" transform="translate(0, 2996)">
                <rect id="矩形备份-6" x="0" y="0" width="372" height="40"></rect>
                <g id="Gamecube" transform="translate(24, 0)" fill="#FFFFFF" fill-rule="nonzero">
                    <path d="M10,2 L4,2 L4,0 L10,0 L10,2 Z M2,2 L4,2 L4,4 L2,4 L2,2 Z M10,2 L12,2 L12,4 L10,4 L10,2 Z M0,4 L2,4 L2,14 L0,14 L0,4 Z M2,14 L4,14 L4,16 L2,16 L2,14 Z M8,10 L12,10 L12,18 L4,18 L4,16 L10,16 L10,12 L8,12 L8,10 Z" id="形状"></path>
                    <path d="M22,8 L16,8 L16,6 L22,6 L22,8 Z M14,12 L16,12 L16,16 L14,16 L14,12 Z M24,18 L16,18 L16,16 L22,16 L22,12 L16,12 L16,10 L22,10 L22,8 L24,8 L24,18 Z" id="形状"></path>
                    <path d="M34,6 L38,6 L38,8 L34,8 L34,6 Z M26,6 L32,6 L32,8 L28,8 L28,18 L26,18 L26,6 Z M32,8 L34,8 L34,18 L32,18 L32,8 Z M38,8 L40,8 L40,18 L38,18 L38,8 Z" id="形状"></path>
                    <path d="M50,8 L44,8 L44,6 L50,6 L50,8 Z M52,12 L44,12 L44,16 L42,16 L42,8 L44,8 L44,10 L50,10 L50,8 L52,8 L52,12 Z M50,14 L52,14 L52,16 L50,16 L50,14 Z M50,18 L44,18 L44,16 L50,16 L50,18 Z" id="形状"></path>
                    <path d="M62,8 L56,8 L56,6 L62,6 L62,8 Z M62,8 L64,8 L64,10 L62,10 L62,8 Z M54,8 L56,8 L56,16 L54,16 L54,8 Z M62,14 L64,14 L64,16 L62,16 L62,14 Z M62,18 L56,18 L56,16 L62,16 L62,18 Z" id="形状"></path>
                    <path d="M66,6 L68,6 L68,16 L66,16 L66,6 Z M68,16 L72,16 L72,18 L68,18 L68,16 Z M74,6 L76,6 L76,18 L74,18 L74,16 L72,16 L72,14 L74,14 L74,6 Z" id="形状"></path>
                    <path d="M86,8 L88,8 L88,16 L86,16 L86,8 Z M78,0 L80,0 L80,6 L86,6 L86,8 L80,8 L80,16 L86,16 L86,18 L78,18 L78,0 Z" id="形状"></path>
                    <path d="M98,8 L92,8 L92,6 L98,6 L98,8 Z M100,12 L92,12 L92,16 L90,16 L90,8 L92,8 L92,10 L98,10 L98,8 L100,8 L100,12 Z M98,14 L100,14 L100,16 L98,16 L98,14 Z M98,18 L92,18 L92,16 L98,16 L98,18 Z" id="形状"></path>
                </g>
            </g>
        </g>
    </g>
</svg>