<?xml version="1.0" encoding="UTF-8"?>
<svg width="372px" height="40px" viewBox="0 0 372 40" version="1.1" xmlns="http://www.w3.org/2000/svg" xmlns:xlink="http://www.w3.org/1999/xlink">
    <title>genesis</title>
    <g id="system-list" stroke="none" stroke-width="1" fill="none" fill-rule="evenodd">
        <g id="画板" transform="translate(0, -2952)">
            <g id="genesis" transform="translate(0, 2952)">
                <rect id="矩形备份-6" x="0" y="0" width="372" height="40"></rect>
                <g id="Sega-Genesis" transform="translate(24, 0)" fill="#FFFFFF" fill-rule="nonzero">
                    <path d="M10,2 L2,2 L2,0 L10,0 L10,2 Z M10,2 L12,2 L12,4 L10,4 L10,2 Z M0,2 L2,2 L2,6 L0,6 L0,2 Z M2,6 L4,6 L4,8 L2,8 L2,6 Z M4,8 L8,8 L8,10 L4,10 L4,8 Z M8,10 L10,10 L10,12 L8,12 L8,10 Z M0,14 L2,14 L2,16 L0,16 L0,14 Z M10,12 L12,12 L12,16 L10,16 L10,12 Z M10,16 L10,18 L2,18 L2,16 L10,16 Z" id="形状"></path>
                    <path d="M22,8 L16,8 L16,6 L22,6 L22,8 Z M24,12 L16,12 L16,16 L14,16 L14,8 L16,8 L16,10 L22,10 L22,8 L24,8 L24,12 Z M22,14 L24,14 L24,16 L22,16 L22,14 Z M22,18 L16,18 L16,16 L22,16 L22,18 Z" id="形状"></path>
                    <path d="M26,8 L28,8 L28,16 L26,16 L26,8 Z M34,8 L28,8 L28,6 L36,6 L36,20 L34,20 L34,18 L28,18 L28,16 L34,16 L34,8 Z M34,20 L34,22 L28,22 L28,20 L34,20 Z" id="形状"></path>
                    <path d="M46,8 L40,8 L40,6 L46,6 L46,8 Z M38,12 L40,12 L40,16 L38,16 L38,12 Z M48,18 L40,18 L40,16 L46,16 L46,12 L40,12 L40,10 L46,10 L46,8 L48,8 L48,18 Z" id="形状"></path>
                    <path d="M72,2 L66,2 L66,0 L72,0 L72,2 Z M64,2 L66,2 L66,4 L64,4 L64,2 Z M72,2 L74,2 L74,4 L72,4 L72,2 Z M62,4 L64,4 L64,14 L62,14 L62,4 Z M64,14 L66,14 L66,16 L64,16 L64,14 Z M70,10 L74,10 L74,18 L66,18 L66,16 L72,16 L72,12 L70,12 L70,10 Z" id="形状"></path>
                    <path d="M84,8 L78,8 L78,6 L84,6 L84,8 Z M86,12 L78,12 L78,16 L76,16 L76,8 L78,8 L78,10 L84,10 L84,8 L86,8 L86,12 Z M84,14 L86,14 L86,16 L84,16 L84,14 Z M84,18 L78,18 L78,16 L84,16 L84,18 Z" id="形状"></path>
                    <path d="M96,8 L92,8 L92,6 L96,6 L96,8 Z M88,6 L90,6 L90,8 L92,8 L92,10 L90,10 L90,18 L88,18 L88,6 Z M96,8 L98,8 L98,18 L96,18 L96,8 Z" id="形状"></path>
                    <path d="M108,8 L102,8 L102,6 L108,6 L108,8 Z M110,12 L102,12 L102,16 L100,16 L100,8 L102,8 L102,10 L108,10 L108,8 L110,8 L110,12 Z M108,14 L110,14 L110,16 L108,16 L108,14 Z M108,18 L102,18 L102,16 L108,16 L108,18 Z" id="形状"></path>
                    <path d="M120,8 L114,8 L114,6 L120,6 L120,8 Z M112,8 L114,8 L114,10 L112,10 L112,8 Z M120,8 L122,8 L122,10 L120,10 L120,8 Z M118,12 L114,12 L114,10 L118,10 L118,12 Z M118,12 L120,12 L120,14 L118,14 L118,12 Z M112,14 L114,14 L114,16 L112,16 L112,14 Z M120,14 L122,14 L122,16 L120,16 L120,14 Z M120,18 L114,18 L114,16 L120,16 L120,18 Z" id="形状"></path>
                    <path d="M126,0 L128,0 L128,2 L126,2 L126,0 Z M126,8 L124,8 L124,6 L128,6 L128,16 L130,16 L130,18 L124,18 L124,16 L126,16 L126,8 Z" id="形状"></path>
                    <path d="M140,8 L134,8 L134,6 L140,6 L140,8 Z M132,8 L134,8 L134,10 L132,10 L132,8 Z M140,8 L142,8 L142,10 L140,10 L140,8 Z M138,12 L134,12 L134,10 L138,10 L138,12 Z M138,12 L140,12 L140,14 L138,14 L138,12 Z M132,14 L134,14 L134,16 L132,16 L132,14 Z M140,14 L142,14 L142,16 L140,16 L140,14 Z M140,18 L134,18 L134,16 L140,16 L140,18 Z" id="形状"></path>
                </g>
            </g>
        </g>
    </g>
</svg>