<?xml version="1.0" encoding="UTF-8"?>
<svg width="372px" height="40px" viewBox="0 0 372 40" version="1.1" xmlns="http://www.w3.org/2000/svg" xmlns:xlink="http://www.w3.org/1999/xlink">
    <title>gx4000</title>
    <g id="system-list" stroke="none" stroke-width="1" fill="none" fill-rule="evenodd">
        <g id="画板" transform="translate(0, -2908)">
            <g id="gx4000" transform="translate(0, 2908)">
                <rect id="矩形备份-6" x="0" y="0" width="372" height="40"></rect>
                <g id="Amstrad-GX4000" transform="translate(24, 0)" fill="#FFFFFF" fill-rule="nonzero">
                    <path d="M6,0 L8,0 L8,4 L6,4 L6,0 Z M4,4 L6,4 L6,8 L4,8 L4,4 Z M8,4 L10,4 L10,8 L8,8 L8,4 Z M10,10 L10,8 L12,8 L12,14 L10,14 L10,12 L4,12 L4,14 L2,14 L2,8 L4,8 L4,10 L10,10 Z M0,14 L2,14 L2,18 L0,18 L0,14 Z M12,14 L14,14 L14,18 L12,18 L12,14 Z" id="形状"></path>
                    <path d="M24,6 L28,6 L28,8 L24,8 L24,6 Z M16,6 L22,6 L22,8 L18,8 L18,18 L16,18 L16,6 Z M22,8 L24,8 L24,18 L22,18 L22,8 Z M28,8 L30,8 L30,18 L28,18 L28,8 Z" id="形状"></path>
                    <path d="M40,8 L34,8 L34,6 L40,6 L40,8 Z M32,8 L34,8 L34,10 L32,10 L32,8 Z M40,8 L42,8 L42,10 L40,10 L40,8 Z M38,12 L34,12 L34,10 L38,10 L38,12 Z M38,12 L40,12 L40,14 L38,14 L38,12 Z M32,14 L34,14 L34,16 L32,16 L32,14 Z M40,14 L42,14 L42,16 L40,16 L40,14 Z M40,18 L34,18 L34,16 L40,16 L40,18 Z" id="形状"></path>
                    <path d="M46,8 L44,8 L44,6 L46,6 L46,0 L48,0 L48,6 L52,6 L52,8 L48,8 L48,16 L46,16 L46,8 Z M52,18 L48,18 L48,16 L52,16 L52,18 Z" id="形状"></path>
                    <path d="M62,8 L58,8 L58,6 L62,6 L62,8 Z M54,6 L56,6 L56,8 L58,8 L58,10 L56,10 L56,18 L54,18 L54,6 Z" id="形状"></path>
                    <path d="M72,8 L66,8 L66,6 L72,6 L72,8 Z M64,12 L66,12 L66,16 L64,16 L64,12 Z M74,18 L66,18 L66,16 L72,16 L72,12 L66,12 L66,10 L72,10 L72,8 L74,8 L74,18 Z" id="形状"></path>
                    <path d="M76,8 L78,8 L78,16 L76,16 L76,8 Z M84,8 L78,8 L78,6 L84,6 L84,0 L86,0 L86,18 L78,18 L78,16 L84,16 L84,8 Z" id="形状"></path>
                    <path d="M110,2 L104,2 L104,0 L110,0 L110,2 Z M102,2 L104,2 L104,4 L102,4 L102,2 Z M110,2 L112,2 L112,4 L110,4 L110,2 Z M100,4 L102,4 L102,14 L100,14 L100,4 Z M102,14 L104,14 L104,16 L102,16 L102,14 Z M108,10 L112,10 L112,18 L104,18 L104,16 L110,16 L110,12 L108,12 L108,10 Z" id="形状"></path>
                    <path d="M114,0 L116,0 L116,2 L114,2 L114,0 Z M126,0 L128,0 L128,2 L126,2 L126,0 Z M116,2 L118,2 L118,6 L116,6 L116,2 Z M124,2 L126,2 L126,6 L124,6 L124,2 Z M118,6 L120,6 L120,8 L118,8 L118,6 Z M122,6 L124,6 L124,8 L122,8 L122,6 Z M120,8 L122,8 L122,10 L120,10 L120,8 Z M118,10 L120,10 L120,12 L118,12 L118,10 Z M122,10 L124,10 L124,12 L122,12 L122,10 Z M116,12 L118,12 L118,16 L116,16 L116,12 Z M124,12 L126,12 L126,16 L124,16 L124,12 Z M114,16 L116,16 L116,18 L114,18 L114,16 Z M126,16 L128,16 L128,18 L126,18 L126,16 Z" id="形状"></path>
                    <path d="M132,2 L134,2 L134,8 L132,8 L132,2 Z M130,8 L132,8 L132,12 L136,12 L136,2 L134,2 L134,0 L138,0 L138,12 L140,12 L140,14 L138,14 L138,18 L136,18 L136,14 L130,14 L130,8 Z" id="形状"></path>
                    <path d="M150,0 L150,2 L144,2 L144,0 L150,0 Z M146,8 L148,8 L148,10 L146,10 L146,8 Z M142,2 L144,2 L144,10 L146,10 L146,12 L144,12 L144,16 L142,16 L142,2 Z M150,8 L148,8 L148,6 L150,6 L150,2 L152,2 L152,16 L150,16 L150,8 Z M150,18 L144,18 L144,16 L150,16 L150,18 Z" id="形状"></path>
                    <path d="M162,0 L162,2 L156,2 L156,0 L162,0 Z M158,8 L160,8 L160,10 L158,10 L158,8 Z M154,2 L156,2 L156,10 L158,10 L158,12 L156,12 L156,16 L154,16 L154,2 Z M162,8 L160,8 L160,6 L162,6 L162,2 L164,2 L164,16 L162,16 L162,8 Z M162,18 L156,18 L156,16 L162,16 L162,18 Z" id="形状"></path>
                    <path d="M174,0 L174,2 L168,2 L168,0 L174,0 Z M170,8 L172,8 L172,10 L170,10 L170,8 Z M166,2 L168,2 L168,10 L170,10 L170,12 L168,12 L168,16 L166,16 L166,2 Z M174,8 L172,8 L172,6 L174,6 L174,2 L176,2 L176,16 L174,16 L174,8 Z M174,18 L168,18 L168,16 L174,16 L174,18 Z" id="形状"></path>
                </g>
            </g>
        </g>
    </g>
</svg>