<?xml version="1.0" encoding="UTF-8"?>
<svg width="372px" height="40px" viewBox="0 0 372 40" version="1.1" xmlns="http://www.w3.org/2000/svg" xmlns:xlink="http://www.w3.org/1999/xlink">
    <title>kaneko</title>
    <g id="system-list" stroke="none" stroke-width="1" fill="none" fill-rule="evenodd">
        <g id="画板" transform="translate(0, -2776)">
            <g id="kaneko" transform="translate(0, 2776)">
                <rect id="矩形备份-6" x="0" y="0" width="372" height="40"></rect>
                <g id="Kaneko" transform="translate(24, 0)" fill="#FFFFFF" fill-rule="nonzero">
                    <path d="M10,0 L12,0 L12,2 L10,2 L10,0 Z M8,2 L10,2 L10,4 L8,4 L8,2 Z M6,4 L8,4 L8,6 L6,6 L6,4 Z M4,6 L6,6 L6,8 L4,8 L4,6 Z M4,10 L6,10 L6,12 L4,12 L4,10 Z M6,12 L8,12 L8,14 L6,14 L6,12 Z M8,14 L10,14 L10,16 L8,16 L8,14 Z M0,0 L2,0 L2,8 L4,8 L4,10 L2,10 L2,18 L0,18 L0,0 Z M10,16 L12,16 L12,18 L10,18 L10,16 Z" id="形状"></path>
                    <path d="M22,8 L16,8 L16,6 L22,6 L22,8 Z M14,12 L16,12 L16,16 L14,16 L14,12 Z M24,18 L16,18 L16,16 L22,16 L22,12 L16,12 L16,10 L22,10 L22,8 L24,8 L24,18 Z" id="形状"></path>
                    <path d="M34,8 L30,8 L30,6 L34,6 L34,8 Z M26,6 L28,6 L28,8 L30,8 L30,10 L28,10 L28,18 L26,18 L26,6 Z M34,8 L36,8 L36,18 L34,18 L34,8 Z" id="形状"></path>
                    <path d="M46,8 L40,8 L40,6 L46,6 L46,8 Z M48,12 L40,12 L40,16 L38,16 L38,8 L40,8 L40,10 L46,10 L46,8 L48,8 L48,12 Z M46,14 L48,14 L48,16 L46,16 L46,14 Z M46,18 L40,18 L40,16 L46,16 L46,18 Z" id="形状"></path>
                    <path d="M58,6 L60,6 L60,8 L58,8 L58,6 Z M54,8 L58,8 L58,10 L54,10 L54,8 Z M54,12 L56,12 L56,14 L54,14 L54,12 Z M56,14 L58,14 L58,16 L56,16 L56,14 Z M50,0 L52,0 L52,10 L54,10 L54,12 L52,12 L52,18 L50,18 L50,0 Z M58,16 L60,16 L60,18 L58,18 L58,16 Z" id="形状"></path>
                    <path d="M70,8 L64,8 L64,6 L70,6 L70,8 Z M62,8 L64,8 L64,16 L62,16 L62,8 Z M70,8 L72,8 L72,16 L70,16 L70,8 Z M70,18 L64,18 L64,16 L70,16 L70,18 Z" id="形状"></path>
                </g>
            </g>
        </g>
    </g>
</svg>