<?xml version="1.0" encoding="UTF-8"?>
<svg width="372px" height="40px" viewBox="0 0 372 40" version="1.1" xmlns="http://www.w3.org/2000/svg" xmlns:xlink="http://www.w3.org/1999/xlink">
    <title>konami</title>
    <g id="system-list" stroke="none" stroke-width="1" fill="none" fill-rule="evenodd">
        <g id="画板" transform="translate(0, -2732)">
            <g id="konami" transform="translate(0, 2732)">
                <rect id="矩形备份-6" x="0" y="0" width="372" height="40"></rect>
                <g id="Konami" transform="translate(24, 0)" fill="#FFFFFF" fill-rule="nonzero">
                    <path d="M10,0 L12,0 L12,2 L10,2 L10,0 Z M8,2 L10,2 L10,4 L8,4 L8,2 Z M6,4 L8,4 L8,6 L6,6 L6,4 Z M4,6 L6,6 L6,8 L4,8 L4,6 Z M4,10 L6,10 L6,12 L4,12 L4,10 Z M6,12 L8,12 L8,14 L6,14 L6,12 Z M8,14 L10,14 L10,16 L8,16 L8,14 Z M0,0 L2,0 L2,8 L4,8 L4,10 L2,10 L2,18 L0,18 L0,0 Z M10,16 L12,16 L12,18 L10,18 L10,16 Z" id="形状"></path>
                    <path d="M22,8 L16,8 L16,6 L22,6 L22,8 Z M14,8 L16,8 L16,16 L14,16 L14,8 Z M22,8 L24,8 L24,16 L22,16 L22,8 Z M22,18 L16,18 L16,16 L22,16 L22,18 Z" id="形状"></path>
                    <path d="M34,8 L30,8 L30,6 L34,6 L34,8 Z M26,6 L28,6 L28,8 L30,8 L30,10 L28,10 L28,18 L26,18 L26,6 Z M34,8 L36,8 L36,18 L34,18 L34,8 Z" id="形状"></path>
                    <path d="M46,8 L40,8 L40,6 L46,6 L46,8 Z M38,12 L40,12 L40,16 L38,16 L38,12 Z M48,18 L40,18 L40,16 L46,16 L46,12 L40,12 L40,10 L46,10 L46,8 L48,8 L48,18 Z" id="形状"></path>
                    <path d="M58,6 L62,6 L62,8 L58,8 L58,6 Z M50,6 L56,6 L56,8 L52,8 L52,18 L50,18 L50,6 Z M56,8 L58,8 L58,18 L56,18 L56,8 Z M62,8 L64,8 L64,18 L62,18 L62,8 Z" id="形状"></path>
                    <path d="M68,0 L70,0 L70,2 L68,2 L68,0 Z M68,8 L66,8 L66,6 L70,6 L70,16 L72,16 L72,18 L66,18 L66,16 L68,16 L68,8 Z" id="形状"></path>
                </g>
            </g>
        </g>
    </g>
</svg>