<?xml version="1.0" encoding="UTF-8"?>
<svg width="372px" height="40px" viewBox="0 0 372 40" version="1.1" xmlns="http://www.w3.org/2000/svg" xmlns:xlink="http://www.w3.org/1999/xlink">
    <title>lowresnx</title>
    <g id="system-list" stroke="none" stroke-width="1" fill="none" fill-rule="evenodd">
        <g id="画板" transform="translate(0, -2644)">
            <g id="lowresnx" transform="translate(0, 2644)">
                <rect id="矩形备份-6" x="0" y="0" width="372" height="40"></rect>
                <g id="LowRes-MX" transform="translate(24, 0)" fill="#FFFFFF" fill-rule="nonzero">
                    <polygon id="路径" points="0 0 2 0 2 16 10 16 10 18 0 18"></polygon>
                    <path d="M20,8 L14,8 L14,6 L20,6 L20,8 Z M12,8 L14,8 L14,16 L12,16 L12,8 Z M20,8 L22,8 L22,16 L20,16 L20,8 Z M20,18 L14,18 L14,16 L20,16 L20,18 Z" id="形状"></path>
                    <path d="M30,6 L32,6 L32,10 L30,10 L30,6 Z M24,6 L26,6 L26,14 L24,14 L24,6 Z M28,10 L30,10 L30,14 L28,14 L28,10 Z M32,10 L34,10 L34,14 L32,14 L32,10 Z M36,6 L38,6 L38,14 L36,14 L36,6 Z M26,14 L28,14 L28,18 L26,18 L26,14 Z M34,14 L36,14 L36,18 L34,18 L34,14 Z" id="形状"></path>
                    <path d="M50,2 L52,2 L52,8 L50,8 L50,2 Z M46,12 L48,12 L48,14 L46,14 L46,12 Z M48,14 L50,14 L50,16 L48,16 L48,14 Z M40,0 L50,0 L50,2 L42,2 L42,8 L50,8 L50,10 L46,10 L46,12 L44,12 L44,10 L42,10 L42,18 L40,18 L40,0 Z M50,16 L52,16 L52,18 L50,18 L50,16 Z" id="形状"></path>
                    <path d="M62,8 L56,8 L56,6 L62,6 L62,8 Z M64,12 L56,12 L56,16 L54,16 L54,8 L56,8 L56,10 L62,10 L62,8 L64,8 L64,12 Z M62,14 L64,14 L64,16 L62,16 L62,14 Z M62,18 L56,18 L56,16 L62,16 L62,18 Z" id="形状"></path>
                    <path d="M74,8 L68,8 L68,6 L74,6 L74,8 Z M66,8 L68,8 L68,10 L66,10 L66,8 Z M74,8 L76,8 L76,10 L74,10 L74,8 Z M72,12 L68,12 L68,10 L72,10 L72,12 Z M72,12 L74,12 L74,14 L72,14 L72,12 Z M66,14 L68,14 L68,16 L66,16 L66,14 Z M74,14 L76,14 L76,16 L74,16 L74,14 Z M74,18 L68,18 L68,16 L74,16 L74,18 Z" id="形状"></path>
                    <path d="M94,6 L96,6 L96,10 L94,10 L94,6 Z M102,6 L104,6 L104,10 L102,10 L102,6 Z M96,10 L98,10 L98,14 L96,14 L96,10 Z M100,10 L102,10 L102,14 L100,14 L100,10 Z M90,0 L92,0 L92,2 L94,2 L94,6 L92,6 L92,18 L90,18 L90,0 Z M98,14 L100,14 L100,18 L98,18 L98,14 Z M106,6 L104,6 L104,2 L106,2 L106,0 L108,0 L108,18 L106,18 L106,6 Z" id="形状"></path>
                    <path d="M110,0 L112,0 L112,2 L110,2 L110,0 Z M122,0 L124,0 L124,2 L122,2 L122,0 Z M112,2 L114,2 L114,6 L112,6 L112,2 Z M120,2 L122,2 L122,6 L120,6 L120,2 Z M114,6 L116,6 L116,8 L114,8 L114,6 Z M118,6 L120,6 L120,8 L118,8 L118,6 Z M116,8 L118,8 L118,10 L116,10 L116,8 Z M114,10 L116,10 L116,12 L114,12 L114,10 Z M118,10 L120,10 L120,12 L118,12 L118,10 Z M112,12 L114,12 L114,16 L112,16 L112,12 Z M120,12 L122,12 L122,16 L120,16 L120,12 Z M110,16 L112,16 L112,18 L110,18 L110,16 Z M122,16 L124,16 L124,18 L122,18 L122,16 Z" id="形状"></path>
                </g>
            </g>
        </g>
    </g>
</svg>