<?xml version="1.0" encoding="UTF-8"?>
<svg width="372px" height="40px" viewBox="0 0 372 40" version="1.1" xmlns="http://www.w3.org/2000/svg" xmlns:xlink="http://www.w3.org/1999/xlink">
    <title>mame2003</title>
    <g id="system-list" stroke="none" stroke-width="1" fill="none" fill-rule="evenodd">
        <g id="画板" transform="translate(0, -2556)">
            <g id="mame2003" transform="translate(0, 2556)">
                <rect id="矩形备份-6" x="0" y="0" width="372" height="40"></rect>
                <g id="Mame-2003" transform="translate(24, 0)" fill="#FFFFFF" fill-rule="nonzero">
                    <path d="M4,6 L6,6 L6,10 L4,10 L4,6 Z M12,6 L14,6 L14,10 L12,10 L12,6 Z M6,10 L8,10 L8,14 L6,14 L6,10 Z M10,10 L12,10 L12,14 L10,14 L10,10 Z M0,0 L2,0 L2,2 L4,2 L4,6 L2,6 L2,18 L0,18 L0,0 Z M8,14 L10,14 L10,18 L8,18 L8,14 Z M16,6 L14,6 L14,2 L16,2 L16,0 L18,0 L18,18 L16,18 L16,6 Z" id="形状"></path>
                    <path d="M28,8 L22,8 L22,6 L28,6 L28,8 Z M20,12 L22,12 L22,16 L20,16 L20,12 Z M30,18 L22,18 L22,16 L28,16 L28,12 L22,12 L22,10 L28,10 L28,8 L30,8 L30,18 Z" id="形状"></path>
                    <path d="M40,6 L44,6 L44,8 L40,8 L40,6 Z M32,6 L38,6 L38,8 L34,8 L34,18 L32,18 L32,6 Z M38,8 L40,8 L40,18 L38,18 L38,8 Z M44,8 L46,8 L46,18 L44,18 L44,8 Z" id="形状"></path>
                    <path d="M56,8 L50,8 L50,6 L56,6 L56,8 Z M58,12 L50,12 L50,16 L48,16 L48,8 L50,8 L50,10 L56,10 L56,8 L58,8 L58,12 Z M56,14 L58,14 L58,16 L56,16 L56,14 Z M56,18 L50,18 L50,16 L56,16 L56,18 Z" id="形状"></path>
                    <path d="M80,0 L80,2 L74,2 L74,0 L80,0 Z M72,2 L74,2 L74,4 L72,4 L72,2 Z M80,2 L82,2 L82,8 L80,8 L80,2 Z M78,8 L80,8 L80,10 L78,10 L78,8 Z M76,10 L78,10 L78,12 L76,12 L76,10 Z M74,12 L76,12 L76,14 L74,14 L74,12 Z M72,14 L74,14 L74,16 L82,16 L82,18 L72,18 L72,14 Z" id="形状"></path>
                    <path d="M92,0 L92,2 L86,2 L86,0 L92,0 Z M88,8 L90,8 L90,10 L88,10 L88,8 Z M84,2 L86,2 L86,10 L88,10 L88,12 L86,12 L86,16 L84,16 L84,2 Z M92,8 L90,8 L90,6 L92,6 L92,2 L94,2 L94,16 L92,16 L92,8 Z M92,18 L86,18 L86,16 L92,16 L92,18 Z" id="形状"></path>
                    <path d="M104,0 L104,2 L98,2 L98,0 L104,0 Z M100,8 L102,8 L102,10 L100,10 L100,8 Z M96,2 L98,2 L98,10 L100,10 L100,12 L98,12 L98,16 L96,16 L96,2 Z M104,8 L102,8 L102,6 L104,6 L104,2 L106,2 L106,16 L104,16 L104,8 Z M104,18 L98,18 L98,16 L104,16 L104,18 Z" id="形状"></path>
                    <path d="M116,0 L116,2 L110,2 L110,0 L116,0 Z M108,2 L110,2 L110,4 L108,4 L108,2 Z M116,2 L118,2 L118,8 L116,8 L116,2 Z M112,8 L116,8 L116,10 L112,10 L112,8 Z M108,14 L110,14 L110,16 L108,16 L108,14 Z M116,10 L118,10 L118,16 L116,16 L116,10 Z M116,18 L110,18 L110,16 L116,16 L116,18 Z" id="形状"></path>
                </g>
            </g>
        </g>
    </g>
</svg>