<?xml version="1.0" encoding="UTF-8"?>
<svg width="372px" height="40px" viewBox="0 0 372 40" version="1.1" xmlns="http://www.w3.org/2000/svg" xmlns:xlink="http://www.w3.org/1999/xlink">
    <title>mastersystem</title>
    <g id="system-list" stroke="none" stroke-width="1" fill="none" fill-rule="evenodd">
        <g id="画板" transform="translate(0, -2512)">
            <g id="mastersystem" transform="translate(0, 2512)">
                <rect id="矩形备份-6" x="0" y="0" width="372" height="40"></rect>
                <g id="Sega-Master-System" transform="translate(24, 0)" fill="#FFFFFF" fill-rule="nonzero">
                    <path d="M10,2 L2,2 L2,0 L10,0 L10,2 Z M10,2 L12,2 L12,4 L10,4 L10,2 Z M0,2 L2,2 L2,6 L0,6 L0,2 Z M2,6 L4,6 L4,8 L2,8 L2,6 Z M4,8 L8,8 L8,10 L4,10 L4,8 Z M8,10 L10,10 L10,12 L8,12 L8,10 Z M0,14 L2,14 L2,16 L0,16 L0,14 Z M10,12 L12,12 L12,16 L10,16 L10,12 Z M10,16 L10,18 L2,18 L2,16 L10,16 Z" id="形状"></path>
                    <path d="M22,8 L16,8 L16,6 L22,6 L22,8 Z M24,12 L16,12 L16,16 L14,16 L14,8 L16,8 L16,10 L22,10 L22,8 L24,8 L24,12 Z M22,14 L24,14 L24,16 L22,16 L22,14 Z M22,18 L16,18 L16,16 L22,16 L22,18 Z" id="形状"></path>
                    <path d="M26,8 L28,8 L28,16 L26,16 L26,8 Z M34,8 L28,8 L28,6 L36,6 L36,20 L34,20 L34,18 L28,18 L28,16 L34,16 L34,8 Z M34,20 L34,22 L28,22 L28,20 L34,20 Z" id="形状"></path>
                    <path d="M46,8 L40,8 L40,6 L46,6 L46,8 Z M38,12 L40,12 L40,16 L38,16 L38,12 Z M48,18 L40,18 L40,16 L46,16 L46,12 L40,12 L40,10 L46,10 L46,8 L48,8 L48,18 Z" id="形状"></path>
                    <path d="M66,6 L68,6 L68,10 L66,10 L66,6 Z M74,6 L76,6 L76,10 L74,10 L74,6 Z M68,10 L70,10 L70,14 L68,14 L68,10 Z M72,10 L74,10 L74,14 L72,14 L72,10 Z M62,0 L64,0 L64,2 L66,2 L66,6 L64,6 L64,18 L62,18 L62,0 Z M70,14 L72,14 L72,18 L70,18 L70,14 Z M78,6 L76,6 L76,2 L78,2 L78,0 L80,0 L80,18 L78,18 L78,6 Z" id="形状"></path>
                    <path d="M90,8 L84,8 L84,6 L90,6 L90,8 Z M82,12 L84,12 L84,16 L82,16 L82,12 Z M92,18 L84,18 L84,16 L90,16 L90,12 L84,12 L84,10 L90,10 L90,8 L92,8 L92,18 Z" id="形状"></path>
                    <path d="M102,8 L96,8 L96,6 L102,6 L102,8 Z M94,8 L96,8 L96,10 L94,10 L94,8 Z M102,8 L104,8 L104,10 L102,10 L102,8 Z M100,12 L96,12 L96,10 L100,10 L100,12 Z M100,12 L102,12 L102,14 L100,14 L100,12 Z M94,14 L96,14 L96,16 L94,16 L94,14 Z M102,14 L104,14 L104,16 L102,16 L102,14 Z M102,18 L96,18 L96,16 L102,16 L102,18 Z" id="形状"></path>
                    <path d="M108,8 L106,8 L106,6 L108,6 L108,0 L110,0 L110,6 L114,6 L114,8 L110,8 L110,16 L108,16 L108,8 Z M114,18 L110,18 L110,16 L114,16 L114,18 Z" id="形状"></path>
                    <path d="M124,8 L118,8 L118,6 L124,6 L124,8 Z M126,12 L118,12 L118,16 L116,16 L116,8 L118,8 L118,10 L124,10 L124,8 L126,8 L126,12 Z M124,14 L126,14 L126,16 L124,16 L124,14 Z M124,18 L118,18 L118,16 L124,16 L124,18 Z" id="形状"></path>
                    <path d="M136,8 L132,8 L132,6 L136,6 L136,8 Z M128,6 L130,6 L130,8 L132,8 L132,10 L130,10 L130,18 L128,18 L128,6 Z" id="形状"></path>
                    <path d="M160,2 L152,2 L152,0 L160,0 L160,2 Z M160,2 L162,2 L162,4 L160,4 L160,2 Z M150,2 L152,2 L152,6 L150,6 L150,2 Z M152,6 L154,6 L154,8 L152,8 L152,6 Z M154,8 L158,8 L158,10 L154,10 L154,8 Z M158,10 L160,10 L160,12 L158,12 L158,10 Z M150,14 L152,14 L152,16 L150,16 L150,14 Z M160,12 L162,12 L162,16 L160,16 L160,12 Z M160,16 L160,18 L152,18 L152,16 L160,16 Z" id="形状"></path>
                    <path d="M164,6 L166,6 L166,12 L164,12 L164,6 Z M172,6 L174,6 L174,12 L172,12 L172,6 Z M166,12 L168,12 L168,16 L166,16 L166,12 Z M170,12 L172,12 L172,16 L170,16 L170,12 Z M168,16 L170,16 L170,20 L168,20 L168,16 Z M164,20 L168,20 L168,22 L164,22 L164,20 Z" id="形状"></path>
                    <path d="M184,8 L178,8 L178,6 L184,6 L184,8 Z M176,8 L178,8 L178,10 L176,10 L176,8 Z M184,8 L186,8 L186,10 L184,10 L184,8 Z M182,12 L178,12 L178,10 L182,10 L182,12 Z M182,12 L184,12 L184,14 L182,14 L182,12 Z M176,14 L178,14 L178,16 L176,16 L176,14 Z M184,14 L186,14 L186,16 L184,16 L184,14 Z M184,18 L178,18 L178,16 L184,16 L184,18 Z" id="形状"></path>
                    <path d="M190,8 L188,8 L188,6 L190,6 L190,0 L192,0 L192,6 L196,6 L196,8 L192,8 L192,16 L190,16 L190,8 Z M196,18 L192,18 L192,16 L196,16 L196,18 Z" id="形状"></path>
                    <path d="M206,8 L200,8 L200,6 L206,6 L206,8 Z M208,12 L200,12 L200,16 L198,16 L198,8 L200,8 L200,10 L206,10 L206,8 L208,8 L208,12 Z M206,14 L208,14 L208,16 L206,16 L206,14 Z M206,18 L200,18 L200,16 L206,16 L206,18 Z" id="形状"></path>
                    <path d="M218,6 L222,6 L222,8 L218,8 L218,6 Z M210,6 L216,6 L216,8 L212,8 L212,18 L210,18 L210,6 Z M216,8 L218,8 L218,18 L216,18 L216,8 Z M222,8 L224,8 L224,18 L222,18 L222,8 Z" id="形状"></path>
                </g>
            </g>
        </g>
    </g>
</svg>