<?xml version="1.0" encoding="UTF-8"?>
<svg width="372px" height="40px" viewBox="0 0 372 40" version="1.1" xmlns="http://www.w3.org/2000/svg" xmlns:xlink="http://www.w3.org/1999/xlink">
    <title>midway</title>
    <g id="system-list" stroke="none" stroke-width="1" fill="none" fill-rule="evenodd">
        <g id="画板" transform="translate(0, -2336)">
            <g id="midway" transform="translate(0, 2336)">
                <rect id="矩形备份-6" x="0" y="0" width="372" height="40"></rect>
                <g id="Midway" transform="translate(24, 0)" fill="#FFFFFF" fill-rule="nonzero">
                    <path d="M4,6 L6,6 L6,10 L4,10 L4,6 Z M12,6 L14,6 L14,10 L12,10 L12,6 Z M6,10 L8,10 L8,14 L6,14 L6,10 Z M10,10 L12,10 L12,14 L10,14 L10,10 Z M0,0 L2,0 L2,2 L4,2 L4,6 L2,6 L2,18 L0,18 L0,0 Z M8,14 L10,14 L10,18 L8,18 L8,14 Z M16,6 L14,6 L14,2 L16,2 L16,0 L18,0 L18,18 L16,18 L16,6 Z" id="形状"></path>
                    <path d="M22,0 L24,0 L24,2 L22,2 L22,0 Z M22,8 L20,8 L20,6 L24,6 L24,16 L26,16 L26,18 L20,18 L20,16 L22,16 L22,8 Z" id="形状"></path>
                    <path d="M28,8 L30,8 L30,16 L28,16 L28,8 Z M36,8 L30,8 L30,6 L36,6 L36,0 L38,0 L38,18 L30,18 L30,16 L36,16 L36,8 Z" id="形状"></path>
                    <path d="M46,6 L48,6 L48,10 L46,10 L46,6 Z M40,6 L42,6 L42,14 L40,14 L40,6 Z M44,10 L46,10 L46,14 L44,14 L44,10 Z M48,10 L50,10 L50,14 L48,14 L48,10 Z M52,6 L54,6 L54,14 L52,14 L52,6 Z M42,14 L44,14 L44,18 L42,18 L42,14 Z M50,14 L52,14 L52,18 L50,18 L50,14 Z" id="形状"></path>
                    <path d="M64,8 L58,8 L58,6 L64,6 L64,8 Z M56,12 L58,12 L58,16 L56,16 L56,12 Z M66,18 L58,18 L58,16 L64,16 L64,12 L58,12 L58,10 L64,10 L64,8 L66,8 L66,18 Z" id="形状"></path>
                    <path d="M68,6 L70,6 L70,12 L68,12 L68,6 Z M76,6 L78,6 L78,12 L76,12 L76,6 Z M70,12 L72,12 L72,16 L70,16 L70,12 Z M74,12 L76,12 L76,16 L74,16 L74,12 Z M72,16 L74,16 L74,20 L72,20 L72,16 Z M68,20 L72,20 L72,22 L68,22 L68,20 Z" id="形状"></path>
                </g>
            </g>
        </g>
    </g>
</svg>