<?xml version="1.0" encoding="UTF-8"?>
<svg width="372px" height="40px" viewBox="0 0 372 40" version="1.1" xmlns="http://www.w3.org/2000/svg" xmlns:xlink="http://www.w3.org/1999/xlink">
    <title>msumd</title>
    <g id="system-list" stroke="none" stroke-width="1" fill="none" fill-rule="evenodd">
        <g id="画板" transform="translate(0, -2292)">
            <g id="msumd" transform="translate(0, 2292)">
                <rect id="矩形备份-6" x="0" y="0" width="372" height="40"></rect>
                <g id="Megadrive-MSU" transform="translate(24, 0)" fill="#FFFFFF" fill-rule="nonzero">
                    <path d="M4,6 L6,6 L6,10 L4,10 L4,6 Z M12,6 L14,6 L14,10 L12,10 L12,6 Z M6,10 L8,10 L8,14 L6,14 L6,10 Z M10,10 L12,10 L12,14 L10,14 L10,10 Z M0,0 L2,0 L2,2 L4,2 L4,6 L2,6 L2,18 L0,18 L0,0 Z M8,14 L10,14 L10,18 L8,18 L8,14 Z M16,6 L14,6 L14,2 L16,2 L16,0 L18,0 L18,18 L16,18 L16,6 Z" id="形状"></path>
                    <path d="M28,8 L22,8 L22,6 L28,6 L28,8 Z M30,12 L22,12 L22,16 L20,16 L20,8 L22,8 L22,10 L28,10 L28,8 L30,8 L30,12 Z M28,14 L30,14 L30,16 L28,16 L28,14 Z M28,18 L22,18 L22,16 L28,16 L28,18 Z" id="形状"></path>
                    <path d="M32,8 L34,8 L34,16 L32,16 L32,8 Z M40,8 L34,8 L34,6 L42,6 L42,20 L40,20 L40,18 L34,18 L34,16 L40,16 L40,8 Z M40,20 L40,22 L34,22 L34,20 L40,20 Z" id="形状"></path>
                    <path d="M52,8 L46,8 L46,6 L52,6 L52,8 Z M44,12 L46,12 L46,16 L44,16 L44,12 Z M54,18 L46,18 L46,16 L52,16 L52,12 L46,12 L46,10 L52,10 L52,8 L54,8 L54,18 Z" id="形状"></path>
                    <path d="M56,8 L58,8 L58,16 L56,16 L56,8 Z M64,8 L58,8 L58,6 L64,6 L64,0 L66,0 L66,18 L58,18 L58,16 L64,16 L64,8 Z" id="形状"></path>
                    <path d="M76,8 L72,8 L72,6 L76,6 L76,8 Z M68,6 L70,6 L70,8 L72,8 L72,10 L70,10 L70,18 L68,18 L68,6 Z" id="形状"></path>
                    <path d="M80,0 L82,0 L82,2 L80,2 L80,0 Z M80,8 L78,8 L78,6 L82,6 L82,16 L84,16 L84,18 L78,18 L78,16 L80,16 L80,8 Z" id="形状"></path>
                    <path d="M86,6 L88,6 L88,10 L86,10 L86,6 Z M94,6 L96,6 L96,10 L94,10 L94,6 Z M88,10 L90,10 L90,14 L88,14 L88,10 Z M92,10 L94,10 L94,14 L92,14 L92,10 Z M90,14 L92,14 L92,18 L90,18 L90,14 Z" id="形状"></path>
                    <path d="M106,8 L100,8 L100,6 L106,6 L106,8 Z M108,12 L100,12 L100,16 L98,16 L98,8 L100,8 L100,10 L106,10 L106,8 L108,8 L108,12 Z M106,14 L108,14 L108,16 L106,16 L106,14 Z M106,18 L100,18 L100,16 L106,16 L106,18 Z" id="形状"></path>
                    <path d="M126,6 L128,6 L128,10 L126,10 L126,6 Z M134,6 L136,6 L136,10 L134,10 L134,6 Z M128,10 L130,10 L130,14 L128,14 L128,10 Z M132,10 L134,10 L134,14 L132,14 L132,10 Z M122,0 L124,0 L124,2 L126,2 L126,6 L124,6 L124,18 L122,18 L122,0 Z M130,14 L132,14 L132,18 L130,18 L130,14 Z M138,6 L136,6 L136,2 L138,2 L138,0 L140,0 L140,18 L138,18 L138,6 Z" id="形状"></path>
                    <path d="M152,2 L144,2 L144,0 L152,0 L152,2 Z M152,2 L154,2 L154,4 L152,4 L152,2 Z M142,2 L144,2 L144,6 L142,6 L142,2 Z M144,6 L146,6 L146,8 L144,8 L144,6 Z M146,8 L150,8 L150,10 L146,10 L146,8 Z M150,10 L152,10 L152,12 L150,12 L150,10 Z M142,14 L144,14 L144,16 L142,16 L142,14 Z M152,12 L154,12 L154,16 L152,16 L152,12 Z M152,16 L152,18 L144,18 L144,16 L152,16 Z" id="形状"></path>
                    <path d="M156,0 L158,0 L158,16 L156,16 L156,0 Z M166,0 L168,0 L168,16 L166,16 L166,0 Z M166,16 L166,18 L158,18 L158,16 L166,16 Z" id="形状"></path>
                </g>
            </g>
        </g>
    </g>
</svg>