<?xml version="1.0" encoding="UTF-8"?>
<svg width="372px" height="40px" viewBox="0 0 372 40" version="1.1" xmlns="http://www.w3.org/2000/svg" xmlns:xlink="http://www.w3.org/1999/xlink">
    <title>msx</title>
    <g id="system-list" stroke="none" stroke-width="1" fill="none" fill-rule="evenodd">
        <g id="画板" transform="translate(0, -2248)">
            <g id="msx" transform="translate(0, 2248)">
                <rect id="矩形备份-6" x="0" y="0" width="372" height="40"></rect>
                <g id="MSX" transform="translate(24, 0)" fill="#FFFFFF" fill-rule="nonzero">
                    <path d="M4,6 L6,6 L6,10 L4,10 L4,6 Z M12,6 L14,6 L14,10 L12,10 L12,6 Z M6,10 L8,10 L8,14 L6,14 L6,10 Z M10,10 L12,10 L12,14 L10,14 L10,10 Z M0,0 L2,0 L2,2 L4,2 L4,6 L2,6 L2,18 L0,18 L0,0 Z M8,14 L10,14 L10,18 L8,18 L8,14 Z M16,6 L14,6 L14,2 L16,2 L16,0 L18,0 L18,18 L16,18 L16,6 Z" id="形状"></path>
                    <path d="M30,2 L22,2 L22,0 L30,0 L30,2 Z M30,2 L32,2 L32,4 L30,4 L30,2 Z M20,2 L22,2 L22,6 L20,6 L20,2 Z M22,6 L24,6 L24,8 L22,8 L22,6 Z M24,8 L28,8 L28,10 L24,10 L24,8 Z M28,10 L30,10 L30,12 L28,12 L28,10 Z M20,14 L22,14 L22,16 L20,16 L20,14 Z M30,12 L32,12 L32,16 L30,16 L30,12 Z M30,16 L30,18 L22,18 L22,16 L30,16 Z" id="形状"></path>
                    <path d="M34,0 L36,0 L36,2 L34,2 L34,0 Z M46,0 L48,0 L48,2 L46,2 L46,0 Z M36,2 L38,2 L38,6 L36,6 L36,2 Z M44,2 L46,2 L46,6 L44,6 L44,2 Z M38,6 L40,6 L40,8 L38,8 L38,6 Z M42,6 L44,6 L44,8 L42,8 L42,6 Z M40,8 L42,8 L42,10 L40,10 L40,8 Z M38,10 L40,10 L40,12 L38,12 L38,10 Z M42,10 L44,10 L44,12 L42,12 L42,10 Z M36,12 L38,12 L38,16 L36,16 L36,12 Z M44,12 L46,12 L46,16 L44,16 L44,12 Z M34,16 L36,16 L36,18 L34,18 L34,16 Z M46,16 L48,16 L48,18 L46,18 L46,16 Z" id="形状"></path>
                </g>
            </g>
        </g>
    </g>
</svg>