<?xml version="1.0" encoding="UTF-8"?>
<svg width="372px" height="40px" viewBox="0 0 372 40" version="1.1" xmlns="http://www.w3.org/2000/svg" xmlns:xlink="http://www.w3.org/1999/xlink">
    <title>mv</title>
    <g id="system-list" stroke="none" stroke-width="1" fill="none" fill-rule="evenodd">
        <g id="画板" transform="translate(0, -2160)">
            <g id="mv" transform="translate(0, 2160)">
                <rect id="矩形备份-6" x="0" y="0" width="372" height="40"></rect>
                <g id="Micovision" transform="translate(24, 0)" fill="#FFFFFF" fill-rule="nonzero">
                    <path d="M4,6 L6,6 L6,10 L4,10 L4,6 Z M12,6 L14,6 L14,10 L12,10 L12,6 Z M6,10 L8,10 L8,14 L6,14 L6,10 Z M10,10 L12,10 L12,14 L10,14 L10,10 Z M0,0 L2,0 L2,2 L4,2 L4,6 L2,6 L2,18 L0,18 L0,0 Z M8,14 L10,14 L10,18 L8,18 L8,14 Z M16,6 L14,6 L14,2 L16,2 L16,0 L18,0 L18,18 L16,18 L16,6 Z" id="形状"></path>
                    <path d="M22,0 L24,0 L24,2 L22,2 L22,0 Z M22,8 L20,8 L20,6 L24,6 L24,16 L26,16 L26,18 L20,18 L20,16 L22,16 L22,8 Z" id="形状"></path>
                    <path d="M36,8 L30,8 L30,6 L36,6 L36,8 Z M36,8 L38,8 L38,10 L36,10 L36,8 Z M28,8 L30,8 L30,16 L28,16 L28,8 Z M36,14 L38,14 L38,16 L36,16 L36,14 Z M36,18 L30,18 L30,16 L36,16 L36,18 Z" id="形状"></path>
                    <path d="M48,8 L42,8 L42,6 L48,6 L48,8 Z M40,8 L42,8 L42,16 L40,16 L40,8 Z M48,8 L50,8 L50,16 L48,16 L48,8 Z M48,18 L42,18 L42,16 L48,16 L48,18 Z" id="形状"></path>
                    <path d="M52,6 L54,6 L54,10 L52,10 L52,6 Z M60,6 L62,6 L62,10 L60,10 L60,6 Z M54,10 L56,10 L56,14 L54,14 L54,10 Z M58,10 L60,10 L60,14 L58,14 L58,10 Z M56,14 L58,14 L58,18 L56,18 L56,14 Z" id="形状"></path>
                    <path d="M66,0 L68,0 L68,2 L66,2 L66,0 Z M66,8 L64,8 L64,6 L68,6 L68,16 L70,16 L70,18 L64,18 L64,16 L66,16 L66,8 Z" id="形状"></path>
                    <path d="M80,8 L74,8 L74,6 L80,6 L80,8 Z M72,8 L74,8 L74,10 L72,10 L72,8 Z M80,8 L82,8 L82,10 L80,10 L80,8 Z M78,12 L74,12 L74,10 L78,10 L78,12 Z M78,12 L80,12 L80,14 L78,14 L78,12 Z M72,14 L74,14 L74,16 L72,16 L72,14 Z M80,14 L82,14 L82,16 L80,16 L80,14 Z M80,18 L74,18 L74,16 L80,16 L80,18 Z" id="形状"></path>
                    <path d="M86,0 L88,0 L88,2 L86,2 L86,0 Z M86,8 L84,8 L84,6 L88,6 L88,16 L90,16 L90,18 L84,18 L84,16 L86,16 L86,8 Z" id="形状"></path>
                    <path d="M100,8 L94,8 L94,6 L100,6 L100,8 Z M92,8 L94,8 L94,16 L92,16 L92,8 Z M100,8 L102,8 L102,16 L100,16 L100,8 Z M100,18 L94,18 L94,16 L100,16 L100,18 Z" id="形状"></path>
                    <path d="M112,8 L108,8 L108,6 L112,6 L112,8 Z M104,6 L106,6 L106,8 L108,8 L108,10 L106,10 L106,18 L104,18 L104,6 Z M112,8 L114,8 L114,18 L112,18 L112,8 Z" id="形状"></path>
                </g>
            </g>
        </g>
    </g>
</svg>