<?xml version="1.0" encoding="UTF-8"?>
<svg width="372px" height="40px" viewBox="0 0 372 40" version="1.1" xmlns="http://www.w3.org/2000/svg" xmlns:xlink="http://www.w3.org/1999/xlink">
    <title>n64</title>
    <g id="system-list" stroke="none" stroke-width="1" fill="none" fill-rule="evenodd">
        <g id="画板" transform="translate(0, -2116)">
            <g id="n64" transform="translate(0, 2116)">
                <rect id="矩形备份-6" x="0" y="0" width="372" height="40"></rect>
                <g id="Nintendo-64" transform="translate(24, 0)" fill="#FFFFFF" fill-rule="nonzero">
                    <path d="M4,4 L6,4 L6,8 L4,8 L4,4 Z M6,8 L8,8 L8,12 L6,12 L6,8 Z M0,0 L2,0 L2,2 L4,2 L4,4 L2,4 L2,18 L0,18 L0,0 Z M10,0 L12,0 L12,18 L10,18 L10,16 L8,16 L8,12 L10,12 L10,0 Z" id="形状"></path>
                    <path d="M16,0 L18,0 L18,2 L16,2 L16,0 Z M16,8 L14,8 L14,6 L18,6 L18,16 L20,16 L20,18 L14,18 L14,16 L16,16 L16,8 Z" id="形状"></path>
                    <path d="M30,8 L26,8 L26,6 L30,6 L30,8 Z M22,6 L24,6 L24,8 L26,8 L26,10 L24,10 L24,18 L22,18 L22,6 Z M30,8 L32,8 L32,18 L30,18 L30,8 Z" id="形状"></path>
                    <path d="M36,8 L34,8 L34,6 L36,6 L36,0 L38,0 L38,6 L42,6 L42,8 L38,8 L38,16 L36,16 L36,8 Z M42,18 L38,18 L38,16 L42,16 L42,18 Z" id="形状"></path>
                    <path d="M52,8 L46,8 L46,6 L52,6 L52,8 Z M54,12 L46,12 L46,16 L44,16 L44,8 L46,8 L46,10 L52,10 L52,8 L54,8 L54,12 Z M52,14 L54,14 L54,16 L52,16 L52,14 Z M52,18 L46,18 L46,16 L52,16 L52,18 Z" id="形状"></path>
                    <path d="M64,8 L60,8 L60,6 L64,6 L64,8 Z M56,6 L58,6 L58,8 L60,8 L60,10 L58,10 L58,18 L56,18 L56,6 Z M64,8 L66,8 L66,18 L64,18 L64,8 Z" id="形状"></path>
                    <path d="M68,8 L70,8 L70,16 L68,16 L68,8 Z M76,8 L70,8 L70,6 L76,6 L76,0 L78,0 L78,18 L70,18 L70,16 L76,16 L76,8 Z" id="形状"></path>
                    <path d="M88,8 L82,8 L82,6 L88,6 L88,8 Z M80,8 L82,8 L82,16 L80,16 L80,8 Z M88,8 L90,8 L90,16 L88,16 L88,8 Z M88,18 L82,18 L82,16 L88,16 L88,18 Z" id="形状"></path>
                    <path d="M112,0 L112,2 L106,2 L106,0 L112,0 Z M112,2 L114,2 L114,4 L112,4 L112,2 Z M104,2 L106,2 L106,8 L112,8 L112,10 L106,10 L106,16 L104,16 L104,2 Z M112,10 L114,10 L114,16 L112,16 L112,10 Z M112,18 L106,18 L106,16 L112,16 L112,18 Z" id="形状"></path>
                    <path d="M118,2 L120,2 L120,8 L118,8 L118,2 Z M116,8 L118,8 L118,12 L122,12 L122,2 L120,2 L120,0 L124,0 L124,12 L126,12 L126,14 L124,14 L124,18 L122,18 L122,14 L116,14 L116,8 Z" id="形状"></path>
                </g>
            </g>
        </g>
    </g>
</svg>