<?xml version="1.0" encoding="UTF-8"?>
<svg width="372px" height="40px" viewBox="0 0 372 40" version="1.1" xmlns="http://www.w3.org/2000/svg" xmlns:xlink="http://www.w3.org/1999/xlink">
    <title>namco</title>
    <g id="system-list" stroke="none" stroke-width="1" fill="none" fill-rule="evenodd">
        <g id="画板" transform="translate(0, -3304)">
            <g id="namco" transform="translate(0, 3304)">
                <rect id="矩形备份-6" x="0" y="0" width="372" height="40"></rect>
                <g id="Namco" transform="translate(24, 0)" fill="#FFFFFF" fill-rule="nonzero">
                    <path d="M4,4 L6,4 L6,8 L4,8 L4,4 Z M6,8 L8,8 L8,12 L6,12 L6,8 Z M0,0 L2,0 L2,2 L4,2 L4,4 L2,4 L2,18 L0,18 L0,0 Z M10,0 L12,0 L12,18 L10,18 L10,16 L8,16 L8,12 L10,12 L10,0 Z" id="形状"></path>
                    <path d="M22,8 L16,8 L16,6 L22,6 L22,8 Z M14,12 L16,12 L16,16 L14,16 L14,12 Z M24,18 L16,18 L16,16 L22,16 L22,12 L16,12 L16,10 L22,10 L22,8 L24,8 L24,18 Z" id="形状"></path>
                    <path d="M34,6 L38,6 L38,8 L34,8 L34,6 Z M26,6 L32,6 L32,8 L28,8 L28,18 L26,18 L26,6 Z M32,8 L34,8 L34,18 L32,18 L32,8 Z M38,8 L40,8 L40,18 L38,18 L38,8 Z" id="形状"></path>
                    <path d="M50,8 L44,8 L44,6 L50,6 L50,8 Z M50,8 L52,8 L52,10 L50,10 L50,8 Z M42,8 L44,8 L44,16 L42,16 L42,8 Z M50,14 L52,14 L52,16 L50,16 L50,14 Z M50,18 L44,18 L44,16 L50,16 L50,18 Z" id="形状"></path>
                    <path d="M62,8 L56,8 L56,6 L62,6 L62,8 Z M54,8 L56,8 L56,16 L54,16 L54,8 Z M62,8 L64,8 L64,16 L62,16 L62,8 Z M62,18 L56,18 L56,16 L62,16 L62,18 Z" id="形状"></path>
                </g>
            </g>
        </g>
    </g>
</svg>