<?xml version="1.0" encoding="UTF-8"?>
<svg width="372px" height="40px" viewBox="0 0 372 40" version="1.1" xmlns="http://www.w3.org/2000/svg" xmlns:xlink="http://www.w3.org/1999/xlink">
    <title>nes</title>
    <g id="system-list" stroke="none" stroke-width="1" fill="none" fill-rule="evenodd">
        <g id="画板" transform="translate(0, -3524)">
            <g id="nes" transform="translate(0, 3524)">
                <rect id="矩形备份-6" x="0" y="0" width="372" height="40"></rect>
                <g id="Nintendo-Entertainme" transform="translate(24, 0)" fill="#FFFFFF" fill-rule="nonzero">
                    <path d="M4,4 L6,4 L6,8 L4,8 L4,4 Z M6,8 L8,8 L8,12 L6,12 L6,8 Z M0,0 L2,0 L2,2 L4,2 L4,4 L2,4 L2,18 L0,18 L0,0 Z M10,0 L12,0 L12,18 L10,18 L10,16 L8,16 L8,12 L10,12 L10,0 Z" id="形状"></path>
                    <path d="M16,0 L18,0 L18,2 L16,2 L16,0 Z M16,8 L14,8 L14,6 L18,6 L18,16 L20,16 L20,18 L14,18 L14,16 L16,16 L16,8 Z" id="形状"></path>
                    <path d="M30,8 L26,8 L26,6 L30,6 L30,8 Z M22,6 L24,6 L24,8 L26,8 L26,10 L24,10 L24,18 L22,18 L22,6 Z M30,8 L32,8 L32,18 L30,18 L30,8 Z" id="形状"></path>
                    <path d="M36,8 L34,8 L34,6 L36,6 L36,0 L38,0 L38,6 L42,6 L42,8 L38,8 L38,16 L36,16 L36,8 Z M42,18 L38,18 L38,16 L42,16 L42,18 Z" id="形状"></path>
                    <path d="M52,8 L46,8 L46,6 L52,6 L52,8 Z M54,12 L46,12 L46,16 L44,16 L44,8 L46,8 L46,10 L52,10 L52,8 L54,8 L54,12 Z M52,14 L54,14 L54,16 L52,16 L52,14 Z M52,18 L46,18 L46,16 L52,16 L52,18 Z" id="形状"></path>
                    <path d="M64,8 L60,8 L60,6 L64,6 L64,8 Z M56,6 L58,6 L58,8 L60,8 L60,10 L58,10 L58,18 L56,18 L56,6 Z M64,8 L66,8 L66,18 L64,18 L64,8 Z" id="形状"></path>
                    <path d="M68,8 L70,8 L70,16 L68,16 L68,8 Z M76,8 L70,8 L70,6 L76,6 L76,0 L78,0 L78,18 L70,18 L70,16 L76,16 L76,8 Z" id="形状"></path>
                    <path d="M88,8 L82,8 L82,6 L88,6 L88,8 Z M80,8 L82,8 L82,16 L80,16 L80,8 Z M88,8 L90,8 L90,16 L88,16 L88,8 Z M88,18 L82,18 L82,16 L88,16 L88,18 Z" id="形状"></path>
                    <polygon id="路径" points="104 0 116 0 116 2 106 2 106 8 114 8 114 10 106 10 106 16 116 16 116 18 104 18"></polygon>
                    <path d="M126,8 L122,8 L122,6 L126,6 L126,8 Z M118,6 L120,6 L120,8 L122,8 L122,10 L120,10 L120,18 L118,18 L118,6 Z M126,8 L128,8 L128,18 L126,18 L126,8 Z" id="形状"></path>
                    <path d="M132,8 L130,8 L130,6 L132,6 L132,0 L134,0 L134,6 L138,6 L138,8 L134,8 L134,16 L132,16 L132,8 Z M138,18 L134,18 L134,16 L138,16 L138,18 Z" id="形状"></path>
                    <path d="M148,8 L142,8 L142,6 L148,6 L148,8 Z M150,12 L142,12 L142,16 L140,16 L140,8 L142,8 L142,10 L148,10 L148,8 L150,8 L150,12 Z M148,14 L150,14 L150,16 L148,16 L148,14 Z M148,18 L142,18 L142,16 L148,16 L148,18 Z" id="形状"></path>
                    <path d="M160,8 L156,8 L156,6 L160,6 L160,8 Z M152,6 L154,6 L154,8 L156,8 L156,10 L154,10 L154,18 L152,18 L152,6 Z" id="形状"></path>
                    <path d="M164,8 L162,8 L162,6 L164,6 L164,0 L166,0 L166,6 L170,6 L170,8 L166,8 L166,16 L164,16 L164,8 Z M170,18 L166,18 L166,16 L170,16 L170,18 Z" id="形状"></path>
                    <path d="M180,8 L174,8 L174,6 L180,6 L180,8 Z M172,12 L174,12 L174,16 L172,16 L172,12 Z M182,18 L174,18 L174,16 L180,16 L180,12 L174,12 L174,10 L180,10 L180,8 L182,8 L182,18 Z" id="形状"></path>
                    <path d="M186,0 L188,0 L188,2 L186,2 L186,0 Z M186,8 L184,8 L184,6 L188,6 L188,16 L190,16 L190,18 L184,18 L184,16 L186,16 L186,8 Z" id="形状"></path>
                    <path d="M200,8 L196,8 L196,6 L200,6 L200,8 Z M192,6 L194,6 L194,8 L196,8 L196,10 L194,10 L194,18 L192,18 L192,6 Z M200,8 L202,8 L202,18 L200,18 L200,8 Z" id="形状"></path>
                    <path d="M212,6 L216,6 L216,8 L212,8 L212,6 Z M204,6 L210,6 L210,8 L206,8 L206,18 L204,18 L204,6 Z M210,8 L212,8 L212,18 L210,18 L210,8 Z M216,8 L218,8 L218,18 L216,18 L216,8 Z" id="形状"></path>
                    <path d="M228,8 L222,8 L222,6 L228,6 L228,8 Z M230,12 L222,12 L222,16 L220,16 L220,8 L222,8 L222,10 L228,10 L228,8 L230,8 L230,12 Z M228,14 L230,14 L230,16 L228,16 L228,14 Z M228,18 L222,18 L222,16 L228,16 L228,18 Z" id="形状"></path>
                    <path d="M240,8 L236,8 L236,6 L240,6 L240,8 Z M232,6 L234,6 L234,8 L236,8 L236,10 L234,10 L234,18 L232,18 L232,6 Z M240,8 L242,8 L242,18 L240,18 L240,8 Z" id="形状"></path>
                    <path d="M246,8 L244,8 L244,6 L246,6 L246,0 L248,0 L248,6 L252,6 L252,8 L248,8 L248,16 L246,16 L246,8 Z M252,18 L248,18 L248,16 L252,16 L252,18 Z" id="形状"></path>
                    <path d="M276,2 L268,2 L268,0 L276,0 L276,2 Z M276,2 L278,2 L278,4 L276,4 L276,2 Z M266,2 L268,2 L268,6 L266,6 L266,2 Z M268,6 L270,6 L270,8 L268,8 L268,6 Z M270,8 L274,8 L274,10 L270,10 L270,8 Z M274,10 L276,10 L276,12 L274,12 L274,10 Z M266,14 L268,14 L268,16 L266,16 L266,14 Z M276,12 L278,12 L278,16 L276,16 L276,12 Z M276,16 L276,18 L268,18 L268,16 L276,16 Z" id="形状"></path>
                    <path d="M280,6 L282,6 L282,12 L280,12 L280,6 Z M288,6 L290,6 L290,12 L288,12 L288,6 Z M282,12 L284,12 L284,16 L282,16 L282,12 Z M286,12 L288,12 L288,16 L286,16 L286,12 Z M284,16 L286,16 L286,20 L284,20 L284,16 Z M280,20 L284,20 L284,22 L280,22 L280,20 Z" id="形状"></path>
                    <path d="M300,8 L294,8 L294,6 L300,6 L300,8 Z M292,8 L294,8 L294,10 L292,10 L292,8 Z M300,8 L302,8 L302,10 L300,10 L300,8 Z M298,12 L294,12 L294,10 L298,10 L298,12 Z M298,12 L300,12 L300,14 L298,14 L298,12 Z M292,14 L294,14 L294,16 L292,16 L292,14 Z M300,14 L302,14 L302,16 L300,16 L300,14 Z M300,18 L294,18 L294,16 L300,16 L300,18 Z" id="形状"></path>
                    <path d="M306,8 L304,8 L304,6 L306,6 L306,0 L308,0 L308,6 L312,6 L312,8 L308,8 L308,16 L306,16 L306,8 Z M312,18 L308,18 L308,16 L312,16 L312,18 Z" id="形状"></path>
                    <path d="M322,8 L316,8 L316,6 L322,6 L322,8 Z M324,12 L316,12 L316,16 L314,16 L314,8 L316,8 L316,10 L322,10 L322,8 L324,8 L324,12 Z M322,14 L324,14 L324,16 L322,16 L322,14 Z M322,18 L316,18 L316,16 L322,16 L322,18 Z" id="形状"></path>
                    <path d="M334,6 L338,6 L338,8 L334,8 L334,6 Z M326,6 L332,6 L332,8 L328,8 L328,18 L326,18 L326,6 Z M332,8 L334,8 L334,18 L332,18 L332,8 Z M338,8 L340,8 L340,18 L338,18 L338,8 Z" id="形状"></path>
                </g>
            </g>
        </g>
    </g>
</svg>