<?xml version="1.0" encoding="UTF-8"?>
<svg width="372px" height="40px" viewBox="0 0 372 40" version="1.1" xmlns="http://www.w3.org/2000/svg" xmlns:xlink="http://www.w3.org/1999/xlink">
    <title>ngp</title>
    <g id="system-list" stroke="none" stroke-width="1" fill="none" fill-rule="evenodd">
        <g id="画板" transform="translate(0, -3568)">
            <g id="ngp" transform="translate(0, 3568)">
                <rect id="矩形备份-6" x="0" y="0" width="372" height="40"></rect>
                <g id="Neo-Geo-Pocket" transform="translate(24, 0)" fill="#FFFFFF" fill-rule="nonzero">
                    <path d="M4,4 L6,4 L6,8 L4,8 L4,4 Z M6,8 L8,8 L8,12 L6,12 L6,8 Z M0,0 L2,0 L2,2 L4,2 L4,4 L2,4 L2,18 L0,18 L0,0 Z M10,0 L12,0 L12,18 L10,18 L10,16 L8,16 L8,12 L10,12 L10,0 Z" id="形状"></path>
                    <path d="M22,8 L16,8 L16,6 L22,6 L22,8 Z M24,12 L16,12 L16,16 L14,16 L14,8 L16,8 L16,10 L22,10 L22,8 L24,8 L24,12 Z M22,14 L24,14 L24,16 L22,16 L22,14 Z M22,18 L16,18 L16,16 L22,16 L22,18 Z" id="形状"></path>
                    <path d="M34,8 L28,8 L28,6 L34,6 L34,8 Z M26,8 L28,8 L28,16 L26,16 L26,8 Z M34,8 L36,8 L36,16 L34,16 L34,8 Z M34,18 L28,18 L28,16 L34,16 L34,18 Z" id="形状"></path>
                    <path d="M60,2 L54,2 L54,0 L60,0 L60,2 Z M52,2 L54,2 L54,4 L52,4 L52,2 Z M60,2 L62,2 L62,4 L60,4 L60,2 Z M50,4 L52,4 L52,14 L50,14 L50,4 Z M52,14 L54,14 L54,16 L52,16 L52,14 Z M58,10 L62,10 L62,18 L54,18 L54,16 L60,16 L60,12 L58,12 L58,10 Z" id="形状"></path>
                    <path d="M72,8 L66,8 L66,6 L72,6 L72,8 Z M74,12 L66,12 L66,16 L64,16 L64,8 L66,8 L66,10 L72,10 L72,8 L74,8 L74,12 Z M72,14 L74,14 L74,16 L72,16 L72,14 Z M72,18 L66,18 L66,16 L72,16 L72,18 Z" id="形状"></path>
                    <path d="M84,8 L78,8 L78,6 L84,6 L84,8 Z M76,8 L78,8 L78,16 L76,16 L76,8 Z M84,8 L86,8 L86,16 L84,16 L84,8 Z M84,18 L78,18 L78,16 L84,16 L84,18 Z" id="形状"></path>
                    <path d="M110,2 L112,2 L112,8 L110,8 L110,2 Z M100,0 L110,0 L110,2 L102,2 L102,8 L110,8 L110,10 L102,10 L102,18 L100,18 L100,0 Z" id="形状"></path>
                    <path d="M122,8 L116,8 L116,6 L122,6 L122,8 Z M114,8 L116,8 L116,16 L114,16 L114,8 Z M122,8 L124,8 L124,16 L122,16 L122,8 Z M122,18 L116,18 L116,16 L122,16 L122,18 Z" id="形状"></path>
                    <path d="M134,8 L128,8 L128,6 L134,6 L134,8 Z M134,8 L136,8 L136,10 L134,10 L134,8 Z M126,8 L128,8 L128,16 L126,16 L126,8 Z M134,14 L136,14 L136,16 L134,16 L134,14 Z M134,18 L128,18 L128,16 L134,16 L134,18 Z" id="形状"></path>
                    <path d="M146,6 L148,6 L148,8 L146,8 L146,6 Z M142,8 L146,8 L146,10 L142,10 L142,8 Z M142,12 L144,12 L144,14 L142,14 L142,12 Z M144,14 L146,14 L146,16 L144,16 L144,14 Z M138,0 L140,0 L140,10 L142,10 L142,12 L140,12 L140,18 L138,18 L138,0 Z M146,16 L148,16 L148,18 L146,18 L146,16 Z" id="形状"></path>
                    <path d="M158,8 L152,8 L152,6 L158,6 L158,8 Z M160,12 L152,12 L152,16 L150,16 L150,8 L152,8 L152,10 L158,10 L158,8 L160,8 L160,12 Z M158,14 L160,14 L160,16 L158,16 L158,14 Z M158,18 L152,18 L152,16 L158,16 L158,18 Z" id="形状"></path>
                    <path d="M164,8 L162,8 L162,6 L164,6 L164,0 L166,0 L166,6 L170,6 L170,8 L166,8 L166,16 L164,16 L164,8 Z M170,18 L166,18 L166,16 L170,16 L170,18 Z" id="形状"></path>
                </g>
            </g>
        </g>
    </g>
</svg>