<?xml version="1.0" encoding="UTF-8"?>
<svg width="372px" height="40px" viewBox="0 0 372 40" version="1.1" xmlns="http://www.w3.org/2000/svg" xmlns:xlink="http://www.w3.org/1999/xlink">
    <title>onscripter</title>
    <g id="system-list" stroke="none" stroke-width="1" fill="none" fill-rule="evenodd">
        <g id="画板" transform="translate(0, -3700)">
            <g id="onscripter" transform="translate(0, 3700)">
                <rect id="矩形备份-6" x="0" y="0" width="372" height="40"></rect>
                <g id="Visual-Novel-Games-E" transform="translate(24, 0)" fill="#FFFFFF" fill-rule="nonzero">
                    <path d="M0,0 L2,0 L2,4 L0,4 L0,0 Z M12,0 L14,0 L14,4 L12,4 L12,0 Z M2,4 L4,4 L4,10 L2,10 L2,4 Z M10,4 L12,4 L12,10 L10,10 L10,4 Z M4,10 L6,10 L6,14 L4,14 L4,10 Z M8,10 L10,10 L10,14 L8,14 L8,10 Z M6,14 L8,14 L8,18 L6,18 L6,14 Z" id="形状"></path>
                    <path d="M18,0 L20,0 L20,2 L18,2 L18,0 Z M18,8 L16,8 L16,6 L20,6 L20,16 L22,16 L22,18 L16,18 L16,16 L18,16 L18,8 Z" id="形状"></path>
                    <path d="M32,8 L26,8 L26,6 L32,6 L32,8 Z M24,8 L26,8 L26,10 L24,10 L24,8 Z M32,8 L34,8 L34,10 L32,10 L32,8 Z M30,12 L26,12 L26,10 L30,10 L30,12 Z M30,12 L32,12 L32,14 L30,14 L30,12 Z M24,14 L26,14 L26,16 L24,16 L24,14 Z M32,14 L34,14 L34,16 L32,16 L32,14 Z M32,18 L26,18 L26,16 L32,16 L32,18 Z" id="形状"></path>
                    <path d="M36,6 L38,6 L38,16 L36,16 L36,6 Z M38,16 L42,16 L42,18 L38,18 L38,16 Z M44,6 L46,6 L46,18 L44,18 L44,16 L42,16 L42,14 L44,14 L44,6 Z" id="形状"></path>
                    <path d="M56,8 L50,8 L50,6 L56,6 L56,8 Z M48,12 L50,12 L50,16 L48,16 L48,12 Z M58,18 L50,18 L50,16 L56,16 L56,12 L50,12 L50,10 L56,10 L56,8 L58,8 L58,18 Z" id="形状"></path>
                    <polygon id="路径" points="62 2 60 2 60 0 64 0 64 16 66 16 66 18 62 18"></polygon>
                    <path d="M84,4 L86,4 L86,8 L84,8 L84,4 Z M86,8 L88,8 L88,12 L86,12 L86,8 Z M80,0 L82,0 L82,2 L84,2 L84,4 L82,4 L82,18 L80,18 L80,0 Z M90,0 L92,0 L92,18 L90,18 L90,16 L88,16 L88,12 L90,12 L90,0 Z" id="形状"></path>
                    <path d="M102,8 L96,8 L96,6 L102,6 L102,8 Z M94,8 L96,8 L96,16 L94,16 L94,8 Z M102,8 L104,8 L104,16 L102,16 L102,8 Z M102,18 L96,18 L96,16 L102,16 L102,18 Z" id="形状"></path>
                    <path d="M106,6 L108,6 L108,10 L106,10 L106,6 Z M114,6 L116,6 L116,10 L114,10 L114,6 Z M108,10 L110,10 L110,14 L108,14 L108,10 Z M112,10 L114,10 L114,14 L112,14 L112,10 Z M110,14 L112,14 L112,18 L110,18 L110,14 Z" id="形状"></path>
                    <path d="M126,8 L120,8 L120,6 L126,6 L126,8 Z M128,12 L120,12 L120,16 L118,16 L118,8 L120,8 L120,10 L126,10 L126,8 L128,8 L128,12 Z M126,14 L128,14 L128,16 L126,16 L126,14 Z M126,18 L120,18 L120,16 L126,16 L126,18 Z" id="形状"></path>
                    <polygon id="路径" points="132 2 130 2 130 0 134 0 134 16 136 16 136 18 132 18"></polygon>
                    <path d="M160,2 L154,2 L154,0 L160,0 L160,2 Z M152,2 L154,2 L154,4 L152,4 L152,2 Z M160,2 L162,2 L162,4 L160,4 L160,2 Z M150,4 L152,4 L152,14 L150,14 L150,4 Z M152,14 L154,14 L154,16 L152,16 L152,14 Z M158,10 L162,10 L162,18 L154,18 L154,16 L160,16 L160,12 L158,12 L158,10 Z" id="形状"></path>
                    <path d="M172,8 L166,8 L166,6 L172,6 L172,8 Z M164,12 L166,12 L166,16 L164,16 L164,12 Z M174,18 L166,18 L166,16 L172,16 L172,12 L166,12 L166,10 L172,10 L172,8 L174,8 L174,18 Z" id="形状"></path>
                    <path d="M184,6 L188,6 L188,8 L184,8 L184,6 Z M176,6 L182,6 L182,8 L178,8 L178,18 L176,18 L176,6 Z M182,8 L184,8 L184,18 L182,18 L182,8 Z M188,8 L190,8 L190,18 L188,18 L188,8 Z" id="形状"></path>
                    <path d="M200,8 L194,8 L194,6 L200,6 L200,8 Z M202,12 L194,12 L194,16 L192,16 L192,8 L194,8 L194,10 L200,10 L200,8 L202,8 L202,12 Z M200,14 L202,14 L202,16 L200,16 L200,14 Z M200,18 L194,18 L194,16 L200,16 L200,18 Z" id="形状"></path>
                    <path d="M212,8 L206,8 L206,6 L212,6 L212,8 Z M204,8 L206,8 L206,10 L204,10 L204,8 Z M212,8 L214,8 L214,10 L212,10 L212,8 Z M210,12 L206,12 L206,10 L210,10 L210,12 Z M210,12 L212,12 L212,14 L210,14 L210,12 Z M204,14 L206,14 L206,16 L204,16 L204,14 Z M212,14 L214,14 L214,16 L212,16 L212,14 Z M212,18 L206,18 L206,16 L212,16 L212,18 Z" id="形状"></path>
                    <polygon id="路径" points="228 0 240 0 240 2 230 2 230 8 238 8 238 10 230 10 230 16 240 16 240 18 228 18"></polygon>
                    <path d="M250,8 L246,8 L246,6 L250,6 L250,8 Z M242,6 L244,6 L244,8 L246,8 L246,10 L244,10 L244,18 L242,18 L242,6 Z M250,8 L252,8 L252,18 L250,18 L250,8 Z" id="形状"></path>
                    <path d="M254,8 L256,8 L256,16 L254,16 L254,8 Z M262,8 L256,8 L256,6 L264,6 L264,20 L262,20 L262,18 L256,18 L256,16 L262,16 L262,8 Z M262,20 L262,22 L256,22 L256,20 L262,20 Z" id="形状"></path>
                    <path d="M268,0 L270,0 L270,2 L268,2 L268,0 Z M268,8 L266,8 L266,6 L270,6 L270,16 L272,16 L272,18 L266,18 L266,16 L268,16 L268,8 Z" id="形状"></path>
                    <path d="M282,8 L278,8 L278,6 L282,6 L282,8 Z M274,6 L276,6 L276,8 L278,8 L278,10 L276,10 L276,18 L274,18 L274,6 Z M282,8 L284,8 L284,18 L282,18 L282,8 Z" id="形状"></path>
                    <path d="M294,8 L288,8 L288,6 L294,6 L294,8 Z M296,12 L288,12 L288,16 L286,16 L286,8 L288,8 L288,10 L294,10 L294,8 L296,8 L296,12 Z M294,14 L296,14 L296,16 L294,16 L294,14 Z M294,18 L288,18 L288,16 L294,16 L294,18 Z" id="形状"></path>
                </g>
            </g>
        </g>
    </g>
</svg>