<?xml version="1.0" encoding="UTF-8"?>
<svg width="372px" height="40px" viewBox="0 0 372 40" version="1.1" xmlns="http://www.w3.org/2000/svg" xmlns:xlink="http://www.w3.org/1999/xlink">
    <title>openbor</title>
    <g id="system-list" stroke="none" stroke-width="1" fill="none" fill-rule="evenodd">
        <g id="画板" transform="translate(0, -3744)">
            <g id="openbor" transform="translate(0, 3744)">
                <rect id="矩形备份-6" x="0" y="0" width="372" height="40"></rect>
                <g id="OpenBOR" transform="translate(24, 0)" fill="#FFFFFF" fill-rule="nonzero">
                    <path d="M10,2 L4,2 L4,0 L10,0 L10,2 Z M2,2 L4,2 L4,4 L2,4 L2,2 Z M10,2 L12,2 L12,4 L10,4 L10,2 Z M0,4 L2,4 L2,14 L0,14 L0,4 Z M12,4 L14,4 L14,14 L12,14 L12,4 Z M2,14 L4,14 L4,16 L2,16 L2,14 Z M10,14 L12,14 L12,16 L10,16 L10,14 Z M10,16 L10,18 L4,18 L4,16 L10,16 Z" id="形状"></path>
                    <path d="M24,8 L26,8 L26,16 L24,16 L24,8 Z M24,8 L18,8 L18,16 L24,16 L24,18 L18,18 L18,22 L16,22 L16,6 L24,6 L24,8 Z" id="形状"></path>
                    <path d="M36,8 L30,8 L30,6 L36,6 L36,8 Z M38,12 L30,12 L30,16 L28,16 L28,8 L30,8 L30,10 L36,10 L36,8 L38,8 L38,12 Z M36,14 L38,14 L38,16 L36,16 L36,14 Z M36,18 L30,18 L30,16 L36,16 L36,18 Z" id="形状"></path>
                    <path d="M48,8 L44,8 L44,6 L48,6 L48,8 Z M40,6 L42,6 L42,8 L44,8 L44,10 L42,10 L42,18 L40,18 L40,6 Z M48,8 L50,8 L50,18 L48,18 L48,8 Z" id="形状"></path>
                    <path d="M62,2 L64,2 L64,8 L62,8 L62,2 Z M62,10 L64,10 L64,16 L62,16 L62,10 Z M52,0 L62,0 L62,2 L54,2 L54,8 L62,8 L62,10 L54,10 L54,16 L62,16 L62,18 L52,18 L52,0 Z" id="形状"></path>
                    <path d="M76,2 L70,2 L70,0 L76,0 L76,2 Z M68,2 L70,2 L70,4 L68,4 L68,2 Z M76,2 L78,2 L78,4 L76,4 L76,2 Z M66,4 L68,4 L68,14 L66,14 L66,4 Z M78,4 L80,4 L80,14 L78,14 L78,4 Z M68,14 L70,14 L70,16 L68,16 L68,14 Z M76,14 L78,14 L78,16 L76,16 L76,14 Z M76,16 L76,18 L70,18 L70,16 L76,16 Z" id="形状"></path>
                    <path d="M92,2 L94,2 L94,8 L92,8 L92,2 Z M88,12 L90,12 L90,14 L88,14 L88,12 Z M90,14 L92,14 L92,16 L90,16 L90,14 Z M82,0 L92,0 L92,2 L84,2 L84,8 L92,8 L92,10 L88,10 L88,12 L86,12 L86,10 L84,10 L84,18 L82,18 L82,0 Z M92,16 L94,16 L94,18 L92,18 L92,16 Z" id="形状"></path>
                </g>
            </g>
        </g>
    </g>
</svg>