<?xml version="1.0" encoding="UTF-8"?>
<svg width="372px" height="40px" viewBox="0 0 372 40" version="1.1" xmlns="http://www.w3.org/2000/svg" xmlns:xlink="http://www.w3.org/1999/xlink">
    <title>palm</title>
    <g id="system-list" stroke="none" stroke-width="1" fill="none" fill-rule="evenodd">
        <g id="画板" transform="translate(0, -3788)">
            <g id="palm" transform="translate(0, 3788)">
                <rect id="矩形备份-6" x="0" y="0" width="372" height="40"></rect>
                <g id="Palm-OS" transform="translate(24, 0)" fill="#FFFFFF" fill-rule="nonzero">
                    <path d="M10,2 L12,2 L12,8 L10,8 L10,2 Z M0,0 L10,0 L10,2 L2,2 L2,8 L10,8 L10,10 L2,10 L2,18 L0,18 L0,0 Z" id="形状"></path>
                    <path d="M22,8 L16,8 L16,6 L22,6 L22,8 Z M14,12 L16,12 L16,16 L14,16 L14,12 Z M24,18 L16,18 L16,16 L22,16 L22,12 L16,12 L16,10 L22,10 L22,8 L24,8 L24,18 Z" id="形状"></path>
                    <polygon id="路径" points="28 2 26 2 26 0 30 0 30 16 32 16 32 18 28 18"></polygon>
                    <path d="M42,6 L46,6 L46,8 L42,8 L42,6 Z M34,6 L40,6 L40,8 L36,8 L36,18 L34,18 L34,6 Z M40,8 L42,8 L42,18 L40,18 L40,8 Z M46,8 L48,8 L48,18 L46,18 L46,8 Z" id="形状"></path>
                    <path d="M72,2 L66,2 L66,0 L72,0 L72,2 Z M64,2 L66,2 L66,4 L64,4 L64,2 Z M72,2 L74,2 L74,4 L72,4 L72,2 Z M62,4 L64,4 L64,14 L62,14 L62,4 Z M74,4 L76,4 L76,14 L74,14 L74,4 Z M64,14 L66,14 L66,16 L64,16 L64,14 Z M72,14 L74,14 L74,16 L72,16 L72,14 Z M72,16 L72,18 L66,18 L66,16 L72,16 Z" id="形状"></path>
                    <path d="M88,2 L80,2 L80,0 L88,0 L88,2 Z M88,2 L90,2 L90,4 L88,4 L88,2 Z M78,2 L80,2 L80,6 L78,6 L78,2 Z M80,6 L82,6 L82,8 L80,8 L80,6 Z M82,8 L86,8 L86,10 L82,10 L82,8 Z M86,10 L88,10 L88,12 L86,12 L86,10 Z M78,14 L80,14 L80,16 L78,16 L78,14 Z M88,12 L90,12 L90,16 L88,16 L88,12 Z M88,16 L88,18 L80,18 L80,16 L88,16 Z" id="形状"></path>
                </g>
            </g>
        </g>
    </g>
</svg>