<?xml version="1.0" encoding="UTF-8"?>
<svg width="372px" height="40px" viewBox="0 0 372 40" version="1.1" xmlns="http://www.w3.org/2000/svg" xmlns:xlink="http://www.w3.org/1999/xlink">
    <title>pc88</title>
    <g id="system-list" stroke="none" stroke-width="1" fill="none" fill-rule="evenodd">
        <g id="画板" transform="translate(0, -3832)">
            <g id="pc88" transform="translate(0, 3832)">
                <rect id="矩形备份-6" x="0" y="0" width="372" height="40"></rect>
                <g id="NEC-PC-88" transform="translate(24, 0)" fill="#FFFFFF" fill-rule="nonzero">
                    <path d="M4,4 L6,4 L6,8 L4,8 L4,4 Z M6,8 L8,8 L8,12 L6,12 L6,8 Z M0,0 L2,0 L2,2 L4,2 L4,4 L2,4 L2,18 L0,18 L0,0 Z M10,0 L12,0 L12,18 L10,18 L10,16 L8,16 L8,12 L10,12 L10,0 Z" id="形状"></path>
                    <polygon id="路径" points="14 0 26 0 26 2 16 2 16 8 24 8 24 10 16 10 16 16 26 16 26 18 14 18"></polygon>
                    <path d="M38,2 L32,2 L32,0 L38,0 L38,2 Z M30,2 L32,2 L32,4 L30,4 L30,2 Z M38,2 L40,2 L40,4 L38,4 L38,2 Z M28,4 L30,4 L30,14 L28,14 L28,4 Z M30,14 L32,14 L32,16 L30,16 L30,14 Z M38,14 L40,14 L40,16 L38,16 L38,14 Z M38,16 L38,18 L32,18 L32,16 L38,16 Z" id="形状"></path>
                    <path d="M64,2 L66,2 L66,8 L64,8 L64,2 Z M54,0 L64,0 L64,2 L56,2 L56,8 L64,8 L64,10 L56,10 L56,18 L54,18 L54,0 Z" id="形状"></path>
                    <path d="M78,2 L72,2 L72,0 L78,0 L78,2 Z M70,2 L72,2 L72,4 L70,4 L70,2 Z M78,2 L80,2 L80,4 L78,4 L78,2 Z M68,4 L70,4 L70,14 L68,14 L68,4 Z M70,14 L72,14 L72,16 L70,16 L70,14 Z M78,14 L80,14 L80,16 L78,16 L78,14 Z M78,16 L78,18 L72,18 L72,16 L78,16 Z" id="形状"></path>
                    <polygon id="路径" points="92 8 92 10 82 10 82 8"></polygon>
                    <path d="M102,0 L102,2 L96,2 L96,0 L102,0 Z M94,2 L96,2 L96,8 L94,8 L94,2 Z M102,2 L104,2 L104,8 L102,8 L102,2 Z M102,8 L102,10 L96,10 L96,8 L102,8 Z M94,10 L96,10 L96,16 L94,16 L94,10 Z M102,10 L104,10 L104,16 L102,16 L102,10 Z M102,18 L96,18 L96,16 L102,16 L102,18 Z" id="形状"></path>
                    <path d="M114,0 L114,2 L108,2 L108,0 L114,0 Z M106,2 L108,2 L108,8 L106,8 L106,2 Z M114,2 L116,2 L116,8 L114,8 L114,2 Z M114,8 L114,10 L108,10 L108,8 L114,8 Z M106,10 L108,10 L108,16 L106,16 L106,10 Z M114,10 L116,10 L116,16 L114,16 L114,10 Z M114,18 L108,18 L108,16 L114,16 L114,18 Z" id="形状"></path>
                </g>
            </g>
        </g>
    </g>
</svg>