<?xml version="1.0" encoding="UTF-8"?>
<svg width="372px" height="40px" viewBox="0 0 372 40" version="1.1" xmlns="http://www.w3.org/2000/svg" xmlns:xlink="http://www.w3.org/1999/xlink">
    <title>pico-8</title>
    <g id="system-list" stroke="none" stroke-width="1" fill="none" fill-rule="evenodd">
        <g id="pico-8">
            <rect id="矩形备份-6" x="0" y="0" width="372" height="40"></rect>
            <g id="Pico-8" transform="translate(24, 0)" fill="#FFFFFF" fill-rule="nonzero">
                <path d="M10,2 L12,2 L12,8 L10,8 L10,2 Z M0,0 L10,0 L10,2 L2,2 L2,8 L10,8 L10,10 L2,10 L2,18 L0,18 L0,0 Z" id="形状"></path>
                <path d="M16,0 L18,0 L18,2 L16,2 L16,0 Z M16,8 L14,8 L14,6 L18,6 L18,16 L20,16 L20,18 L14,18 L14,16 L16,16 L16,8 Z" id="形状"></path>
                <path d="M30,8 L24,8 L24,6 L30,6 L30,8 Z M30,8 L32,8 L32,10 L30,10 L30,8 Z M22,8 L24,8 L24,16 L22,16 L22,8 Z M30,14 L32,14 L32,16 L30,16 L30,14 Z M30,18 L24,18 L24,16 L30,16 L30,18 Z" id="形状"></path>
                <path d="M42,8 L36,8 L36,6 L42,6 L42,8 Z M34,8 L36,8 L36,16 L34,16 L34,8 Z M42,8 L44,8 L44,16 L42,16 L42,8 Z M42,18 L36,18 L36,16 L42,16 L42,18 Z" id="形状"></path>
                <polygon id="路径" points="56 8 56 10 46 10 46 8"></polygon>
                <path d="M66,0 L66,2 L60,2 L60,0 L66,0 Z M58,2 L60,2 L60,8 L58,8 L58,2 Z M66,2 L68,2 L68,8 L66,8 L66,2 Z M66,8 L66,10 L60,10 L60,8 L66,8 Z M58,10 L60,10 L60,16 L58,16 L58,10 Z M66,10 L68,10 L68,16 L66,16 L66,10 Z M66,18 L60,18 L60,16 L66,16 L66,18 Z" id="形状"></path>
            </g>
        </g>
    </g>
</svg>