<?xml version="1.0" encoding="UTF-8"?>
<svg width="372px" height="42px" viewBox="0 0 372 42" version="1.1" xmlns="http://www.w3.org/2000/svg" xmlns:xlink="http://www.w3.org/1999/xlink">
    <title>piece</title>
    <g id="system-list" stroke="none" stroke-width="1" fill="none" fill-rule="evenodd">
        <g id="piece">
            <rect id="矩形备份-6" x="0" y="2" width="372" height="40"></rect>
            <g id="Aquaplus-P/ECE" transform="translate(24, 0)" fill="#FFFFFF" fill-rule="nonzero">
                <path d="M6,2 L8,2 L8,6 L6,6 L6,2 Z M4,6 L6,6 L6,10 L4,10 L4,6 Z M8,6 L10,6 L10,10 L8,10 L8,6 Z M10,12 L10,10 L12,10 L12,16 L10,16 L10,14 L4,14 L4,16 L2,16 L2,10 L4,10 L4,12 L10,12 Z M0,16 L2,16 L2,20 L0,20 L0,16 Z M12,16 L14,16 L14,20 L12,20 L12,16 Z" id="形状"></path>
                <path d="M16,10 L18,10 L18,18 L16,18 L16,10 Z M24,10 L18,10 L18,8 L26,8 L26,24 L24,24 L24,20 L18,20 L18,18 L24,18 L24,10 Z" id="形状"></path>
                <path d="M28,8 L30,8 L30,18 L28,18 L28,8 Z M30,18 L34,18 L34,20 L30,20 L30,18 Z M36,8 L38,8 L38,20 L36,20 L36,18 L34,18 L34,16 L36,16 L36,8 Z" id="形状"></path>
                <path d="M48,10 L42,10 L42,8 L48,8 L48,10 Z M40,14 L42,14 L42,18 L40,18 L40,14 Z M50,20 L42,20 L42,18 L48,18 L48,14 L42,14 L42,12 L48,12 L48,10 L50,10 L50,20 Z" id="形状"></path>
                <path d="M60,10 L62,10 L62,18 L60,18 L60,10 Z M60,10 L54,10 L54,18 L60,18 L60,20 L54,20 L54,24 L52,24 L52,8 L60,8 L60,10 Z" id="形状"></path>
                <polygon id="路径" points="66 4 64 4 64 2 68 2 68 18 70 18 70 20 66 20"></polygon>
                <path d="M72,8 L74,8 L74,18 L72,18 L72,8 Z M74,18 L78,18 L78,20 L74,20 L74,18 Z M80,8 L82,8 L82,20 L80,20 L80,18 L78,18 L78,16 L80,16 L80,8 Z" id="形状"></path>
                <path d="M92,10 L86,10 L86,8 L92,8 L92,10 Z M84,10 L86,10 L86,12 L84,12 L84,10 Z M92,10 L94,10 L94,12 L92,12 L92,10 Z M90,14 L86,14 L86,12 L90,12 L90,14 Z M90,14 L92,14 L92,16 L90,16 L90,14 Z M84,16 L86,16 L86,18 L84,18 L84,16 Z M92,16 L94,16 L94,18 L92,18 L92,16 Z M92,20 L86,20 L86,18 L92,18 L92,20 Z" id="形状"></path>
                <path d="M118,4 L120,4 L120,10 L118,10 L118,4 Z M108,2 L118,2 L118,4 L110,4 L110,10 L118,10 L118,12 L110,12 L110,20 L108,20 L108,2 Z" id="形状"></path>
                <path d="M130,0 L132,0 L132,4 L130,4 L130,0 Z M128,4 L130,4 L130,8 L128,8 L128,4 Z M126,8 L128,8 L128,14 L126,14 L126,8 Z M124,14 L126,14 L126,18 L124,18 L124,14 Z M122,18 L124,18 L124,22 L122,22 L122,18 Z" id="形状"></path>
                <polygon id="路径" points="134 2 146 2 146 4 136 4 136 10 144 10 144 12 136 12 136 18 146 18 146 20 134 20"></polygon>
                <path d="M158,4 L152,4 L152,2 L158,2 L158,4 Z M150,4 L152,4 L152,6 L150,6 L150,4 Z M158,4 L160,4 L160,6 L158,6 L158,4 Z M148,6 L150,6 L150,16 L148,16 L148,6 Z M150,16 L152,16 L152,18 L150,18 L150,16 Z M158,16 L160,16 L160,18 L158,18 L158,16 Z M158,18 L158,20 L152,20 L152,18 L158,18 Z" id="形状"></path>
                <polygon id="路径" points="162 2 174 2 174 4 164 4 164 10 172 10 172 12 164 12 164 18 174 18 174 20 162 20"></polygon>
            </g>
        </g>
    </g>
</svg>