<?xml version="1.0" encoding="UTF-8"?>
<svg width="372px" height="40px" viewBox="0 0 372 40" version="1.1" xmlns="http://www.w3.org/2000/svg" xmlns:xlink="http://www.w3.org/1999/xlink">
    <title>pokemonmini</title>
    <g id="system-list" stroke="none" stroke-width="1" fill="none" fill-rule="evenodd">
        <g id="pokemonmini">
            <rect id="矩形备份-6" x="0" y="0" width="372" height="40"></rect>
            <g id="Pokemon-Mini" transform="translate(24, 0)" fill="#FFFFFF" fill-rule="nonzero">
                <path d="M10,2 L12,2 L12,8 L10,8 L10,2 Z M0,0 L10,0 L10,2 L2,2 L2,8 L10,8 L10,10 L2,10 L2,18 L0,18 L0,0 Z" id="形状"></path>
                <path d="M22,8 L16,8 L16,6 L22,6 L22,8 Z M14,8 L16,8 L16,16 L14,16 L14,8 Z M22,8 L24,8 L24,16 L22,16 L22,8 Z M22,18 L16,18 L16,16 L22,16 L22,18 Z" id="形状"></path>
                <path d="M34,6 L36,6 L36,8 L34,8 L34,6 Z M30,8 L34,8 L34,10 L30,10 L30,8 Z M30,12 L32,12 L32,14 L30,14 L30,12 Z M32,14 L34,14 L34,16 L32,16 L32,14 Z M26,0 L28,0 L28,10 L30,10 L30,12 L28,12 L28,18 L26,18 L26,0 Z M34,16 L36,16 L36,18 L34,18 L34,16 Z" id="形状"></path>
                <path d="M46,8 L40,8 L40,6 L46,6 L46,8 Z M48,12 L40,12 L40,16 L38,16 L38,8 L40,8 L40,10 L46,10 L46,8 L48,8 L48,12 Z M46,14 L48,14 L48,16 L46,16 L46,14 Z M46,18 L40,18 L40,16 L46,16 L46,18 Z" id="形状"></path>
                <path d="M58,6 L62,6 L62,8 L58,8 L58,6 Z M50,6 L56,6 L56,8 L52,8 L52,18 L50,18 L50,6 Z M56,8 L58,8 L58,18 L56,18 L56,8 Z M62,8 L64,8 L64,18 L62,18 L62,8 Z" id="形状"></path>
                <path d="M74,8 L68,8 L68,6 L74,6 L74,8 Z M66,8 L68,8 L68,16 L66,16 L66,8 Z M74,8 L76,8 L76,16 L74,16 L74,8 Z M74,18 L68,18 L68,16 L74,16 L74,18 Z" id="形状"></path>
                <path d="M86,8 L82,8 L82,6 L86,6 L86,8 Z M78,6 L80,6 L80,8 L82,8 L82,10 L80,10 L80,18 L78,18 L78,6 Z M86,8 L88,8 L88,18 L86,18 L86,8 Z" id="形状"></path>
                <path d="M106,6 L108,6 L108,10 L106,10 L106,6 Z M114,6 L116,6 L116,10 L114,10 L114,6 Z M108,10 L110,10 L110,14 L108,14 L108,10 Z M112,10 L114,10 L114,14 L112,14 L112,10 Z M102,0 L104,0 L104,2 L106,2 L106,6 L104,6 L104,18 L102,18 L102,0 Z M110,14 L112,14 L112,18 L110,18 L110,14 Z M118,6 L116,6 L116,2 L118,2 L118,0 L120,0 L120,18 L118,18 L118,6 Z" id="形状"></path>
                <path d="M124,0 L126,0 L126,2 L124,2 L124,0 Z M124,8 L122,8 L122,6 L126,6 L126,16 L128,16 L128,18 L122,18 L122,16 L124,16 L124,8 Z" id="形状"></path>
                <path d="M138,8 L134,8 L134,6 L138,6 L138,8 Z M130,6 L132,6 L132,8 L134,8 L134,10 L132,10 L132,18 L130,18 L130,6 Z M138,8 L140,8 L140,18 L138,18 L138,8 Z" id="形状"></path>
                <path d="M144,0 L146,0 L146,2 L144,2 L144,0 Z M144,8 L142,8 L142,6 L146,6 L146,16 L148,16 L148,18 L142,18 L142,16 L144,16 L144,8 Z" id="形状"></path>
            </g>
        </g>
    </g>
</svg>