<?xml version="1.0" encoding="UTF-8"?>
<svg width="372px" height="40px" viewBox="0 0 372 40" version="1.1" xmlns="http://www.w3.org/2000/svg" xmlns:xlink="http://www.w3.org/1999/xlink">
    <title>psp</title>
    <g id="system-list" stroke="none" stroke-width="1" fill="none" fill-rule="evenodd">
        <g id="psp">
            <rect id="矩形备份-6" x="0" y="0" width="372" height="40"></rect>
            <g id="PlayStation-Portable" transform="translate(24, 0)" fill="#FFFFFF" fill-rule="nonzero">
                <path d="M10,2 L12,2 L12,8 L10,8 L10,2 Z M0,0 L10,0 L10,2 L2,2 L2,8 L10,8 L10,10 L2,10 L2,18 L0,18 L0,0 Z" id="形状"></path>
                <polygon id="路径" points="16 2 14 2 14 0 18 0 18 16 20 16 20 18 16 18"></polygon>
                <path d="M30,8 L24,8 L24,6 L30,6 L30,8 Z M22,12 L24,12 L24,16 L22,16 L22,12 Z M32,18 L24,18 L24,16 L30,16 L30,12 L24,12 L24,10 L30,10 L30,8 L32,8 L32,18 Z" id="形状"></path>
                <path d="M34,6 L36,6 L36,12 L34,12 L34,6 Z M42,6 L44,6 L44,12 L42,12 L42,6 Z M36,12 L38,12 L38,16 L36,16 L36,12 Z M40,12 L42,12 L42,16 L40,16 L40,12 Z M38,16 L40,16 L40,20 L38,20 L38,16 Z M34,20 L38,20 L38,22 L34,22 L34,20 Z" id="形状"></path>
                <path d="M56,2 L48,2 L48,0 L56,0 L56,2 Z M56,2 L58,2 L58,4 L56,4 L56,2 Z M46,2 L48,2 L48,6 L46,6 L46,2 Z M48,6 L50,6 L50,8 L48,8 L48,6 Z M50,8 L54,8 L54,10 L50,10 L50,8 Z M54,10 L56,10 L56,12 L54,12 L54,10 Z M46,14 L48,14 L48,16 L46,16 L46,14 Z M56,12 L58,12 L58,16 L56,16 L56,12 Z M56,16 L56,18 L48,18 L48,16 L56,16 Z" id="形状"></path>
                <path d="M62,8 L60,8 L60,6 L62,6 L62,0 L64,0 L64,6 L68,6 L68,8 L64,8 L64,16 L62,16 L62,8 Z M68,18 L64,18 L64,16 L68,16 L68,18 Z" id="形状"></path>
                <path d="M78,8 L72,8 L72,6 L78,6 L78,8 Z M70,12 L72,12 L72,16 L70,16 L70,12 Z M80,18 L72,18 L72,16 L78,16 L78,12 L72,12 L72,10 L78,10 L78,8 L80,8 L80,18 Z" id="形状"></path>
                <path d="M84,8 L82,8 L82,6 L84,6 L84,0 L86,0 L86,6 L90,6 L90,8 L86,8 L86,16 L84,16 L84,8 Z M90,18 L86,18 L86,16 L90,16 L90,18 Z" id="形状"></path>
                <path d="M94,0 L96,0 L96,2 L94,2 L94,0 Z M94,8 L92,8 L92,6 L96,6 L96,16 L98,16 L98,18 L92,18 L92,16 L94,16 L94,8 Z" id="形状"></path>
                <path d="M108,8 L102,8 L102,6 L108,6 L108,8 Z M100,8 L102,8 L102,16 L100,16 L100,8 Z M108,8 L110,8 L110,16 L108,16 L108,8 Z M108,18 L102,18 L102,16 L108,16 L108,18 Z" id="形状"></path>
                <path d="M120,8 L116,8 L116,6 L120,6 L120,8 Z M112,6 L114,6 L114,8 L116,8 L116,10 L114,10 L114,18 L112,18 L112,6 Z M120,8 L122,8 L122,18 L120,18 L120,8 Z" id="形状"></path>
                <path d="M146,2 L148,2 L148,8 L146,8 L146,2 Z M136,0 L146,0 L146,2 L138,2 L138,8 L146,8 L146,10 L138,10 L138,18 L136,18 L136,0 Z" id="形状"></path>
                <path d="M158,8 L152,8 L152,6 L158,6 L158,8 Z M150,8 L152,8 L152,16 L150,16 L150,8 Z M158,8 L160,8 L160,16 L158,16 L158,8 Z M158,18 L152,18 L152,16 L158,16 L158,18 Z" id="形状"></path>
                <path d="M170,8 L166,8 L166,6 L170,6 L170,8 Z M162,6 L164,6 L164,8 L166,8 L166,10 L164,10 L164,18 L162,18 L162,6 Z" id="形状"></path>
                <path d="M174,8 L172,8 L172,6 L174,6 L174,0 L176,0 L176,6 L180,6 L180,8 L176,8 L176,16 L174,16 L174,8 Z M180,18 L176,18 L176,16 L180,16 L180,18 Z" id="形状"></path>
                <path d="M190,8 L184,8 L184,6 L190,6 L190,8 Z M182,12 L184,12 L184,16 L182,16 L182,12 Z M192,18 L184,18 L184,16 L190,16 L190,12 L184,12 L184,10 L190,10 L190,8 L192,8 L192,18 Z" id="形状"></path>
                <path d="M202,8 L204,8 L204,16 L202,16 L202,8 Z M194,0 L196,0 L196,6 L202,6 L202,8 L196,8 L196,16 L202,16 L202,18 L194,18 L194,0 Z" id="形状"></path>
                <polygon id="路径" points="208 2 206 2 206 0 210 0 210 16 212 16 212 18 208 18"></polygon>
                <path d="M222,8 L216,8 L216,6 L222,6 L222,8 Z M224,12 L216,12 L216,16 L214,16 L214,8 L216,8 L216,10 L222,10 L222,8 L224,8 L224,12 Z M222,14 L224,14 L224,16 L222,16 L222,14 Z M222,18 L216,18 L216,16 L222,16 L222,18 Z" id="形状"></path>
            </g>
        </g>
    </g>
</svg>