<?xml version="1.0" encoding="UTF-8"?>
<svg width="372px" height="40px" viewBox="0 0 372 40" version="1.1" xmlns="http://www.w3.org/2000/svg" xmlns:xlink="http://www.w3.org/1999/xlink">
    <title>pspminis</title>
    <g id="system-list" stroke="none" stroke-width="1" fill="none" fill-rule="evenodd">
        <g id="pspminis">
            <rect id="矩形备份-6" x="0" y="0" width="372" height="40"></rect>
            <g id="Playstation-Portable" transform="translate(24, 0)" fill="#FFFFFF" fill-rule="nonzero">
                <path d="M10,2 L12,2 L12,8 L10,8 L10,2 Z M0,0 L10,0 L10,2 L2,2 L2,8 L10,8 L10,10 L2,10 L2,18 L0,18 L0,0 Z" id="形状"></path>
                <polygon id="路径" points="16 2 14 2 14 0 18 0 18 16 20 16 20 18 16 18"></polygon>
                <path d="M30,8 L24,8 L24,6 L30,6 L30,8 Z M22,12 L24,12 L24,16 L22,16 L22,12 Z M32,18 L24,18 L24,16 L30,16 L30,12 L24,12 L24,10 L30,10 L30,8 L32,8 L32,18 Z" id="形状"></path>
                <path d="M34,6 L36,6 L36,12 L34,12 L34,6 Z M42,6 L44,6 L44,12 L42,12 L42,6 Z M36,12 L38,12 L38,16 L36,16 L36,12 Z M40,12 L42,12 L42,16 L40,16 L40,12 Z M38,16 L40,16 L40,20 L38,20 L38,16 Z M34,20 L38,20 L38,22 L34,22 L34,20 Z" id="形状"></path>
                <path d="M54,8 L48,8 L48,6 L54,6 L54,8 Z M46,8 L48,8 L48,10 L46,10 L46,8 Z M54,8 L56,8 L56,10 L54,10 L54,8 Z M52,12 L48,12 L48,10 L52,10 L52,12 Z M52,12 L54,12 L54,14 L52,14 L52,12 Z M46,14 L48,14 L48,16 L46,16 L46,14 Z M54,14 L56,14 L56,16 L54,16 L54,14 Z M54,18 L48,18 L48,16 L54,16 L54,18 Z" id="形状"></path>
                <path d="M60,8 L58,8 L58,6 L60,6 L60,0 L62,0 L62,6 L66,6 L66,8 L62,8 L62,16 L60,16 L60,8 Z M66,18 L62,18 L62,16 L66,16 L66,18 Z" id="形状"></path>
                <path d="M76,8 L70,8 L70,6 L76,6 L76,8 Z M68,12 L70,12 L70,16 L68,16 L68,12 Z M78,18 L70,18 L70,16 L76,16 L76,12 L70,12 L70,10 L76,10 L76,8 L78,8 L78,18 Z" id="形状"></path>
                <path d="M82,8 L80,8 L80,6 L82,6 L82,0 L84,0 L84,6 L88,6 L88,8 L84,8 L84,16 L82,16 L82,8 Z M88,18 L84,18 L84,16 L88,16 L88,18 Z" id="形状"></path>
                <path d="M92,0 L94,0 L94,2 L92,2 L92,0 Z M92,8 L90,8 L90,6 L94,6 L94,16 L96,16 L96,18 L90,18 L90,16 L92,16 L92,8 Z" id="形状"></path>
                <path d="M106,8 L100,8 L100,6 L106,6 L106,8 Z M98,8 L100,8 L100,16 L98,16 L98,8 Z M106,8 L108,8 L108,16 L106,16 L106,8 Z M106,18 L100,18 L100,16 L106,16 L106,18 Z" id="形状"></path>
                <path d="M118,8 L114,8 L114,6 L118,6 L118,8 Z M110,6 L112,6 L112,8 L114,8 L114,10 L112,10 L112,18 L110,18 L110,6 Z M118,8 L120,8 L120,18 L118,18 L118,8 Z" id="形状"></path>
                <path d="M144,2 L146,2 L146,8 L144,8 L144,2 Z M134,0 L144,0 L144,2 L136,2 L136,8 L144,8 L144,10 L136,10 L136,18 L134,18 L134,0 Z" id="形状"></path>
                <path d="M156,8 L150,8 L150,6 L156,6 L156,8 Z M148,8 L150,8 L150,16 L148,16 L148,8 Z M156,8 L158,8 L158,16 L156,16 L156,8 Z M156,18 L150,18 L150,16 L156,16 L156,18 Z" id="形状"></path>
                <path d="M168,8 L164,8 L164,6 L168,6 L168,8 Z M160,6 L162,6 L162,8 L164,8 L164,10 L162,10 L162,18 L160,18 L160,6 Z" id="形状"></path>
                <path d="M172,8 L170,8 L170,6 L172,6 L172,0 L174,0 L174,6 L178,6 L178,8 L174,8 L174,16 L172,16 L172,8 Z M178,18 L174,18 L174,16 L178,16 L178,18 Z" id="形状"></path>
                <path d="M188,8 L182,8 L182,6 L188,6 L188,8 Z M180,12 L182,12 L182,16 L180,16 L180,12 Z M190,18 L182,18 L182,16 L188,16 L188,12 L182,12 L182,10 L188,10 L188,8 L190,8 L190,18 Z" id="形状"></path>
                <path d="M200,8 L202,8 L202,16 L200,16 L200,8 Z M192,0 L194,0 L194,6 L200,6 L200,8 L194,8 L194,16 L200,16 L200,18 L192,18 L192,0 Z" id="形状"></path>
                <polygon id="路径" points="206 2 204 2 204 0 208 0 208 16 210 16 210 18 206 18"></polygon>
                <path d="M220,8 L214,8 L214,6 L220,6 L220,8 Z M222,12 L214,12 L214,16 L212,16 L212,8 L214,8 L214,10 L220,10 L220,8 L222,8 L222,12 Z M220,14 L222,14 L222,16 L220,16 L220,14 Z M220,18 L214,18 L214,16 L220,16 L220,18 Z" id="形状"></path>
                <path d="M240,6 L242,6 L242,10 L240,10 L240,6 Z M248,6 L250,6 L250,10 L248,10 L248,6 Z M242,10 L244,10 L244,14 L242,14 L242,10 Z M246,10 L248,10 L248,14 L246,14 L246,10 Z M236,0 L238,0 L238,2 L240,2 L240,6 L238,6 L238,18 L236,18 L236,0 Z M244,14 L246,14 L246,18 L244,18 L244,14 Z M252,6 L250,6 L250,2 L252,2 L252,0 L254,0 L254,18 L252,18 L252,6 Z" id="形状"></path>
                <path d="M258,0 L260,0 L260,2 L258,2 L258,0 Z M258,8 L256,8 L256,6 L260,6 L260,16 L262,16 L262,18 L256,18 L256,16 L258,16 L258,8 Z" id="形状"></path>
                <path d="M272,8 L268,8 L268,6 L272,6 L272,8 Z M264,6 L266,6 L266,8 L268,8 L268,10 L266,10 L266,18 L264,18 L264,6 Z M272,8 L274,8 L274,18 L272,18 L272,8 Z" id="形状"></path>
                <path d="M278,0 L280,0 L280,2 L278,2 L278,0 Z M278,8 L276,8 L276,6 L280,6 L280,16 L282,16 L282,18 L276,18 L276,16 L278,16 L278,8 Z" id="形状"></path>
                <path d="M292,8 L286,8 L286,6 L292,6 L292,8 Z M284,8 L286,8 L286,10 L284,10 L284,8 Z M292,8 L294,8 L294,10 L292,10 L292,8 Z M290,12 L286,12 L286,10 L290,10 L290,12 Z M290,12 L292,12 L292,14 L290,14 L290,12 Z M284,14 L286,14 L286,16 L284,16 L284,14 Z M292,14 L294,14 L294,16 L292,16 L292,14 Z M292,18 L286,18 L286,16 L292,16 L292,18 Z" id="形状"></path>
            </g>
        </g>
    </g>
</svg>