<?xml version="1.0" encoding="UTF-8"?>
<svg width="372px" height="40px" viewBox="0 0 372 40" version="1.1" xmlns="http://www.w3.org/2000/svg" xmlns:xlink="http://www.w3.org/1999/xlink">
    <title>puzzlescript</title>
    <g id="system-list" stroke="none" stroke-width="1" fill="none" fill-rule="evenodd">
        <g id="puzzlescript">
            <rect id="矩形备份-6" x="0" y="0" width="372" height="40"></rect>
            <g id="PuzzleScript" transform="translate(24, 0)" fill="#FFFFFF" fill-rule="nonzero">
                <path d="M10,2 L12,2 L12,8 L10,8 L10,2 Z M0,0 L10,0 L10,2 L2,2 L2,8 L10,8 L10,10 L2,10 L2,18 L0,18 L0,0 Z" id="形状"></path>
                <path d="M14,6 L16,6 L16,16 L14,16 L14,6 Z M16,16 L20,16 L20,18 L16,18 L16,16 Z M22,6 L24,6 L24,18 L22,18 L22,16 L20,16 L20,14 L22,14 L22,6 Z" id="形状"></path>
                <path d="M36,6 L36,8 L34,8 L34,10 L32,10 L32,8 L26,8 L26,6 L36,6 Z M30,10 L32,10 L32,12 L30,12 L30,10 Z M28,12 L30,12 L30,14 L28,14 L28,12 Z M26,14 L28,14 L28,16 L36,16 L36,18 L26,18 L26,14 Z" id="形状"></path>
                <path d="M48,6 L48,8 L46,8 L46,10 L44,10 L44,8 L38,8 L38,6 L48,6 Z M42,10 L44,10 L44,12 L42,12 L42,10 Z M40,12 L42,12 L42,14 L40,14 L40,12 Z M38,14 L40,14 L40,16 L48,16 L48,18 L38,18 L38,14 Z" id="形状"></path>
                <polygon id="路径" points="52 2 50 2 50 0 54 0 54 16 56 16 56 18 52 18"></polygon>
                <path d="M66,8 L60,8 L60,6 L66,6 L66,8 Z M68,12 L60,12 L60,16 L58,16 L58,8 L60,8 L60,10 L66,10 L66,8 L68,8 L68,12 Z M66,14 L68,14 L68,16 L66,16 L66,14 Z M66,18 L60,18 L60,16 L66,16 L66,18 Z" id="形状"></path>
                <path d="M80,2 L72,2 L72,0 L80,0 L80,2 Z M80,2 L82,2 L82,4 L80,4 L80,2 Z M70,2 L72,2 L72,6 L70,6 L70,2 Z M72,6 L74,6 L74,8 L72,8 L72,6 Z M74,8 L78,8 L78,10 L74,10 L74,8 Z M78,10 L80,10 L80,12 L78,12 L78,10 Z M70,14 L72,14 L72,16 L70,16 L70,14 Z M80,12 L82,12 L82,16 L80,16 L80,12 Z M80,16 L80,18 L72,18 L72,16 L80,16 Z" id="形状"></path>
                <path d="M92,8 L86,8 L86,6 L92,6 L92,8 Z M92,8 L94,8 L94,10 L92,10 L92,8 Z M84,8 L86,8 L86,16 L84,16 L84,8 Z M92,14 L94,14 L94,16 L92,16 L92,14 Z M92,18 L86,18 L86,16 L92,16 L92,18 Z" id="形状"></path>
                <path d="M104,8 L100,8 L100,6 L104,6 L104,8 Z M96,6 L98,6 L98,8 L100,8 L100,10 L98,10 L98,18 L96,18 L96,6 Z" id="形状"></path>
                <path d="M108,0 L110,0 L110,2 L108,2 L108,0 Z M108,8 L106,8 L106,6 L110,6 L110,16 L112,16 L112,18 L106,18 L106,16 L108,16 L108,8 Z" id="形状"></path>
                <path d="M122,8 L124,8 L124,16 L122,16 L122,8 Z M122,8 L116,8 L116,16 L122,16 L122,18 L116,18 L116,22 L114,22 L114,6 L122,6 L122,8 Z" id="形状"></path>
                <path d="M128,8 L126,8 L126,6 L128,6 L128,0 L130,0 L130,6 L134,6 L134,8 L130,8 L130,16 L128,16 L128,8 Z M134,18 L130,18 L130,16 L134,16 L134,18 Z" id="形状"></path>
            </g>
        </g>
    </g>
</svg>