<?xml version="1.0" encoding="UTF-8"?>
<svg width="372px" height="40px" viewBox="0 0 372 40" version="1.1" xmlns="http://www.w3.org/2000/svg" xmlns:xlink="http://www.w3.org/1999/xlink">
    <title>retroarch</title>
    <g id="system-list" stroke="none" stroke-width="1" fill="none" fill-rule="evenodd">
        <g id="retroarch">
            <rect id="矩形备份-6" x="0" y="0" width="372" height="40"></rect>
            <g id="Retroarch" transform="translate(24, 0)" fill="#FFFFFF" fill-rule="nonzero">
                <path d="M10,2 L12,2 L12,8 L10,8 L10,2 Z M6,12 L8,12 L8,14 L6,14 L6,12 Z M8,14 L10,14 L10,16 L8,16 L8,14 Z M0,0 L10,0 L10,2 L2,2 L2,8 L10,8 L10,10 L6,10 L6,12 L4,12 L4,10 L2,10 L2,18 L0,18 L0,0 Z M10,16 L12,16 L12,18 L10,18 L10,16 Z" id="形状"></path>
                <path d="M22,8 L16,8 L16,6 L22,6 L22,8 Z M24,12 L16,12 L16,16 L14,16 L14,8 L16,8 L16,10 L22,10 L22,8 L24,8 L24,12 Z M22,14 L24,14 L24,16 L22,16 L22,14 Z M22,18 L16,18 L16,16 L22,16 L22,18 Z" id="形状"></path>
                <path d="M28,8 L26,8 L26,6 L28,6 L28,0 L30,0 L30,6 L34,6 L34,8 L30,8 L30,16 L28,16 L28,8 Z M34,18 L30,18 L30,16 L34,16 L34,18 Z" id="形状"></path>
                <path d="M44,8 L40,8 L40,6 L44,6 L44,8 Z M36,6 L38,6 L38,8 L40,8 L40,10 L38,10 L38,18 L36,18 L36,6 Z" id="形状"></path>
                <path d="M54,8 L48,8 L48,6 L54,6 L54,8 Z M46,8 L48,8 L48,16 L46,16 L46,8 Z M54,8 L56,8 L56,16 L54,16 L54,8 Z M54,18 L48,18 L48,16 L54,16 L54,18 Z" id="形状"></path>
                <path d="M66,8 L60,8 L60,6 L66,6 L66,8 Z M58,12 L60,12 L60,16 L58,16 L58,12 Z M68,18 L60,18 L60,16 L66,16 L66,12 L60,12 L60,10 L66,10 L66,8 L68,8 L68,18 Z" id="形状"></path>
                <path d="M78,8 L74,8 L74,6 L78,6 L78,8 Z M70,6 L72,6 L72,8 L74,8 L74,10 L72,10 L72,18 L70,18 L70,6 Z" id="形状"></path>
                <path d="M88,8 L82,8 L82,6 L88,6 L88,8 Z M88,8 L90,8 L90,10 L88,10 L88,8 Z M80,8 L82,8 L82,16 L80,16 L80,8 Z M88,14 L90,14 L90,16 L88,16 L88,14 Z M88,18 L82,18 L82,16 L88,16 L88,18 Z" id="形状"></path>
                <path d="M100,8 L96,8 L96,6 L100,6 L100,8 Z M92,0 L94,0 L94,8 L96,8 L96,10 L94,10 L94,18 L92,18 L92,0 Z M100,8 L102,8 L102,18 L100,18 L100,8 Z" id="形状"></path>
            </g>
        </g>
    </g>
</svg>