<?xml version="1.0" encoding="UTF-8"?>
<svg width="372px" height="40px" viewBox="0 0 372 40" version="1.1" xmlns="http://www.w3.org/2000/svg" xmlns:xlink="http://www.w3.org/1999/xlink">
    <title>retropie</title>
    <g id="system-list" stroke="none" stroke-width="1" fill="none" fill-rule="evenodd">
        <g id="retropie">
            <rect id="矩形备份-6" x="0" y="0" width="372" height="40"></rect>
            <g id="Options" transform="translate(24, 0)" fill="#FFFFFF" fill-rule="nonzero">
                <path d="M10,2 L4,2 L4,0 L10,0 L10,2 Z M2,2 L4,2 L4,4 L2,4 L2,2 Z M10,2 L12,2 L12,4 L10,4 L10,2 Z M0,4 L2,4 L2,14 L0,14 L0,4 Z M12,4 L14,4 L14,14 L12,14 L12,4 Z M2,14 L4,14 L4,16 L2,16 L2,14 Z M10,14 L12,14 L12,16 L10,16 L10,14 Z M10,16 L10,18 L4,18 L4,16 L10,16 Z" id="形状"></path>
                <path d="M24,8 L26,8 L26,16 L24,16 L24,8 Z M24,8 L18,8 L18,16 L24,16 L24,18 L18,18 L18,22 L16,22 L16,6 L24,6 L24,8 Z" id="形状"></path>
                <path d="M30,8 L28,8 L28,6 L30,6 L30,0 L32,0 L32,6 L36,6 L36,8 L32,8 L32,16 L30,16 L30,8 Z M36,18 L32,18 L32,16 L36,16 L36,18 Z" id="形状"></path>
                <path d="M40,0 L42,0 L42,2 L40,2 L40,0 Z M40,8 L38,8 L38,6 L42,6 L42,16 L44,16 L44,18 L38,18 L38,16 L40,16 L40,8 Z" id="形状"></path>
                <path d="M54,8 L48,8 L48,6 L54,6 L54,8 Z M46,8 L48,8 L48,16 L46,16 L46,8 Z M54,8 L56,8 L56,16 L54,16 L54,8 Z M54,18 L48,18 L48,16 L54,16 L54,18 Z" id="形状"></path>
                <path d="M66,8 L62,8 L62,6 L66,6 L66,8 Z M58,6 L60,6 L60,8 L62,8 L62,10 L60,10 L60,18 L58,18 L58,6 Z M66,8 L68,8 L68,18 L66,18 L66,8 Z" id="形状"></path>
                <path d="M78,8 L72,8 L72,6 L78,6 L78,8 Z M70,8 L72,8 L72,10 L70,10 L70,8 Z M78,8 L80,8 L80,10 L78,10 L78,8 Z M76,12 L72,12 L72,10 L76,10 L76,12 Z M76,12 L78,12 L78,14 L76,14 L76,12 Z M70,14 L72,14 L72,16 L70,16 L70,14 Z M78,14 L80,14 L80,16 L78,16 L78,14 Z M78,18 L72,18 L72,16 L78,16 L78,18 Z" id="形状"></path>
            </g>
        </g>
    </g>
</svg>