<?xml version="1.0" encoding="UTF-8"?>
<svg width="372px" height="40px" viewBox="0 0 372 40" version="1.1" xmlns="http://www.w3.org/2000/svg" xmlns:xlink="http://www.w3.org/1999/xlink">
    <title>retropie</title>
    <g id="页面-1" stroke="none" stroke-width="1" fill="none" fill-rule="evenodd">
        <g id="home_fusion_prop_logo备份" transform="translate(-96, -188)">
            <g id="BAR" transform="translate(96, 28)">
                <g id="retropie" transform="translate(0, 160)">
                    <rect id="space" x="0" y="0" width="372" height="40"></rect>
                    <g id="SETTINGS" transform="translate(24, 0)" fill="#FFFFFF" fill-rule="nonzero">
                        <path d="M10,2 L2,2 L2,0 L10,0 L10,2 Z M10,2 L12,2 L12,4 L10,4 L10,2 Z M0,2 L2,2 L2,6 L0,6 L0,2 Z M2,6 L4,6 L4,8 L2,8 L2,6 Z M4,8 L8,8 L8,10 L4,10 L4,8 Z M8,10 L10,10 L10,12 L8,12 L8,10 Z M0,14 L2,14 L2,16 L0,16 L0,14 Z M10,12 L12,12 L12,16 L10,16 L10,12 Z M10,16 L10,18 L2,18 L2,16 L10,16 Z" id="形状"></path>
                        <polygon id="路径" points="14 0 26 0 26 2 16 2 16 8 24 8 24 10 16 10 16 16 26 16 26 18 14 18"></polygon>
                        <polygon id="路径" points="34 2 28 2 28 0 42 0 42 2 36 2 36 18 34 18"></polygon>
                        <polygon id="路径" points="50 2 44 2 44 0 58 0 58 2 52 2 52 18 50 18"></polygon>
                        <polygon id="路径" points="62 2 60 2 60 0 66 0 66 2 64 2 64 16 66 16 66 18 60 18 60 16 62 16"></polygon>
                        <path d="M72,4 L74,4 L74,8 L72,8 L72,4 Z M74,8 L76,8 L76,12 L74,12 L74,8 Z M68,0 L70,0 L70,2 L72,2 L72,4 L70,4 L70,18 L68,18 L68,0 Z M78,0 L80,0 L80,18 L78,18 L78,16 L76,16 L76,12 L78,12 L78,0 Z" id="形状"></path>
                        <path d="M92,2 L86,2 L86,0 L92,0 L92,2 Z M84,2 L86,2 L86,4 L84,4 L84,2 Z M92,2 L94,2 L94,4 L92,4 L92,2 Z M82,4 L84,4 L84,14 L82,14 L82,4 Z M84,14 L86,14 L86,16 L84,16 L84,14 Z M90,10 L94,10 L94,18 L86,18 L86,16 L92,16 L92,12 L90,12 L90,10 Z" id="形状"></path>
                        <path d="M106,2 L98,2 L98,0 L106,0 L106,2 Z M106,2 L108,2 L108,4 L106,4 L106,2 Z M96,2 L98,2 L98,6 L96,6 L96,2 Z M98,6 L100,6 L100,8 L98,8 L98,6 Z M100,8 L104,8 L104,10 L100,10 L100,8 Z M104,10 L106,10 L106,12 L104,12 L104,10 Z M96,14 L98,14 L98,16 L96,16 L96,14 Z M106,12 L108,12 L108,16 L106,16 L106,12 Z M106,16 L106,18 L98,18 L98,16 L106,16 Z" id="形状"></path>
                    </g>
                </g>
            </g>
        </g>
    </g>
</svg>