<?xml version="1.0" encoding="UTF-8"?>
<svg width="372px" height="40px" viewBox="0 0 372 40" version="1.1" xmlns="http://www.w3.org/2000/svg" xmlns:xlink="http://www.w3.org/1999/xlink">
    <title>sammy</title>
    <g id="system-list" stroke="none" stroke-width="1" fill="none" fill-rule="evenodd">
        <g id="sammy">
            <rect id="矩形备份-6" x="0" y="0" width="372" height="40"></rect>
            <g id="Sammy" transform="translate(24, 0)" fill="#FFFFFF" fill-rule="nonzero">
                <path d="M10,2 L2,2 L2,0 L10,0 L10,2 Z M10,2 L12,2 L12,4 L10,4 L10,2 Z M0,2 L2,2 L2,6 L0,6 L0,2 Z M2,6 L4,6 L4,8 L2,8 L2,6 Z M4,8 L8,8 L8,10 L4,10 L4,8 Z M8,10 L10,10 L10,12 L8,12 L8,10 Z M0,14 L2,14 L2,16 L0,16 L0,14 Z M10,12 L12,12 L12,16 L10,16 L10,12 Z M10,16 L10,18 L2,18 L2,16 L10,16 Z" id="形状"></path>
                <path d="M22,8 L16,8 L16,6 L22,6 L22,8 Z M14,12 L16,12 L16,16 L14,16 L14,12 Z M24,18 L16,18 L16,16 L22,16 L22,12 L16,12 L16,10 L22,10 L22,8 L24,8 L24,18 Z" id="形状"></path>
                <path d="M34,6 L38,6 L38,8 L34,8 L34,6 Z M26,6 L32,6 L32,8 L28,8 L28,18 L26,18 L26,6 Z M32,8 L34,8 L34,18 L32,18 L32,8 Z M38,8 L40,8 L40,18 L38,18 L38,8 Z" id="形状"></path>
                <path d="M50,6 L54,6 L54,8 L50,8 L50,6 Z M42,6 L48,6 L48,8 L44,8 L44,18 L42,18 L42,6 Z M48,8 L50,8 L50,18 L48,18 L48,8 Z M54,8 L56,8 L56,18 L54,18 L54,8 Z" id="形状"></path>
                <path d="M58,6 L60,6 L60,12 L58,12 L58,6 Z M66,6 L68,6 L68,12 L66,12 L66,6 Z M60,12 L62,12 L62,16 L60,16 L60,12 Z M64,12 L66,12 L66,16 L64,16 L64,12 Z M62,16 L64,16 L64,20 L62,20 L62,16 Z M58,20 L62,20 L62,22 L58,22 L58,20 Z" id="形状"></path>
            </g>
        </g>
    </g>
</svg>