<?xml version="1.0" encoding="UTF-8"?>
<svg width="372px" height="40px" viewBox="0 0 372 40" version="1.1" xmlns="http://www.w3.org/2000/svg" xmlns:xlink="http://www.w3.org/1999/xlink">
    <title>satellaview</title>
    <g id="system-list" stroke="none" stroke-width="1" fill="none" fill-rule="evenodd">
        <g id="satellaview">
            <rect id="矩形备份-6" x="0" y="0" width="372" height="40"></rect>
            <g id="Satellaview" transform="translate(24, 0)" fill="#FFFFFF" fill-rule="nonzero">
                <path d="M10,2 L2,2 L2,0 L10,0 L10,2 Z M10,2 L12,2 L12,4 L10,4 L10,2 Z M0,2 L2,2 L2,6 L0,6 L0,2 Z M2,6 L4,6 L4,8 L2,8 L2,6 Z M4,8 L8,8 L8,10 L4,10 L4,8 Z M8,10 L10,10 L10,12 L8,12 L8,10 Z M0,14 L2,14 L2,16 L0,16 L0,14 Z M10,12 L12,12 L12,16 L10,16 L10,12 Z M10,16 L10,18 L2,18 L2,16 L10,16 Z" id="形状"></path>
                <path d="M22,8 L16,8 L16,6 L22,6 L22,8 Z M14,12 L16,12 L16,16 L14,16 L14,12 Z M24,18 L16,18 L16,16 L22,16 L22,12 L16,12 L16,10 L22,10 L22,8 L24,8 L24,18 Z" id="形状"></path>
                <path d="M28,8 L26,8 L26,6 L28,6 L28,0 L30,0 L30,6 L34,6 L34,8 L30,8 L30,16 L28,16 L28,8 Z M34,18 L30,18 L30,16 L34,16 L34,18 Z" id="形状"></path>
                <path d="M44,8 L38,8 L38,6 L44,6 L44,8 Z M46,12 L38,12 L38,16 L36,16 L36,8 L38,8 L38,10 L44,10 L44,8 L46,8 L46,12 Z M44,14 L46,14 L46,16 L44,16 L44,14 Z M44,18 L38,18 L38,16 L44,16 L44,18 Z" id="形状"></path>
                <polygon id="路径" points="50 2 48 2 48 0 52 0 52 16 54 16 54 18 50 18"></polygon>
                <polygon id="路径" points="58 2 56 2 56 0 60 0 60 16 62 16 62 18 58 18"></polygon>
                <path d="M72,8 L66,8 L66,6 L72,6 L72,8 Z M64,12 L66,12 L66,16 L64,16 L64,12 Z M74,18 L66,18 L66,16 L72,16 L72,12 L66,12 L66,10 L72,10 L72,8 L74,8 L74,18 Z" id="形状"></path>
                <path d="M76,6 L78,6 L78,10 L76,10 L76,6 Z M84,6 L86,6 L86,10 L84,10 L84,6 Z M78,10 L80,10 L80,14 L78,14 L78,10 Z M82,10 L84,10 L84,14 L82,14 L82,10 Z M80,14 L82,14 L82,18 L80,18 L80,14 Z" id="形状"></path>
                <path d="M90,0 L92,0 L92,2 L90,2 L90,0 Z M90,8 L88,8 L88,6 L92,6 L92,16 L94,16 L94,18 L88,18 L88,16 L90,16 L90,8 Z" id="形状"></path>
                <path d="M104,8 L98,8 L98,6 L104,6 L104,8 Z M106,12 L98,12 L98,16 L96,16 L96,8 L98,8 L98,10 L104,10 L104,8 L106,8 L106,12 Z M104,14 L106,14 L106,16 L104,16 L104,14 Z M104,18 L98,18 L98,16 L104,16 L104,18 Z" id="形状"></path>
                <path d="M114,6 L116,6 L116,10 L114,10 L114,6 Z M108,6 L110,6 L110,14 L108,14 L108,6 Z M112,10 L114,10 L114,14 L112,14 L112,10 Z M116,10 L118,10 L118,14 L116,14 L116,10 Z M120,6 L122,6 L122,14 L120,14 L120,6 Z M110,14 L112,14 L112,18 L110,18 L110,14 Z M118,14 L120,14 L120,18 L118,18 L118,14 Z" id="形状"></path>
            </g>
        </g>
    </g>
</svg>