<?xml version="1.0" encoding="UTF-8"?>
<svg width="372px" height="40px" viewBox="0 0 372 40" version="1.1" xmlns="http://www.w3.org/2000/svg" xmlns:xlink="http://www.w3.org/1999/xlink">
    <title>saturn</title>
    <g id="system-list" stroke="none" stroke-width="1" fill="none" fill-rule="evenodd">
        <g id="saturn">
            <rect id="矩形备份-6" x="0" y="0" width="372" height="40"></rect>
            <g id="Sega-Saturn" transform="translate(24, 0)" fill="#FFFFFF" fill-rule="nonzero">
                <path d="M10,2 L2,2 L2,0 L10,0 L10,2 Z M10,2 L12,2 L12,4 L10,4 L10,2 Z M0,2 L2,2 L2,6 L0,6 L0,2 Z M2,6 L4,6 L4,8 L2,8 L2,6 Z M4,8 L8,8 L8,10 L4,10 L4,8 Z M8,10 L10,10 L10,12 L8,12 L8,10 Z M0,14 L2,14 L2,16 L0,16 L0,14 Z M10,12 L12,12 L12,16 L10,16 L10,12 Z M10,16 L10,18 L2,18 L2,16 L10,16 Z" id="形状"></path>
                <path d="M22,8 L16,8 L16,6 L22,6 L22,8 Z M24,12 L16,12 L16,16 L14,16 L14,8 L16,8 L16,10 L22,10 L22,8 L24,8 L24,12 Z M22,14 L24,14 L24,16 L22,16 L22,14 Z M22,18 L16,18 L16,16 L22,16 L22,18 Z" id="形状"></path>
                <path d="M26,8 L28,8 L28,16 L26,16 L26,8 Z M34,8 L28,8 L28,6 L36,6 L36,20 L34,20 L34,18 L28,18 L28,16 L34,16 L34,8 Z M34,20 L34,22 L28,22 L28,20 L34,20 Z" id="形状"></path>
                <path d="M46,8 L40,8 L40,6 L46,6 L46,8 Z M38,12 L40,12 L40,16 L38,16 L38,12 Z M48,18 L40,18 L40,16 L46,16 L46,12 L40,12 L40,10 L46,10 L46,8 L48,8 L48,18 Z" id="形状"></path>
                <path d="M72,2 L64,2 L64,0 L72,0 L72,2 Z M72,2 L74,2 L74,4 L72,4 L72,2 Z M62,2 L64,2 L64,6 L62,6 L62,2 Z M64,6 L66,6 L66,8 L64,8 L64,6 Z M66,8 L70,8 L70,10 L66,10 L66,8 Z M70,10 L72,10 L72,12 L70,12 L70,10 Z M62,14 L64,14 L64,16 L62,16 L62,14 Z M72,12 L74,12 L74,16 L72,16 L72,12 Z M72,16 L72,18 L64,18 L64,16 L72,16 Z" id="形状"></path>
                <path d="M84,8 L78,8 L78,6 L84,6 L84,8 Z M76,12 L78,12 L78,16 L76,16 L76,12 Z M86,18 L78,18 L78,16 L84,16 L84,12 L78,12 L78,10 L84,10 L84,8 L86,8 L86,18 Z" id="形状"></path>
                <path d="M90,8 L88,8 L88,6 L90,6 L90,0 L92,0 L92,6 L96,6 L96,8 L92,8 L92,16 L90,16 L90,8 Z M96,18 L92,18 L92,16 L96,16 L96,18 Z" id="形状"></path>
                <path d="M98,6 L100,6 L100,16 L98,16 L98,6 Z M100,16 L104,16 L104,18 L100,18 L100,16 Z M106,6 L108,6 L108,18 L106,18 L106,16 L104,16 L104,14 L106,14 L106,6 Z" id="形状"></path>
                <path d="M118,8 L114,8 L114,6 L118,6 L118,8 Z M110,6 L112,6 L112,8 L114,8 L114,10 L112,10 L112,18 L110,18 L110,6 Z" id="形状"></path>
                <path d="M128,8 L124,8 L124,6 L128,6 L128,8 Z M120,6 L122,6 L122,8 L124,8 L124,10 L122,10 L122,18 L120,18 L120,6 Z M128,8 L130,8 L130,18 L128,18 L128,8 Z" id="形状"></path>
            </g>
        </g>
    </g>
</svg>