<?xml version="1.0" encoding="UTF-8"?>
<svg width="372px" height="40px" viewBox="0 0 372 40" version="1.1" xmlns="http://www.w3.org/2000/svg" xmlns:xlink="http://www.w3.org/1999/xlink">
    <title>scummvm</title>
    <g id="system-list" stroke="none" stroke-width="1" fill="none" fill-rule="evenodd">
        <g id="scummvm">
            <rect id="矩形备份-6" x="0" y="0" width="372" height="40"></rect>
            <g id="ScummVM" transform="translate(24, 0)" fill="#FFFFFF" fill-rule="nonzero">
                <path d="M10,2 L2,2 L2,0 L10,0 L10,2 Z M10,2 L12,2 L12,4 L10,4 L10,2 Z M0,2 L2,2 L2,6 L0,6 L0,2 Z M2,6 L4,6 L4,8 L2,8 L2,6 Z M4,8 L8,8 L8,10 L4,10 L4,8 Z M8,10 L10,10 L10,12 L8,12 L8,10 Z M0,14 L2,14 L2,16 L0,16 L0,14 Z M10,12 L12,12 L12,16 L10,16 L10,12 Z M10,16 L10,18 L2,18 L2,16 L10,16 Z" id="形状"></path>
                <path d="M22,8 L16,8 L16,6 L22,6 L22,8 Z M22,8 L24,8 L24,10 L22,10 L22,8 Z M14,8 L16,8 L16,16 L14,16 L14,8 Z M22,14 L24,14 L24,16 L22,16 L22,14 Z M22,18 L16,18 L16,16 L22,16 L22,18 Z" id="形状"></path>
                <path d="M26,6 L28,6 L28,16 L26,16 L26,6 Z M28,16 L32,16 L32,18 L28,18 L28,16 Z M34,6 L36,6 L36,18 L34,18 L34,16 L32,16 L32,14 L34,14 L34,6 Z" id="形状"></path>
                <path d="M46,6 L50,6 L50,8 L46,8 L46,6 Z M38,6 L44,6 L44,8 L40,8 L40,18 L38,18 L38,6 Z M44,8 L46,8 L46,18 L44,18 L44,8 Z M50,8 L52,8 L52,18 L50,18 L50,8 Z" id="形状"></path>
                <path d="M62,6 L66,6 L66,8 L62,8 L62,6 Z M54,6 L60,6 L60,8 L56,8 L56,18 L54,18 L54,6 Z M60,8 L62,8 L62,18 L60,18 L60,8 Z M66,8 L68,8 L68,18 L66,18 L66,8 Z" id="形状"></path>
                <path d="M70,0 L72,0 L72,4 L70,4 L70,0 Z M82,0 L84,0 L84,4 L82,4 L82,0 Z M72,4 L74,4 L74,10 L72,10 L72,4 Z M80,4 L82,4 L82,10 L80,10 L80,4 Z M74,10 L76,10 L76,14 L74,14 L74,10 Z M78,10 L80,10 L80,14 L78,14 L78,10 Z M76,14 L78,14 L78,18 L76,18 L76,14 Z" id="形状"></path>
                <path d="M90,6 L92,6 L92,10 L90,10 L90,6 Z M98,6 L100,6 L100,10 L98,10 L98,6 Z M92,10 L94,10 L94,14 L92,14 L92,10 Z M96,10 L98,10 L98,14 L96,14 L96,10 Z M86,0 L88,0 L88,2 L90,2 L90,6 L88,6 L88,18 L86,18 L86,0 Z M94,14 L96,14 L96,18 L94,18 L94,14 Z M102,6 L100,6 L100,2 L102,2 L102,0 L104,0 L104,18 L102,18 L102,6 Z" id="形状"></path>
            </g>
        </g>
    </g>
</svg>