<?xml version="1.0" encoding="UTF-8"?>
<svg width="372px" height="40px" viewBox="0 0 372 40" version="1.1" xmlns="http://www.w3.org/2000/svg" xmlns:xlink="http://www.w3.org/1999/xlink">
    <title>scv</title>
    <g id="system-list" stroke="none" stroke-width="1" fill="none" fill-rule="evenodd">
        <g id="scv">
            <rect id="矩形备份-6" x="0" y="0" width="372" height="40"></rect>
            <g id="Super-Cassette-Visio" transform="translate(24, 0)" fill="#FFFFFF" fill-rule="nonzero">
                <path d="M10,2 L2,2 L2,0 L10,0 L10,2 Z M10,2 L12,2 L12,4 L10,4 L10,2 Z M0,2 L2,2 L2,6 L0,6 L0,2 Z M2,6 L4,6 L4,8 L2,8 L2,6 Z M4,8 L8,8 L8,10 L4,10 L4,8 Z M8,10 L10,10 L10,12 L8,12 L8,10 Z M0,14 L2,14 L2,16 L0,16 L0,14 Z M10,12 L12,12 L12,16 L10,16 L10,12 Z M10,16 L10,18 L2,18 L2,16 L10,16 Z" id="形状"></path>
                <path d="M14,6 L16,6 L16,16 L14,16 L14,6 Z M16,16 L20,16 L20,18 L16,18 L16,16 Z M22,6 L24,6 L24,18 L22,18 L22,16 L20,16 L20,14 L22,14 L22,6 Z" id="形状"></path>
                <path d="M34,8 L36,8 L36,16 L34,16 L34,8 Z M34,8 L28,8 L28,16 L34,16 L34,18 L28,18 L28,22 L26,22 L26,6 L34,6 L34,8 Z" id="形状"></path>
                <path d="M46,8 L40,8 L40,6 L46,6 L46,8 Z M48,12 L40,12 L40,16 L38,16 L38,8 L40,8 L40,10 L46,10 L46,8 L48,8 L48,12 Z M46,14 L48,14 L48,16 L46,16 L46,14 Z M46,18 L40,18 L40,16 L46,16 L46,18 Z" id="形状"></path>
                <path d="M58,8 L54,8 L54,6 L58,6 L58,8 Z M50,6 L52,6 L52,8 L54,8 L54,10 L52,10 L52,18 L50,18 L50,6 Z" id="形状"></path>
                <path d="M82,2 L76,2 L76,0 L82,0 L82,2 Z M74,2 L76,2 L76,4 L74,4 L74,2 Z M82,2 L84,2 L84,4 L82,4 L82,2 Z M72,4 L74,4 L74,14 L72,14 L72,4 Z M74,14 L76,14 L76,16 L74,16 L74,14 Z M82,14 L84,14 L84,16 L82,16 L82,14 Z M82,16 L82,18 L76,18 L76,16 L82,16 Z" id="形状"></path>
                <path d="M94,8 L88,8 L88,6 L94,6 L94,8 Z M86,12 L88,12 L88,16 L86,16 L86,12 Z M96,18 L88,18 L88,16 L94,16 L94,12 L88,12 L88,10 L94,10 L94,8 L96,8 L96,18 Z" id="形状"></path>
                <path d="M106,8 L100,8 L100,6 L106,6 L106,8 Z M98,8 L100,8 L100,10 L98,10 L98,8 Z M106,8 L108,8 L108,10 L106,10 L106,8 Z M104,12 L100,12 L100,10 L104,10 L104,12 Z M104,12 L106,12 L106,14 L104,14 L104,12 Z M98,14 L100,14 L100,16 L98,16 L98,14 Z M106,14 L108,14 L108,16 L106,16 L106,14 Z M106,18 L100,18 L100,16 L106,16 L106,18 Z" id="形状"></path>
                <path d="M118,8 L112,8 L112,6 L118,6 L118,8 Z M110,8 L112,8 L112,10 L110,10 L110,8 Z M118,8 L120,8 L120,10 L118,10 L118,8 Z M116,12 L112,12 L112,10 L116,10 L116,12 Z M116,12 L118,12 L118,14 L116,14 L116,12 Z M110,14 L112,14 L112,16 L110,16 L110,14 Z M118,14 L120,14 L120,16 L118,16 L118,14 Z M118,18 L112,18 L112,16 L118,16 L118,18 Z" id="形状"></path>
                <path d="M130,8 L124,8 L124,6 L130,6 L130,8 Z M132,12 L124,12 L124,16 L122,16 L122,8 L124,8 L124,10 L130,10 L130,8 L132,8 L132,12 Z M130,14 L132,14 L132,16 L130,16 L130,14 Z M130,18 L124,18 L124,16 L130,16 L130,18 Z" id="形状"></path>
                <path d="M136,8 L134,8 L134,6 L136,6 L136,0 L138,0 L138,6 L142,6 L142,8 L138,8 L138,16 L136,16 L136,8 Z M142,18 L138,18 L138,16 L142,16 L142,18 Z" id="形状"></path>
                <path d="M146,8 L144,8 L144,6 L146,6 L146,0 L148,0 L148,6 L152,6 L152,8 L148,8 L148,16 L146,16 L146,8 Z M152,18 L148,18 L148,16 L152,16 L152,18 Z" id="形状"></path>
                <path d="M162,8 L156,8 L156,6 L162,6 L162,8 Z M164,12 L156,12 L156,16 L154,16 L154,8 L156,8 L156,10 L162,10 L162,8 L164,8 L164,12 Z M162,14 L164,14 L164,16 L162,16 L162,14 Z M162,18 L156,18 L156,16 L162,16 L162,18 Z" id="形状"></path>
                <path d="M178,0 L180,0 L180,4 L178,4 L178,0 Z M190,0 L192,0 L192,4 L190,4 L190,0 Z M180,4 L182,4 L182,10 L180,10 L180,4 Z M188,4 L190,4 L190,10 L188,10 L188,4 Z M182,10 L184,10 L184,14 L182,14 L182,10 Z M186,10 L188,10 L188,14 L186,14 L186,10 Z M184,14 L186,14 L186,18 L184,18 L184,14 Z" id="形状"></path>
                <path d="M196,0 L198,0 L198,2 L196,2 L196,0 Z M196,8 L194,8 L194,6 L198,6 L198,16 L200,16 L200,18 L194,18 L194,16 L196,16 L196,8 Z" id="形状"></path>
                <path d="M210,8 L204,8 L204,6 L210,6 L210,8 Z M202,8 L204,8 L204,10 L202,10 L202,8 Z M210,8 L212,8 L212,10 L210,10 L210,8 Z M208,12 L204,12 L204,10 L208,10 L208,12 Z M208,12 L210,12 L210,14 L208,14 L208,12 Z M202,14 L204,14 L204,16 L202,16 L202,14 Z M210,14 L212,14 L212,16 L210,16 L210,14 Z M210,18 L204,18 L204,16 L210,16 L210,18 Z" id="形状"></path>
                <path d="M216,0 L218,0 L218,2 L216,2 L216,0 Z M216,8 L214,8 L214,6 L218,6 L218,16 L220,16 L220,18 L214,18 L214,16 L216,16 L216,8 Z" id="形状"></path>
                <path d="M230,8 L224,8 L224,6 L230,6 L230,8 Z M222,8 L224,8 L224,16 L222,16 L222,8 Z M230,8 L232,8 L232,16 L230,16 L230,8 Z M230,18 L224,18 L224,16 L230,16 L230,18 Z" id="形状"></path>
                <path d="M242,8 L238,8 L238,6 L242,6 L242,8 Z M234,6 L236,6 L236,8 L238,8 L238,10 L236,10 L236,18 L234,18 L234,6 Z M242,8 L244,8 L244,18 L242,18 L242,8 Z" id="形状"></path>
            </g>
        </g>
    </g>
</svg>