<?xml version="1.0" encoding="UTF-8"?>
<svg width="372px" height="40px" viewBox="0 0 372 40" version="1.1" xmlns="http://www.w3.org/2000/svg" xmlns:xlink="http://www.w3.org/1999/xlink">
    <title>sega</title>
    <g id="system-list" stroke="none" stroke-width="1" fill="none" fill-rule="evenodd">
        <g id="sega">
            <rect id="矩形备份-6" x="0" y="0" width="372" height="40"></rect>
            <g id="Sega" transform="translate(24, 0)" fill="#FFFFFF" fill-rule="nonzero">
                <path d="M10,2 L2,2 L2,0 L10,0 L10,2 Z M10,2 L12,2 L12,4 L10,4 L10,2 Z M0,2 L2,2 L2,6 L0,6 L0,2 Z M2,6 L4,6 L4,8 L2,8 L2,6 Z M4,8 L8,8 L8,10 L4,10 L4,8 Z M8,10 L10,10 L10,12 L8,12 L8,10 Z M0,14 L2,14 L2,16 L0,16 L0,14 Z M10,12 L12,12 L12,16 L10,16 L10,12 Z M10,16 L10,18 L2,18 L2,16 L10,16 Z" id="形状"></path>
                <path d="M22,8 L16,8 L16,6 L22,6 L22,8 Z M24,12 L16,12 L16,16 L14,16 L14,8 L16,8 L16,10 L22,10 L22,8 L24,8 L24,12 Z M22,14 L24,14 L24,16 L22,16 L22,14 Z M22,18 L16,18 L16,16 L22,16 L22,18 Z" id="形状"></path>
                <path d="M26,8 L28,8 L28,16 L26,16 L26,8 Z M34,8 L28,8 L28,6 L36,6 L36,20 L34,20 L34,18 L28,18 L28,16 L34,16 L34,8 Z M34,20 L34,22 L28,22 L28,20 L34,20 Z" id="形状"></path>
                <path d="M46,8 L40,8 L40,6 L46,6 L46,8 Z M38,12 L40,12 L40,16 L38,16 L38,12 Z M48,18 L40,18 L40,16 L46,16 L46,12 L40,12 L40,10 L46,10 L46,8 L48,8 L48,18 Z" id="形状"></path>
            </g>
        </g>
    </g>
</svg>