<?xml version="1.0" encoding="UTF-8"?>
<svg width="372px" height="40px" viewBox="0 0 372 40" version="1.1" xmlns="http://www.w3.org/2000/svg" xmlns:xlink="http://www.w3.org/1999/xlink">
    <title>sega32x</title>
    <g id="system-list" stroke="none" stroke-width="1" fill="none" fill-rule="evenodd">
        <g id="sega32x">
            <rect id="矩形备份-6" x="0" y="0" width="372" height="40"></rect>
            <g id="Sega-32X" transform="translate(24, 0)" fill="#FFFFFF" fill-rule="nonzero">
                <path d="M10,2 L2,2 L2,0 L10,0 L10,2 Z M10,2 L12,2 L12,4 L10,4 L10,2 Z M0,2 L2,2 L2,6 L0,6 L0,2 Z M2,6 L4,6 L4,8 L2,8 L2,6 Z M4,8 L8,8 L8,10 L4,10 L4,8 Z M8,10 L10,10 L10,12 L8,12 L8,10 Z M0,14 L2,14 L2,16 L0,16 L0,14 Z M10,12 L12,12 L12,16 L10,16 L10,12 Z M10,16 L10,18 L2,18 L2,16 L10,16 Z" id="形状"></path>
                <path d="M22,8 L16,8 L16,6 L22,6 L22,8 Z M24,12 L16,12 L16,16 L14,16 L14,8 L16,8 L16,10 L22,10 L22,8 L24,8 L24,12 Z M22,14 L24,14 L24,16 L22,16 L22,14 Z M22,18 L16,18 L16,16 L22,16 L22,18 Z" id="形状"></path>
                <path d="M26,8 L28,8 L28,16 L26,16 L26,8 Z M34,8 L28,8 L28,6 L36,6 L36,20 L34,20 L34,18 L28,18 L28,16 L34,16 L34,8 Z M34,20 L34,22 L28,22 L28,20 L34,20 Z" id="形状"></path>
                <path d="M46,8 L40,8 L40,6 L46,6 L46,8 Z M38,12 L40,12 L40,16 L38,16 L38,12 Z M48,18 L40,18 L40,16 L46,16 L46,12 L40,12 L40,10 L46,10 L46,8 L48,8 L48,18 Z" id="形状"></path>
                <path d="M70,0 L70,2 L64,2 L64,0 L70,0 Z M62,2 L64,2 L64,4 L62,4 L62,2 Z M70,2 L72,2 L72,8 L70,8 L70,2 Z M66,8 L70,8 L70,10 L66,10 L66,8 Z M62,14 L64,14 L64,16 L62,16 L62,14 Z M70,10 L72,10 L72,16 L70,16 L70,10 Z M70,18 L64,18 L64,16 L70,16 L70,18 Z" id="形状"></path>
                <path d="M82,0 L82,2 L76,2 L76,0 L82,0 Z M74,2 L76,2 L76,4 L74,4 L74,2 Z M82,2 L84,2 L84,8 L82,8 L82,2 Z M80,8 L82,8 L82,10 L80,10 L80,8 Z M78,10 L80,10 L80,12 L78,12 L78,10 Z M76,12 L78,12 L78,14 L76,14 L76,12 Z M74,14 L76,14 L76,16 L84,16 L84,18 L74,18 L74,14 Z" id="形状"></path>
                <path d="M86,0 L88,0 L88,2 L86,2 L86,0 Z M98,0 L100,0 L100,2 L98,2 L98,0 Z M88,2 L90,2 L90,6 L88,6 L88,2 Z M96,2 L98,2 L98,6 L96,6 L96,2 Z M90,6 L92,6 L92,8 L90,8 L90,6 Z M94,6 L96,6 L96,8 L94,8 L94,6 Z M92,8 L94,8 L94,10 L92,10 L92,8 Z M90,10 L92,10 L92,12 L90,12 L90,10 Z M94,10 L96,10 L96,12 L94,12 L94,10 Z M88,12 L90,12 L90,16 L88,16 L88,12 Z M96,12 L98,12 L98,16 L96,16 L96,12 Z M86,16 L88,16 L88,18 L86,18 L86,16 Z M98,16 L100,16 L100,18 L98,18 L98,16 Z" id="形状"></path>
            </g>
        </g>
    </g>
</svg>