<?xml version="1.0" encoding="UTF-8"?>
<svg width="372px" height="40px" viewBox="0 0 372 40" version="1.1" xmlns="http://www.w3.org/2000/svg" xmlns:xlink="http://www.w3.org/1999/xlink">
    <title>sfc</title>
    <g id="system-list" stroke="none" stroke-width="1" fill="none" fill-rule="evenodd">
        <g id="sfc">
            <rect id="矩形备份-6" x="0" y="0" width="372" height="40"></rect>
            <g id="Super-Famicom" transform="translate(24, 0)" fill="#FFFFFF" fill-rule="nonzero">
                <path d="M10,2 L2,2 L2,0 L10,0 L10,2 Z M10,2 L12,2 L12,4 L10,4 L10,2 Z M0,2 L2,2 L2,6 L0,6 L0,2 Z M2,6 L4,6 L4,8 L2,8 L2,6 Z M4,8 L8,8 L8,10 L4,10 L4,8 Z M8,10 L10,10 L10,12 L8,12 L8,10 Z M0,14 L2,14 L2,16 L0,16 L0,14 Z M10,12 L12,12 L12,16 L10,16 L10,12 Z M10,16 L10,18 L2,18 L2,16 L10,16 Z" id="形状"></path>
                <path d="M14,6 L16,6 L16,16 L14,16 L14,6 Z M16,16 L20,16 L20,18 L16,18 L16,16 Z M22,6 L24,6 L24,18 L22,18 L22,16 L20,16 L20,14 L22,14 L22,6 Z" id="形状"></path>
                <path d="M34,8 L36,8 L36,16 L34,16 L34,8 Z M34,8 L28,8 L28,16 L34,16 L34,18 L28,18 L28,22 L26,22 L26,6 L34,6 L34,8 Z" id="形状"></path>
                <path d="M46,8 L40,8 L40,6 L46,6 L46,8 Z M48,12 L40,12 L40,16 L38,16 L38,8 L40,8 L40,10 L46,10 L46,8 L48,8 L48,12 Z M46,14 L48,14 L48,16 L46,16 L46,14 Z M46,18 L40,18 L40,16 L46,16 L46,18 Z" id="形状"></path>
                <path d="M58,8 L54,8 L54,6 L58,6 L58,8 Z M50,6 L52,6 L52,8 L54,8 L54,10 L52,10 L52,18 L50,18 L50,6 Z" id="形状"></path>
                <polygon id="路径" points="72 0 84 0 84 2 74 2 74 8 82 8 82 10 74 10 74 18 72 18"></polygon>
                <path d="M94,8 L88,8 L88,6 L94,6 L94,8 Z M86,12 L88,12 L88,16 L86,16 L86,12 Z M96,18 L88,18 L88,16 L94,16 L94,12 L88,12 L88,10 L94,10 L94,8 L96,8 L96,18 Z" id="形状"></path>
                <path d="M106,6 L110,6 L110,8 L106,8 L106,6 Z M98,6 L104,6 L104,8 L100,8 L100,18 L98,18 L98,6 Z M104,8 L106,8 L106,18 L104,18 L104,8 Z M110,8 L112,8 L112,18 L110,18 L110,8 Z" id="形状"></path>
                <path d="M116,0 L118,0 L118,2 L116,2 L116,0 Z M116,8 L114,8 L114,6 L118,6 L118,16 L120,16 L120,18 L114,18 L114,16 L116,16 L116,8 Z" id="形状"></path>
                <path d="M130,8 L124,8 L124,6 L130,6 L130,8 Z M130,8 L132,8 L132,10 L130,10 L130,8 Z M122,8 L124,8 L124,16 L122,16 L122,8 Z M130,14 L132,14 L132,16 L130,16 L130,14 Z M130,18 L124,18 L124,16 L130,16 L130,18 Z" id="形状"></path>
                <path d="M142,8 L136,8 L136,6 L142,6 L142,8 Z M134,8 L136,8 L136,16 L134,16 L134,8 Z M142,8 L144,8 L144,16 L142,16 L142,8 Z M142,18 L136,18 L136,16 L142,16 L142,18 Z" id="形状"></path>
                <path d="M154,6 L158,6 L158,8 L154,8 L154,6 Z M146,6 L152,6 L152,8 L148,8 L148,18 L146,18 L146,6 Z M152,8 L154,8 L154,18 L152,18 L152,8 Z M158,8 L160,8 L160,18 L158,18 L158,8 Z" id="形状"></path>
            </g>
        </g>
    </g>
</svg>