<?xml version="1.0" encoding="UTF-8"?>
<svg width="372px" height="40px" viewBox="0 0 372 40" version="1.1" xmlns="http://www.w3.org/2000/svg" xmlns:xlink="http://www.w3.org/1999/xlink">
    <title>sgb</title>
    <g id="system-list" stroke="none" stroke-width="1" fill="none" fill-rule="evenodd">
        <g id="sgb">
            <rect id="矩形备份-6" x="0" y="0" width="372" height="40"></rect>
            <g id="Super-Game-Boy" transform="translate(24, 0)" fill="#FFFFFF" fill-rule="nonzero">
                <path d="M10,2 L2,2 L2,0 L10,0 L10,2 Z M10,2 L12,2 L12,4 L10,4 L10,2 Z M0,2 L2,2 L2,6 L0,6 L0,2 Z M2,6 L4,6 L4,8 L2,8 L2,6 Z M4,8 L8,8 L8,10 L4,10 L4,8 Z M8,10 L10,10 L10,12 L8,12 L8,10 Z M0,14 L2,14 L2,16 L0,16 L0,14 Z M10,12 L12,12 L12,16 L10,16 L10,12 Z M10,16 L10,18 L2,18 L2,16 L10,16 Z" id="形状"></path>
                <path d="M14,6 L16,6 L16,16 L14,16 L14,6 Z M16,16 L20,16 L20,18 L16,18 L16,16 Z M22,6 L24,6 L24,18 L22,18 L22,16 L20,16 L20,14 L22,14 L22,6 Z" id="形状"></path>
                <path d="M34,8 L36,8 L36,16 L34,16 L34,8 Z M34,8 L28,8 L28,16 L34,16 L34,18 L28,18 L28,22 L26,22 L26,6 L34,6 L34,8 Z" id="形状"></path>
                <path d="M46,8 L40,8 L40,6 L46,6 L46,8 Z M48,12 L40,12 L40,16 L38,16 L38,8 L40,8 L40,10 L46,10 L46,8 L48,8 L48,12 Z M46,14 L48,14 L48,16 L46,16 L46,14 Z M46,18 L40,18 L40,16 L46,16 L46,18 Z" id="形状"></path>
                <path d="M58,8 L54,8 L54,6 L58,6 L58,8 Z M50,6 L52,6 L52,8 L54,8 L54,10 L52,10 L52,18 L50,18 L50,6 Z" id="形状"></path>
                <path d="M82,2 L76,2 L76,0 L82,0 L82,2 Z M74,2 L76,2 L76,4 L74,4 L74,2 Z M82,2 L84,2 L84,4 L82,4 L82,2 Z M72,4 L74,4 L74,14 L72,14 L72,4 Z M74,14 L76,14 L76,16 L74,16 L74,14 Z M80,10 L84,10 L84,18 L76,18 L76,16 L82,16 L82,12 L80,12 L80,10 Z" id="形状"></path>
                <path d="M94,8 L88,8 L88,6 L94,6 L94,8 Z M86,12 L88,12 L88,16 L86,16 L86,12 Z M96,18 L88,18 L88,16 L94,16 L94,12 L88,12 L88,10 L94,10 L94,8 L96,8 L96,18 Z" id="形状"></path>
                <path d="M106,6 L110,6 L110,8 L106,8 L106,6 Z M98,6 L104,6 L104,8 L100,8 L100,18 L98,18 L98,6 Z M104,8 L106,8 L106,18 L104,18 L104,8 Z M110,8 L112,8 L112,18 L110,18 L110,8 Z" id="形状"></path>
                <path d="M122,8 L116,8 L116,6 L122,6 L122,8 Z M124,12 L116,12 L116,16 L114,16 L114,8 L116,8 L116,10 L122,10 L122,8 L124,8 L124,12 Z M122,14 L124,14 L124,16 L122,16 L122,14 Z M122,18 L116,18 L116,16 L122,16 L122,18 Z" id="形状"></path>
                <path d="M148,2 L150,2 L150,8 L148,8 L148,2 Z M148,10 L150,10 L150,16 L148,16 L148,10 Z M138,0 L148,0 L148,2 L140,2 L140,8 L148,8 L148,10 L140,10 L140,16 L148,16 L148,18 L138,18 L138,0 Z" id="形状"></path>
                <path d="M160,8 L154,8 L154,6 L160,6 L160,8 Z M152,8 L154,8 L154,16 L152,16 L152,8 Z M160,8 L162,8 L162,16 L160,16 L160,8 Z M160,18 L154,18 L154,16 L160,16 L160,18 Z" id="形状"></path>
                <path d="M164,6 L166,6 L166,12 L164,12 L164,6 Z M172,6 L174,6 L174,12 L172,12 L172,6 Z M166,12 L168,12 L168,16 L166,16 L166,12 Z M170,12 L172,12 L172,16 L170,16 L170,12 Z M168,16 L170,16 L170,20 L168,20 L168,16 Z M164,20 L168,20 L168,22 L164,22 L164,20 Z" id="形状"></path>
            </g>
        </g>
    </g>
</svg>