<?xml version="1.0" encoding="UTF-8"?>
<svg width="372px" height="40px" viewBox="0 0 372 40" version="1.1" xmlns="http://www.w3.org/2000/svg" xmlns:xlink="http://www.w3.org/1999/xlink">
    <title>snes-hacks</title>
    <g id="system-list" stroke="none" stroke-width="1" fill="none" fill-rule="evenodd">
        <g id="snes-hacks">
            <rect id="矩形备份-6" x="0" y="0" width="372" height="40"></rect>
            <g id="Super-Nintendo-Hacks" transform="translate(24, 0)" fill="#FFFFFF" fill-rule="nonzero">
                <path d="M10,2 L2,2 L2,0 L10,0 L10,2 Z M10,2 L12,2 L12,4 L10,4 L10,2 Z M0,2 L2,2 L2,6 L0,6 L0,2 Z M2,6 L4,6 L4,8 L2,8 L2,6 Z M4,8 L8,8 L8,10 L4,10 L4,8 Z M8,10 L10,10 L10,12 L8,12 L8,10 Z M0,14 L2,14 L2,16 L0,16 L0,14 Z M10,12 L12,12 L12,16 L10,16 L10,12 Z M10,16 L10,18 L2,18 L2,16 L10,16 Z" id="形状"></path>
                <path d="M14,6 L16,6 L16,16 L14,16 L14,6 Z M16,16 L20,16 L20,18 L16,18 L16,16 Z M22,6 L24,6 L24,18 L22,18 L22,16 L20,16 L20,14 L22,14 L22,6 Z" id="形状"></path>
                <path d="M34,8 L36,8 L36,16 L34,16 L34,8 Z M34,8 L28,8 L28,16 L34,16 L34,18 L28,18 L28,22 L26,22 L26,6 L34,6 L34,8 Z" id="形状"></path>
                <path d="M46,8 L40,8 L40,6 L46,6 L46,8 Z M48,12 L40,12 L40,16 L38,16 L38,8 L40,8 L40,10 L46,10 L46,8 L48,8 L48,12 Z M46,14 L48,14 L48,16 L46,16 L46,14 Z M46,18 L40,18 L40,16 L46,16 L46,18 Z" id="形状"></path>
                <path d="M58,8 L54,8 L54,6 L58,6 L58,8 Z M50,6 L52,6 L52,8 L54,8 L54,10 L52,10 L52,18 L50,18 L50,6 Z" id="形状"></path>
                <path d="M76,4 L78,4 L78,8 L76,8 L76,4 Z M78,8 L80,8 L80,12 L78,12 L78,8 Z M72,0 L74,0 L74,2 L76,2 L76,4 L74,4 L74,18 L72,18 L72,0 Z M82,0 L84,0 L84,18 L82,18 L82,16 L80,16 L80,12 L82,12 L82,0 Z" id="形状"></path>
                <path d="M88,0 L90,0 L90,2 L88,2 L88,0 Z M88,8 L86,8 L86,6 L90,6 L90,16 L92,16 L92,18 L86,18 L86,16 L88,16 L88,8 Z" id="形状"></path>
                <path d="M102,8 L98,8 L98,6 L102,6 L102,8 Z M94,6 L96,6 L96,8 L98,8 L98,10 L96,10 L96,18 L94,18 L94,6 Z M102,8 L104,8 L104,18 L102,18 L102,8 Z" id="形状"></path>
                <path d="M108,8 L106,8 L106,6 L108,6 L108,0 L110,0 L110,6 L114,6 L114,8 L110,8 L110,16 L108,16 L108,8 Z M114,18 L110,18 L110,16 L114,16 L114,18 Z" id="形状"></path>
                <path d="M124,8 L118,8 L118,6 L124,6 L124,8 Z M126,12 L118,12 L118,16 L116,16 L116,8 L118,8 L118,10 L124,10 L124,8 L126,8 L126,12 Z M124,14 L126,14 L126,16 L124,16 L124,14 Z M124,18 L118,18 L118,16 L124,16 L124,18 Z" id="形状"></path>
                <path d="M136,8 L132,8 L132,6 L136,6 L136,8 Z M128,6 L130,6 L130,8 L132,8 L132,10 L130,10 L130,18 L128,18 L128,6 Z M136,8 L138,8 L138,18 L136,18 L136,8 Z" id="形状"></path>
                <path d="M140,8 L142,8 L142,16 L140,16 L140,8 Z M148,8 L142,8 L142,6 L148,6 L148,0 L150,0 L150,18 L142,18 L142,16 L148,16 L148,8 Z" id="形状"></path>
                <path d="M160,8 L154,8 L154,6 L160,6 L160,8 Z M152,8 L154,8 L154,16 L152,16 L152,8 Z M160,8 L162,8 L162,16 L160,16 L160,8 Z M160,18 L154,18 L154,16 L160,16 L160,18 Z" id="形状"></path>
                <polygon id="路径" points="176 0 178 0 178 8 186 8 186 0 188 0 188 18 186 18 186 10 178 10 178 18 176 18"></polygon>
                <path d="M198,8 L192,8 L192,6 L198,6 L198,8 Z M190,12 L192,12 L192,16 L190,16 L190,12 Z M200,18 L192,18 L192,16 L198,16 L198,12 L192,12 L192,10 L198,10 L198,8 L200,8 L200,18 Z" id="形状"></path>
                <path d="M210,8 L204,8 L204,6 L210,6 L210,8 Z M210,8 L212,8 L212,10 L210,10 L210,8 Z M202,8 L204,8 L204,16 L202,16 L202,8 Z M210,14 L212,14 L212,16 L210,16 L210,14 Z M210,18 L204,18 L204,16 L210,16 L210,18 Z" id="形状"></path>
                <path d="M222,6 L224,6 L224,8 L222,8 L222,6 Z M218,8 L222,8 L222,10 L218,10 L218,8 Z M218,12 L220,12 L220,14 L218,14 L218,12 Z M220,14 L222,14 L222,16 L220,16 L220,14 Z M214,0 L216,0 L216,10 L218,10 L218,12 L216,12 L216,18 L214,18 L214,0 Z M222,16 L224,16 L224,18 L222,18 L222,16 Z" id="形状"></path>
                <path d="M234,8 L228,8 L228,6 L234,6 L234,8 Z M226,8 L228,8 L228,10 L226,10 L226,8 Z M234,8 L236,8 L236,10 L234,10 L234,8 Z M232,12 L228,12 L228,10 L232,10 L232,12 Z M232,12 L234,12 L234,14 L232,14 L232,12 Z M226,14 L228,14 L228,16 L226,16 L226,14 Z M234,14 L236,14 L236,16 L234,16 L234,14 Z M234,18 L228,18 L228,16 L234,16 L234,18 Z" id="形状"></path>
            </g>
        </g>
    </g>
</svg>