<?xml version="1.0" encoding="UTF-8"?>
<svg width="372px" height="40px" viewBox="0 0 372 40" version="1.1" xmlns="http://www.w3.org/2000/svg" xmlns:xlink="http://www.w3.org/1999/xlink">
    <title>snk</title>
    <g id="system-list" stroke="none" stroke-width="1" fill="none" fill-rule="evenodd">
        <g id="snk">
            <rect id="矩形备份-6" x="0" y="0" width="372" height="40"></rect>
            <g id="SNK" transform="translate(24, 0)" fill="#FFFFFF" fill-rule="nonzero">
                <path d="M10,2 L2,2 L2,0 L10,0 L10,2 Z M10,2 L12,2 L12,4 L10,4 L10,2 Z M0,2 L2,2 L2,6 L0,6 L0,2 Z M2,6 L4,6 L4,8 L2,8 L2,6 Z M4,8 L8,8 L8,10 L4,10 L4,8 Z M8,10 L10,10 L10,12 L8,12 L8,10 Z M0,14 L2,14 L2,16 L0,16 L0,14 Z M10,12 L12,12 L12,16 L10,16 L10,12 Z M10,16 L10,18 L2,18 L2,16 L10,16 Z" id="形状"></path>
                <path d="M18,4 L20,4 L20,8 L18,8 L18,4 Z M20,8 L22,8 L22,12 L20,12 L20,8 Z M14,0 L16,0 L16,2 L18,2 L18,4 L16,4 L16,18 L14,18 L14,0 Z M24,0 L26,0 L26,18 L24,18 L24,16 L22,16 L22,12 L24,12 L24,0 Z" id="形状"></path>
                <path d="M38,0 L40,0 L40,2 L38,2 L38,0 Z M36,2 L38,2 L38,4 L36,4 L36,2 Z M34,4 L36,4 L36,6 L34,6 L34,4 Z M32,6 L34,6 L34,8 L32,8 L32,6 Z M32,10 L34,10 L34,12 L32,12 L32,10 Z M34,12 L36,12 L36,14 L34,14 L34,12 Z M36,14 L38,14 L38,16 L36,16 L36,14 Z M28,0 L30,0 L30,8 L32,8 L32,10 L30,10 L30,18 L28,18 L28,0 Z M38,16 L40,16 L40,18 L38,18 L38,16 Z" id="形状"></path>
            </g>
        </g>
    </g>
</svg>