<?xml version="1.0" encoding="UTF-8"?>
<svg width="372px" height="40px" viewBox="0 0 372 40" version="1.1" xmlns="http://www.w3.org/2000/svg" xmlns:xlink="http://www.w3.org/1999/xlink">
    <title>solarus</title>
    <g id="system-list" stroke="none" stroke-width="1" fill="none" fill-rule="evenodd">
        <g id="solarus">
            <rect id="矩形备份-6" x="0" y="0" width="372" height="40"></rect>
            <g id="Solarus" transform="translate(24, 0)" fill="#FFFFFF" fill-rule="nonzero">
                <path d="M10,2 L2,2 L2,0 L10,0 L10,2 Z M10,2 L12,2 L12,4 L10,4 L10,2 Z M0,2 L2,2 L2,6 L0,6 L0,2 Z M2,6 L4,6 L4,8 L2,8 L2,6 Z M4,8 L8,8 L8,10 L4,10 L4,8 Z M8,10 L10,10 L10,12 L8,12 L8,10 Z M0,14 L2,14 L2,16 L0,16 L0,14 Z M10,12 L12,12 L12,16 L10,16 L10,12 Z M10,16 L10,18 L2,18 L2,16 L10,16 Z" id="形状"></path>
                <path d="M22,8 L16,8 L16,6 L22,6 L22,8 Z M14,8 L16,8 L16,16 L14,16 L14,8 Z M22,8 L24,8 L24,16 L22,16 L22,8 Z M22,18 L16,18 L16,16 L22,16 L22,18 Z" id="形状"></path>
                <polygon id="路径" points="28 2 26 2 26 0 30 0 30 16 32 16 32 18 28 18"></polygon>
                <path d="M42,8 L36,8 L36,6 L42,6 L42,8 Z M34,12 L36,12 L36,16 L34,16 L34,12 Z M44,18 L36,18 L36,16 L42,16 L42,12 L36,12 L36,10 L42,10 L42,8 L44,8 L44,18 Z" id="形状"></path>
                <path d="M54,8 L50,8 L50,6 L54,6 L54,8 Z M46,6 L48,6 L48,8 L50,8 L50,10 L48,10 L48,18 L46,18 L46,6 Z" id="形状"></path>
                <path d="M56,6 L58,6 L58,16 L56,16 L56,6 Z M58,16 L62,16 L62,18 L58,18 L58,16 Z M64,6 L66,6 L66,18 L64,18 L64,16 L62,16 L62,14 L64,14 L64,6 Z" id="形状"></path>
                <path d="M76,8 L70,8 L70,6 L76,6 L76,8 Z M68,8 L70,8 L70,10 L68,10 L68,8 Z M76,8 L78,8 L78,10 L76,10 L76,8 Z M74,12 L70,12 L70,10 L74,10 L74,12 Z M74,12 L76,12 L76,14 L74,14 L74,12 Z M68,14 L70,14 L70,16 L68,16 L68,14 Z M76,14 L78,14 L78,16 L76,16 L76,14 Z M76,18 L70,18 L70,16 L76,16 L76,18 Z" id="形状"></path>
            </g>
        </g>
    </g>
</svg>