<?xml version="1.0" encoding="UTF-8"?>
<svg width="372px" height="40px" viewBox="0 0 372 40" version="1.1" xmlns="http://www.w3.org/2000/svg" xmlns:xlink="http://www.w3.org/1999/xlink">
    <title>supergrafx</title>
    <g id="system-list" stroke="none" stroke-width="1" fill="none" fill-rule="evenodd">
        <g id="supergrafx">
            <rect id="矩形备份-6" x="0" y="0" width="372" height="40"></rect>
            <g id="Super-Grafx" transform="translate(24, 0)" fill="#FFFFFF" fill-rule="nonzero">
                <path d="M10,2 L2,2 L2,0 L10,0 L10,2 Z M10,2 L12,2 L12,4 L10,4 L10,2 Z M0,2 L2,2 L2,6 L0,6 L0,2 Z M2,6 L4,6 L4,8 L2,8 L2,6 Z M4,8 L8,8 L8,10 L4,10 L4,8 Z M8,10 L10,10 L10,12 L8,12 L8,10 Z M0,14 L2,14 L2,16 L0,16 L0,14 Z M10,12 L12,12 L12,16 L10,16 L10,12 Z M10,16 L10,18 L2,18 L2,16 L10,16 Z" id="形状"></path>
                <path d="M14,6 L16,6 L16,16 L14,16 L14,6 Z M16,16 L20,16 L20,18 L16,18 L16,16 Z M22,6 L24,6 L24,18 L22,18 L22,16 L20,16 L20,14 L22,14 L22,6 Z" id="形状"></path>
                <path d="M34,8 L36,8 L36,16 L34,16 L34,8 Z M34,8 L28,8 L28,16 L34,16 L34,18 L28,18 L28,22 L26,22 L26,6 L34,6 L34,8 Z" id="形状"></path>
                <path d="M46,8 L40,8 L40,6 L46,6 L46,8 Z M48,12 L40,12 L40,16 L38,16 L38,8 L40,8 L40,10 L46,10 L46,8 L48,8 L48,12 Z M46,14 L48,14 L48,16 L46,16 L46,14 Z M46,18 L40,18 L40,16 L46,16 L46,18 Z" id="形状"></path>
                <path d="M58,8 L54,8 L54,6 L58,6 L58,8 Z M50,6 L52,6 L52,8 L54,8 L54,10 L52,10 L52,18 L50,18 L50,6 Z" id="形状"></path>
                <path d="M82,2 L76,2 L76,0 L82,0 L82,2 Z M74,2 L76,2 L76,4 L74,4 L74,2 Z M82,2 L84,2 L84,4 L82,4 L82,2 Z M72,4 L74,4 L74,14 L72,14 L72,4 Z M74,14 L76,14 L76,16 L74,16 L74,14 Z M80,10 L84,10 L84,18 L76,18 L76,16 L82,16 L82,12 L80,12 L80,10 Z" id="形状"></path>
                <path d="M94,8 L90,8 L90,6 L94,6 L94,8 Z M86,6 L88,6 L88,8 L90,8 L90,10 L88,10 L88,18 L86,18 L86,6 Z" id="形状"></path>
                <path d="M104,8 L98,8 L98,6 L104,6 L104,8 Z M96,12 L98,12 L98,16 L96,16 L96,12 Z M106,18 L98,18 L98,16 L104,16 L104,12 L98,12 L98,10 L104,10 L104,8 L106,8 L106,18 Z" id="形状"></path>
                <path d="M112,0 L116,0 L116,2 L112,2 L112,0 Z M110,8 L108,8 L108,6 L110,6 L110,2 L112,2 L112,6 L116,6 L116,8 L112,8 L112,18 L110,18 L110,8 Z" id="形状"></path>
                <path d="M118,6 L120,6 L120,8 L118,8 L118,6 Z M126,6 L128,6 L128,8 L126,8 L126,6 Z M120,8 L122,8 L122,10 L120,10 L120,8 Z M124,8 L126,8 L126,10 L124,10 L124,8 Z M122,10 L124,10 L124,14 L122,14 L122,10 Z M120,14 L122,14 L122,16 L120,16 L120,14 Z M124,14 L126,14 L126,16 L124,16 L124,14 Z M118,16 L120,16 L120,18 L118,18 L118,16 Z M126,16 L128,16 L128,18 L126,18 L126,16 Z" id="形状"></path>
            </g>
        </g>
    </g>
</svg>