<?xml version="1.0" encoding="UTF-8"?>
<svg width="372px" height="40px" viewBox="0 0 372 40" version="1.1" xmlns="http://www.w3.org/2000/svg" xmlns:xlink="http://www.w3.org/1999/xlink">
    <title>supervision</title>
    <g id="system-list" stroke="none" stroke-width="1" fill="none" fill-rule="evenodd">
        <g id="supervision">
            <rect id="矩形备份-6" x="0" y="0" width="372" height="40"></rect>
            <g id="Watara-Supervision" transform="translate(24, 0)" fill="#FFFFFF" fill-rule="nonzero">
                <path d="M0,0 L2,0 L2,6 L0,6 L0,0 Z M8,0 L10,0 L10,6 L8,6 L8,0 Z M16,0 L18,0 L18,6 L16,6 L16,0 Z M2,6 L4,6 L4,12 L2,12 L2,6 Z M6,6 L8,6 L8,12 L6,12 L6,6 Z M10,6 L12,6 L12,12 L10,12 L10,6 Z M14,6 L16,6 L16,12 L14,12 L14,6 Z M4,12 L6,12 L6,18 L4,18 L4,12 Z M12,12 L14,12 L14,18 L12,18 L12,12 Z" id="形状"></path>
                <path d="M28,8 L22,8 L22,6 L28,6 L28,8 Z M20,12 L22,12 L22,16 L20,16 L20,12 Z M30,18 L22,18 L22,16 L28,16 L28,12 L22,12 L22,10 L28,10 L28,8 L30,8 L30,18 Z" id="形状"></path>
                <path d="M34,8 L32,8 L32,6 L34,6 L34,0 L36,0 L36,6 L40,6 L40,8 L36,8 L36,16 L34,16 L34,8 Z M40,18 L36,18 L36,16 L40,16 L40,18 Z" id="形状"></path>
                <path d="M50,8 L44,8 L44,6 L50,6 L50,8 Z M42,12 L44,12 L44,16 L42,16 L42,12 Z M52,18 L44,18 L44,16 L50,16 L50,12 L44,12 L44,10 L50,10 L50,8 L52,8 L52,18 Z" id="形状"></path>
                <path d="M62,8 L58,8 L58,6 L62,6 L62,8 Z M54,6 L56,6 L56,8 L58,8 L58,10 L56,10 L56,18 L54,18 L54,6 Z" id="形状"></path>
                <path d="M72,8 L66,8 L66,6 L72,6 L72,8 Z M64,12 L66,12 L66,16 L64,16 L64,12 Z M74,18 L66,18 L66,16 L72,16 L72,12 L66,12 L66,10 L72,10 L72,8 L74,8 L74,18 Z" id="形状"></path>
                <path d="M98,2 L90,2 L90,0 L98,0 L98,2 Z M98,2 L100,2 L100,4 L98,4 L98,2 Z M88,2 L90,2 L90,6 L88,6 L88,2 Z M90,6 L92,6 L92,8 L90,8 L90,6 Z M92,8 L96,8 L96,10 L92,10 L92,8 Z M96,10 L98,10 L98,12 L96,12 L96,10 Z M88,14 L90,14 L90,16 L88,16 L88,14 Z M98,12 L100,12 L100,16 L98,16 L98,12 Z M98,16 L98,18 L90,18 L90,16 L98,16 Z" id="形状"></path>
                <path d="M102,6 L104,6 L104,16 L102,16 L102,6 Z M104,16 L108,16 L108,18 L104,18 L104,16 Z M110,6 L112,6 L112,18 L110,18 L110,16 L108,16 L108,14 L110,14 L110,6 Z" id="形状"></path>
                <path d="M122,8 L124,8 L124,16 L122,16 L122,8 Z M122,8 L116,8 L116,16 L122,16 L122,18 L116,18 L116,22 L114,22 L114,6 L122,6 L122,8 Z" id="形状"></path>
                <path d="M134,8 L128,8 L128,6 L134,6 L134,8 Z M136,12 L128,12 L128,16 L126,16 L126,8 L128,8 L128,10 L134,10 L134,8 L136,8 L136,12 Z M134,14 L136,14 L136,16 L134,16 L134,14 Z M134,18 L128,18 L128,16 L134,16 L134,18 Z" id="形状"></path>
                <path d="M146,8 L142,8 L142,6 L146,6 L146,8 Z M138,6 L140,6 L140,8 L142,8 L142,10 L140,10 L140,18 L138,18 L138,6 Z" id="形状"></path>
                <path d="M148,6 L150,6 L150,10 L148,10 L148,6 Z M156,6 L158,6 L158,10 L156,10 L156,6 Z M150,10 L152,10 L152,14 L150,14 L150,10 Z M154,10 L156,10 L156,14 L154,14 L154,10 Z M152,14 L154,14 L154,18 L152,18 L152,14 Z" id="形状"></path>
                <path d="M162,0 L164,0 L164,2 L162,2 L162,0 Z M162,8 L160,8 L160,6 L164,6 L164,16 L166,16 L166,18 L160,18 L160,16 L162,16 L162,8 Z" id="形状"></path>
                <path d="M176,8 L170,8 L170,6 L176,6 L176,8 Z M168,8 L170,8 L170,10 L168,10 L168,8 Z M176,8 L178,8 L178,10 L176,10 L176,8 Z M174,12 L170,12 L170,10 L174,10 L174,12 Z M174,12 L176,12 L176,14 L174,14 L174,12 Z M168,14 L170,14 L170,16 L168,16 L168,14 Z M176,14 L178,14 L178,16 L176,16 L176,14 Z M176,18 L170,18 L170,16 L176,16 L176,18 Z" id="形状"></path>
                <path d="M182,0 L184,0 L184,2 L182,2 L182,0 Z M182,8 L180,8 L180,6 L184,6 L184,16 L186,16 L186,18 L180,18 L180,16 L182,16 L182,8 Z" id="形状"></path>
                <path d="M196,8 L190,8 L190,6 L196,6 L196,8 Z M188,8 L190,8 L190,16 L188,16 L188,8 Z M196,8 L198,8 L198,16 L196,16 L196,8 Z M196,18 L190,18 L190,16 L196,16 L196,18 Z" id="形状"></path>
                <path d="M208,8 L204,8 L204,6 L208,6 L208,8 Z M200,6 L202,6 L202,8 L204,8 L204,10 L202,10 L202,18 L200,18 L200,6 Z M208,8 L210,8 L210,18 L208,18 L208,8 Z" id="形状"></path>
            </g>
        </g>
    </g>
</svg>