<?xml version="1.0" encoding="UTF-8"?>
<svg width="372px" height="40px" viewBox="0 0 372 40" version="1.1" xmlns="http://www.w3.org/2000/svg" xmlns:xlink="http://www.w3.org/1999/xlink">
    <title>taito</title>
    <g id="system-list" stroke="none" stroke-width="1" fill="none" fill-rule="evenodd">
        <g id="taito">
            <rect id="矩形备份-6" x="0" y="0" width="372" height="40"></rect>
            <g id="Taito" transform="translate(24, 0)" fill="#FFFFFF" fill-rule="nonzero">
                <polygon id="路径" points="6 2 0 2 0 0 14 0 14 2 8 2 8 18 6 18"></polygon>
                <path d="M24,8 L18,8 L18,6 L24,6 L24,8 Z M16,12 L18,12 L18,16 L16,16 L16,12 Z M26,18 L18,18 L18,16 L24,16 L24,12 L18,12 L18,10 L24,10 L24,8 L26,8 L26,18 Z" id="形状"></path>
                <path d="M30,0 L32,0 L32,2 L30,2 L30,0 Z M30,8 L28,8 L28,6 L32,6 L32,16 L34,16 L34,18 L28,18 L28,16 L30,16 L30,8 Z" id="形状"></path>
                <path d="M38,8 L36,8 L36,6 L38,6 L38,0 L40,0 L40,6 L44,6 L44,8 L40,8 L40,16 L38,16 L38,8 Z M44,18 L40,18 L40,16 L44,16 L44,18 Z" id="形状"></path>
                <path d="M54,8 L48,8 L48,6 L54,6 L54,8 Z M46,8 L48,8 L48,16 L46,16 L46,8 Z M54,8 L56,8 L56,16 L54,16 L54,8 Z M54,18 L48,18 L48,16 L54,16 L54,18 Z" id="形状"></path>
            </g>
        </g>
    </g>
</svg>