<?xml version="1.0" encoding="UTF-8"?>
<svg width="372px" height="40px" viewBox="0 0 372 40" version="1.1" xmlns="http://www.w3.org/2000/svg" xmlns:xlink="http://www.w3.org/1999/xlink">
    <title>tg-cd</title>
    <g id="system-list" stroke="none" stroke-width="1" fill="none" fill-rule="evenodd">
        <g id="tg-cd">
            <rect id="矩形备份-6" x="0" y="0" width="372" height="40"></rect>
            <g id="TurboGrafx-CD" transform="translate(24, 0)" fill="#FFFFFF" fill-rule="nonzero">
                <polygon id="路径" points="6 2 0 2 0 0 14 0 14 2 8 2 8 18 6 18"></polygon>
                <path d="M16,6 L18,6 L18,16 L16,16 L16,6 Z M18,16 L22,16 L22,18 L18,18 L18,16 Z M24,6 L26,6 L26,18 L24,18 L24,16 L22,16 L22,14 L24,14 L24,6 Z" id="形状"></path>
                <path d="M36,8 L32,8 L32,6 L36,6 L36,8 Z M28,6 L30,6 L30,8 L32,8 L32,10 L30,10 L30,18 L28,18 L28,6 Z" id="形状"></path>
                <path d="M46,8 L48,8 L48,16 L46,16 L46,8 Z M38,0 L40,0 L40,6 L46,6 L46,8 L40,8 L40,16 L46,16 L46,18 L38,18 L38,0 Z" id="形状"></path>
                <path d="M58,8 L52,8 L52,6 L58,6 L58,8 Z M50,8 L52,8 L52,16 L50,16 L50,8 Z M58,8 L60,8 L60,16 L58,16 L58,8 Z M58,18 L52,18 L52,16 L58,16 L58,18 Z" id="形状"></path>
                <path d="M72,2 L66,2 L66,0 L72,0 L72,2 Z M64,2 L66,2 L66,4 L64,4 L64,2 Z M72,2 L74,2 L74,4 L72,4 L72,2 Z M62,4 L64,4 L64,14 L62,14 L62,4 Z M64,14 L66,14 L66,16 L64,16 L64,14 Z M70,10 L74,10 L74,18 L66,18 L66,16 L72,16 L72,12 L70,12 L70,10 Z" id="形状"></path>
                <path d="M84,8 L80,8 L80,6 L84,6 L84,8 Z M76,6 L78,6 L78,8 L80,8 L80,10 L78,10 L78,18 L76,18 L76,6 Z" id="形状"></path>
                <path d="M94,8 L88,8 L88,6 L94,6 L94,8 Z M86,12 L88,12 L88,16 L86,16 L86,12 Z M96,18 L88,18 L88,16 L94,16 L94,12 L88,12 L88,10 L94,10 L94,8 L96,8 L96,18 Z" id="形状"></path>
                <path d="M102,0 L106,0 L106,2 L102,2 L102,0 Z M100,8 L98,8 L98,6 L100,6 L100,2 L102,2 L102,6 L106,6 L106,8 L102,8 L102,18 L100,18 L100,8 Z" id="形状"></path>
                <path d="M108,6 L110,6 L110,8 L108,8 L108,6 Z M116,6 L118,6 L118,8 L116,8 L116,6 Z M110,8 L112,8 L112,10 L110,10 L110,8 Z M114,8 L116,8 L116,10 L114,10 L114,8 Z M112,10 L114,10 L114,14 L112,14 L112,10 Z M110,14 L112,14 L112,16 L110,16 L110,14 Z M114,14 L116,14 L116,16 L114,16 L114,14 Z M108,16 L110,16 L110,18 L108,18 L108,16 Z M116,16 L118,16 L118,18 L116,18 L116,16 Z" id="形状"></path>
                <path d="M142,2 L136,2 L136,0 L142,0 L142,2 Z M134,2 L136,2 L136,4 L134,4 L134,2 Z M142,2 L144,2 L144,4 L142,4 L142,2 Z M132,4 L134,4 L134,14 L132,14 L132,4 Z M134,14 L136,14 L136,16 L134,16 L134,14 Z M142,14 L144,14 L144,16 L142,16 L142,14 Z M142,16 L142,18 L136,18 L136,16 L142,16 Z" id="形状"></path>
                <path d="M154,2 L156,2 L156,4 L154,4 L154,2 Z M156,4 L158,4 L158,14 L156,14 L156,4 Z M154,14 L156,14 L156,16 L154,16 L154,14 Z M146,0 L154,0 L154,2 L148,2 L148,16 L154,16 L154,18 L146,18 L146,0 Z" id="形状"></path>
            </g>
        </g>
    </g>
</svg>