<?xml version="1.0" encoding="UTF-8"?>
<svg width="372px" height="40px" viewBox="0 0 372 40" version="1.1" xmlns="http://www.w3.org/2000/svg" xmlns:xlink="http://www.w3.org/1999/xlink">
    <title>thomson</title>
    <g id="system-list" stroke="none" stroke-width="1" fill="none" fill-rule="evenodd">
        <g id="thomson">
            <rect id="矩形备份-6" x="0" y="0" width="372" height="40"></rect>
            <g id="Thomson" transform="translate(24, 0)" fill="#FFFFFF" fill-rule="nonzero">
                <polygon id="路径" points="6 2 0 2 0 0 14 0 14 2 8 2 8 18 6 18"></polygon>
                <path d="M24,8 L20,8 L20,6 L24,6 L24,8 Z M16,0 L18,0 L18,8 L20,8 L20,10 L18,10 L18,18 L16,18 L16,0 Z M24,8 L26,8 L26,18 L24,18 L24,8 Z" id="形状"></path>
                <path d="M36,8 L30,8 L30,6 L36,6 L36,8 Z M28,8 L30,8 L30,16 L28,16 L28,8 Z M36,8 L38,8 L38,16 L36,16 L36,8 Z M36,18 L30,18 L30,16 L36,16 L36,18 Z" id="形状"></path>
                <path d="M48,6 L52,6 L52,8 L48,8 L48,6 Z M40,6 L46,6 L46,8 L42,8 L42,18 L40,18 L40,6 Z M46,8 L48,8 L48,18 L46,18 L46,8 Z M52,8 L54,8 L54,18 L52,18 L52,8 Z" id="形状"></path>
                <path d="M64,8 L58,8 L58,6 L64,6 L64,8 Z M56,8 L58,8 L58,10 L56,10 L56,8 Z M64,8 L66,8 L66,10 L64,10 L64,8 Z M62,12 L58,12 L58,10 L62,10 L62,12 Z M62,12 L64,12 L64,14 L62,14 L62,12 Z M56,14 L58,14 L58,16 L56,16 L56,14 Z M64,14 L66,14 L66,16 L64,16 L64,14 Z M64,18 L58,18 L58,16 L64,16 L64,18 Z" id="形状"></path>
                <path d="M76,8 L70,8 L70,6 L76,6 L76,8 Z M68,8 L70,8 L70,16 L68,16 L68,8 Z M76,8 L78,8 L78,16 L76,16 L76,8 Z M76,18 L70,18 L70,16 L76,16 L76,18 Z" id="形状"></path>
                <path d="M88,8 L84,8 L84,6 L88,6 L88,8 Z M80,6 L82,6 L82,8 L84,8 L84,10 L82,10 L82,18 L80,18 L80,6 Z M88,8 L90,8 L90,18 L88,18 L88,8 Z" id="形状"></path>
            </g>
        </g>
    </g>
</svg>