<?xml version="1.0" encoding="UTF-8"?>
<svg width="372px" height="40px" viewBox="0 0 372 40" version="1.1" xmlns="http://www.w3.org/2000/svg" xmlns:xlink="http://www.w3.org/1999/xlink">
    <title>ti83</title>
    <g id="system-list" stroke="none" stroke-width="1" fill="none" fill-rule="evenodd">
        <g id="ti83">
            <rect id="矩形备份-6" x="0" y="0" width="372" height="40"></rect>
            <g id="TI-83" transform="translate(24, 0)" fill="#FFFFFF" fill-rule="nonzero">
                <polygon id="路径" points="6 2 0 2 0 0 14 0 14 2 8 2 8 18 6 18"></polygon>
                <polygon id="路径" points="18 2 16 2 16 0 22 0 22 2 20 2 20 16 22 16 22 18 16 18 16 16 18 16"></polygon>
                <polygon id="路径" points="34 8 34 10 24 10 24 8"></polygon>
                <path d="M44,0 L44,2 L38,2 L38,0 L44,0 Z M36,2 L38,2 L38,8 L36,8 L36,2 Z M44,2 L46,2 L46,8 L44,8 L44,2 Z M44,8 L44,10 L38,10 L38,8 L44,8 Z M36,10 L38,10 L38,16 L36,16 L36,10 Z M44,10 L46,10 L46,16 L44,16 L44,10 Z M44,18 L38,18 L38,16 L44,16 L44,18 Z" id="形状"></path>
                <path d="M56,0 L56,2 L50,2 L50,0 L56,0 Z M48,2 L50,2 L50,4 L48,4 L48,2 Z M56,2 L58,2 L58,8 L56,8 L56,2 Z M52,8 L56,8 L56,10 L52,10 L52,8 Z M48,14 L50,14 L50,16 L48,16 L48,14 Z M56,10 L58,10 L58,16 L56,16 L56,10 Z M56,18 L50,18 L50,16 L56,16 L56,18 Z" id="形状"></path>
            </g>
        </g>
    </g>
</svg>