<?xml version="1.0" encoding="UTF-8"?>
<svg width="372px" height="40px" viewBox="0 0 372 40" version="1.1" xmlns="http://www.w3.org/2000/svg" xmlns:xlink="http://www.w3.org/1999/xlink">
    <title>tigerlcd</title>
    <g id="system-list" stroke="none" stroke-width="1" fill="none" fill-rule="evenodd">
        <g id="tigerlcd">
            <rect id="矩形备份-6" x="0" y="0" width="372" height="40"></rect>
            <g id="Tiger-LCD" transform="translate(24, 0)" fill="#FFFFFF" fill-rule="nonzero">
                <polygon id="路径" points="6 2 0 2 0 0 14 0 14 2 8 2 8 18 6 18"></polygon>
                <path d="M18,0 L20,0 L20,2 L18,2 L18,0 Z M18,8 L16,8 L16,6 L20,6 L20,16 L22,16 L22,18 L16,18 L16,16 L18,16 L18,8 Z" id="形状"></path>
                <path d="M24,8 L26,8 L26,16 L24,16 L24,8 Z M32,8 L26,8 L26,6 L34,6 L34,20 L32,20 L32,18 L26,18 L26,16 L32,16 L32,8 Z M32,20 L32,22 L26,22 L26,20 L32,20 Z" id="形状"></path>
                <path d="M44,8 L38,8 L38,6 L44,6 L44,8 Z M46,12 L38,12 L38,16 L36,16 L36,8 L38,8 L38,10 L44,10 L44,8 L46,8 L46,12 Z M44,14 L46,14 L46,16 L44,16 L44,14 Z M44,18 L38,18 L38,16 L44,16 L44,18 Z" id="形状"></path>
                <path d="M56,8 L52,8 L52,6 L56,6 L56,8 Z M48,6 L50,6 L50,8 L52,8 L52,10 L50,10 L50,18 L48,18 L48,6 Z" id="形状"></path>
                <polygon id="路径" points="70 0 72 0 72 16 80 16 80 18 70 18"></polygon>
                <path d="M92,2 L86,2 L86,0 L92,0 L92,2 Z M84,2 L86,2 L86,4 L84,4 L84,2 Z M92,2 L94,2 L94,4 L92,4 L92,2 Z M82,4 L84,4 L84,14 L82,14 L82,4 Z M84,14 L86,14 L86,16 L84,16 L84,14 Z M92,14 L94,14 L94,16 L92,16 L92,14 Z M92,16 L92,18 L86,18 L86,16 L92,16 Z" id="形状"></path>
                <path d="M104,2 L106,2 L106,4 L104,4 L104,2 Z M106,4 L108,4 L108,14 L106,14 L106,4 Z M104,14 L106,14 L106,16 L104,16 L104,14 Z M96,0 L104,0 L104,2 L98,2 L98,16 L104,16 L104,18 L96,18 L96,0 Z" id="形状"></path>
            </g>
        </g>
    </g>
</svg>