<?xml version="1.0" encoding="UTF-8"?>
<svg width="372px" height="40px" viewBox="0 0 372 40" version="1.1" xmlns="http://www.w3.org/2000/svg" xmlns:xlink="http://www.w3.org/1999/xlink">
    <title>tvc</title>
    <g id="system-list" stroke="none" stroke-width="1" fill="none" fill-rule="evenodd">
        <g id="tvc">
            <rect id="矩形备份-6" x="0" y="0" width="372" height="40"></rect>
            <g id="Videoton-TV-Computer" transform="translate(24, 0)" fill="#FFFFFF" fill-rule="nonzero">
                <path d="M0,0 L2,0 L2,4 L0,4 L0,0 Z M12,0 L14,0 L14,4 L12,4 L12,0 Z M2,4 L4,4 L4,10 L2,10 L2,4 Z M10,4 L12,4 L12,10 L10,10 L10,4 Z M4,10 L6,10 L6,14 L4,14 L4,10 Z M8,10 L10,10 L10,14 L8,14 L8,10 Z M6,14 L8,14 L8,18 L6,18 L6,14 Z" id="形状"></path>
                <path d="M18,0 L20,0 L20,2 L18,2 L18,0 Z M18,8 L16,8 L16,6 L20,6 L20,16 L22,16 L22,18 L16,18 L16,16 L18,16 L18,8 Z" id="形状"></path>
                <path d="M24,8 L26,8 L26,16 L24,16 L24,8 Z M32,8 L26,8 L26,6 L32,6 L32,0 L34,0 L34,18 L26,18 L26,16 L32,16 L32,8 Z" id="形状"></path>
                <path d="M44,8 L38,8 L38,6 L44,6 L44,8 Z M46,12 L38,12 L38,16 L36,16 L36,8 L38,8 L38,10 L44,10 L44,8 L46,8 L46,12 Z M44,14 L46,14 L46,16 L44,16 L44,14 Z M44,18 L38,18 L38,16 L44,16 L44,18 Z" id="形状"></path>
                <path d="M56,8 L50,8 L50,6 L56,6 L56,8 Z M48,8 L50,8 L50,16 L48,16 L48,8 Z M56,8 L58,8 L58,16 L56,16 L56,8 Z M56,18 L50,18 L50,16 L56,16 L56,18 Z" id="形状"></path>
                <path d="M62,8 L60,8 L60,6 L62,6 L62,0 L64,0 L64,6 L68,6 L68,8 L64,8 L64,16 L62,16 L62,8 Z M68,18 L64,18 L64,16 L68,16 L68,18 Z" id="形状"></path>
                <path d="M78,8 L72,8 L72,6 L78,6 L78,8 Z M70,8 L72,8 L72,16 L70,16 L70,8 Z M78,8 L80,8 L80,16 L78,16 L78,8 Z M78,18 L72,18 L72,16 L78,16 L78,18 Z" id="形状"></path>
                <path d="M90,8 L86,8 L86,6 L90,6 L90,8 Z M82,6 L84,6 L84,8 L86,8 L86,10 L84,10 L84,18 L82,18 L82,6 Z M90,8 L92,8 L92,18 L90,18 L90,8 Z" id="形状"></path>
                <polygon id="路径" points="112 2 106 2 106 0 120 0 120 2 114 2 114 18 112 18"></polygon>
                <path d="M122,0 L124,0 L124,4 L122,4 L122,0 Z M134,0 L136,0 L136,4 L134,4 L134,0 Z M124,4 L126,4 L126,10 L124,10 L124,4 Z M132,4 L134,4 L134,10 L132,10 L132,4 Z M126,10 L128,10 L128,14 L126,14 L126,10 Z M130,10 L132,10 L132,14 L130,14 L130,10 Z M128,14 L130,14 L130,18 L128,18 L128,14 Z" id="形状"></path>
                <polygon id="路径" points="148 8 148 10 138 10 138 8"></polygon>
                <path d="M160,2 L154,2 L154,0 L160,0 L160,2 Z M152,2 L154,2 L154,4 L152,4 L152,2 Z M160,2 L162,2 L162,4 L160,4 L160,2 Z M150,4 L152,4 L152,14 L150,14 L150,4 Z M152,14 L154,14 L154,16 L152,16 L152,14 Z M160,14 L162,14 L162,16 L160,16 L160,14 Z M160,16 L160,18 L154,18 L154,16 L160,16 Z" id="形状"></path>
                <path d="M172,8 L166,8 L166,6 L172,6 L172,8 Z M164,8 L166,8 L166,16 L164,16 L164,8 Z M172,8 L174,8 L174,16 L172,16 L172,8 Z M172,18 L166,18 L166,16 L172,16 L172,18 Z" id="形状"></path>
                <path d="M184,6 L188,6 L188,8 L184,8 L184,6 Z M176,6 L182,6 L182,8 L178,8 L178,18 L176,18 L176,6 Z M182,8 L184,8 L184,18 L182,18 L182,8 Z M188,8 L190,8 L190,18 L188,18 L188,8 Z" id="形状"></path>
                <path d="M200,8 L202,8 L202,16 L200,16 L200,8 Z M200,8 L194,8 L194,16 L200,16 L200,18 L194,18 L194,22 L192,22 L192,6 L200,6 L200,8 Z" id="形状"></path>
                <path d="M204,6 L206,6 L206,16 L204,16 L204,6 Z M206,16 L210,16 L210,18 L206,18 L206,16 Z M212,6 L214,6 L214,18 L212,18 L212,16 L210,16 L210,14 L212,14 L212,6 Z" id="形状"></path>
                <path d="M218,8 L216,8 L216,6 L218,6 L218,0 L220,0 L220,6 L224,6 L224,8 L220,8 L220,16 L218,16 L218,8 Z M224,18 L220,18 L220,16 L224,16 L224,18 Z" id="形状"></path>
                <path d="M234,8 L228,8 L228,6 L234,6 L234,8 Z M236,12 L228,12 L228,16 L226,16 L226,8 L228,8 L228,10 L234,10 L234,8 L236,8 L236,12 Z M234,14 L236,14 L236,16 L234,16 L234,14 Z M234,18 L228,18 L228,16 L234,16 L234,18 Z" id="形状"></path>
                <path d="M246,8 L242,8 L242,6 L246,6 L246,8 Z M238,6 L240,6 L240,8 L242,8 L242,10 L240,10 L240,18 L238,18 L238,6 Z" id="形状"></path>
            </g>
        </g>
    </g>
</svg>