<?xml version="1.0" encoding="UTF-8"?>
<svg width="372px" height="40px" viewBox="0 0 372 40" version="1.1" xmlns="http://www.w3.org/2000/svg" xmlns:xlink="http://www.w3.org/1999/xlink">
    <title>vectrex</title>
    <g id="system-list" stroke="none" stroke-width="1" fill="none" fill-rule="evenodd">
        <g id="vectrex">
            <rect id="矩形备份-6" x="0" y="0" width="372" height="40"></rect>
            <g id="Vectrex" transform="translate(24, 0)" fill="#FFFFFF" fill-rule="nonzero">
                <path d="M0,0 L2,0 L2,4 L0,4 L0,0 Z M12,0 L14,0 L14,4 L12,4 L12,0 Z M2,4 L4,4 L4,10 L2,10 L2,4 Z M10,4 L12,4 L12,10 L10,10 L10,4 Z M4,10 L6,10 L6,14 L4,14 L4,10 Z M8,10 L10,10 L10,14 L8,14 L8,10 Z M6,14 L8,14 L8,18 L6,18 L6,14 Z" id="形状"></path>
                <path d="M24,8 L18,8 L18,6 L24,6 L24,8 Z M26,12 L18,12 L18,16 L16,16 L16,8 L18,8 L18,10 L24,10 L24,8 L26,8 L26,12 Z M24,14 L26,14 L26,16 L24,16 L24,14 Z M24,18 L18,18 L18,16 L24,16 L24,18 Z" id="形状"></path>
                <path d="M36,8 L30,8 L30,6 L36,6 L36,8 Z M36,8 L38,8 L38,10 L36,10 L36,8 Z M28,8 L30,8 L30,16 L28,16 L28,8 Z M36,14 L38,14 L38,16 L36,16 L36,14 Z M36,18 L30,18 L30,16 L36,16 L36,18 Z" id="形状"></path>
                <path d="M42,8 L40,8 L40,6 L42,6 L42,0 L44,0 L44,6 L48,6 L48,8 L44,8 L44,16 L42,16 L42,8 Z M48,18 L44,18 L44,16 L48,16 L48,18 Z" id="形状"></path>
                <path d="M58,8 L54,8 L54,6 L58,6 L58,8 Z M50,6 L52,6 L52,8 L54,8 L54,10 L52,10 L52,18 L50,18 L50,6 Z" id="形状"></path>
                <path d="M68,8 L62,8 L62,6 L68,6 L68,8 Z M70,12 L62,12 L62,16 L60,16 L60,8 L62,8 L62,10 L68,10 L68,8 L70,8 L70,12 Z M68,14 L70,14 L70,16 L68,16 L68,14 Z M68,18 L62,18 L62,16 L68,16 L68,18 Z" id="形状"></path>
                <path d="M72,6 L74,6 L74,8 L72,8 L72,6 Z M80,6 L82,6 L82,8 L80,8 L80,6 Z M74,8 L76,8 L76,10 L74,10 L74,8 Z M78,8 L80,8 L80,10 L78,10 L78,8 Z M76,10 L78,10 L78,14 L76,14 L76,10 Z M74,14 L76,14 L76,16 L74,16 L74,14 Z M78,14 L80,14 L80,16 L78,16 L78,14 Z M72,16 L74,16 L74,18 L72,18 L72,16 Z M80,16 L82,16 L82,18 L80,18 L80,16 Z" id="形状"></path>
            </g>
        </g>
    </g>
</svg>