<?xml version="1.0" encoding="UTF-8"?>
<svg width="372px" height="40px" viewBox="0 0 372 40" version="1.1" xmlns="http://www.w3.org/2000/svg" xmlns:xlink="http://www.w3.org/1999/xlink">
    <title>vic20</title>
    <g id="system-list" stroke="none" stroke-width="1" fill="none" fill-rule="evenodd">
        <g id="vic20">
            <rect id="矩形备份-6" x="0" y="0" width="372" height="40"></rect>
            <g id="Commodore-Vic-20" transform="translate(24, 0)" fill="#FFFFFF" fill-rule="nonzero">
                <path d="M10,2 L4,2 L4,0 L10,0 L10,2 Z M2,2 L4,2 L4,4 L2,4 L2,2 Z M10,2 L12,2 L12,4 L10,4 L10,2 Z M0,4 L2,4 L2,14 L0,14 L0,4 Z M2,14 L4,14 L4,16 L2,16 L2,14 Z M10,14 L12,14 L12,16 L10,16 L10,14 Z M10,16 L10,18 L4,18 L4,16 L10,16 Z" id="形状"></path>
                <path d="M22,8 L16,8 L16,6 L22,6 L22,8 Z M14,8 L16,8 L16,16 L14,16 L14,8 Z M22,8 L24,8 L24,16 L22,16 L22,8 Z M22,18 L16,18 L16,16 L22,16 L22,18 Z" id="形状"></path>
                <path d="M34,6 L38,6 L38,8 L34,8 L34,6 Z M26,6 L32,6 L32,8 L28,8 L28,18 L26,18 L26,6 Z M32,8 L34,8 L34,18 L32,18 L32,8 Z M38,8 L40,8 L40,18 L38,18 L38,8 Z" id="形状"></path>
                <path d="M50,6 L54,6 L54,8 L50,8 L50,6 Z M42,6 L48,6 L48,8 L44,8 L44,18 L42,18 L42,6 Z M48,8 L50,8 L50,18 L48,18 L48,8 Z M54,8 L56,8 L56,18 L54,18 L54,8 Z" id="形状"></path>
                <path d="M66,8 L60,8 L60,6 L66,6 L66,8 Z M58,8 L60,8 L60,16 L58,16 L58,8 Z M66,8 L68,8 L68,16 L66,16 L66,8 Z M66,18 L60,18 L60,16 L66,16 L66,18 Z" id="形状"></path>
                <path d="M70,8 L72,8 L72,16 L70,16 L70,8 Z M78,8 L72,8 L72,6 L78,6 L78,0 L80,0 L80,18 L72,18 L72,16 L78,16 L78,8 Z" id="形状"></path>
                <path d="M90,8 L84,8 L84,6 L90,6 L90,8 Z M82,8 L84,8 L84,16 L82,16 L82,8 Z M90,8 L92,8 L92,16 L90,16 L90,8 Z M90,18 L84,18 L84,16 L90,16 L90,18 Z" id="形状"></path>
                <path d="M102,8 L98,8 L98,6 L102,6 L102,8 Z M94,6 L96,6 L96,8 L98,8 L98,10 L96,10 L96,18 L94,18 L94,6 Z" id="形状"></path>
                <path d="M112,8 L106,8 L106,6 L112,6 L112,8 Z M114,12 L106,12 L106,16 L104,16 L104,8 L106,8 L106,10 L112,10 L112,8 L114,8 L114,12 Z M112,14 L114,14 L114,16 L112,16 L112,14 Z M112,18 L106,18 L106,16 L112,16 L112,18 Z" id="形状"></path>
                <path d="M128,0 L130,0 L130,4 L128,4 L128,0 Z M140,0 L142,0 L142,4 L140,4 L140,0 Z M130,4 L132,4 L132,10 L130,10 L130,4 Z M138,4 L140,4 L140,10 L138,10 L138,4 Z M132,10 L134,10 L134,14 L132,14 L132,10 Z M136,10 L138,10 L138,14 L136,14 L136,10 Z M134,14 L136,14 L136,18 L134,18 L134,14 Z" id="形状"></path>
                <path d="M146,0 L148,0 L148,2 L146,2 L146,0 Z M146,8 L144,8 L144,6 L148,6 L148,16 L150,16 L150,18 L144,18 L144,16 L146,16 L146,8 Z" id="形状"></path>
                <path d="M160,8 L154,8 L154,6 L160,6 L160,8 Z M160,8 L162,8 L162,10 L160,10 L160,8 Z M152,8 L154,8 L154,16 L152,16 L152,8 Z M160,14 L162,14 L162,16 L160,16 L160,14 Z M160,18 L154,18 L154,16 L160,16 L160,18 Z" id="形状"></path>
                <polygon id="路径" points="174 8 174 10 164 10 164 8"></polygon>
                <path d="M184,0 L184,2 L178,2 L178,0 L184,0 Z M176,2 L178,2 L178,4 L176,4 L176,2 Z M184,2 L186,2 L186,8 L184,8 L184,2 Z M182,8 L184,8 L184,10 L182,10 L182,8 Z M180,10 L182,10 L182,12 L180,12 L180,10 Z M178,12 L180,12 L180,14 L178,14 L178,12 Z M176,14 L178,14 L178,16 L186,16 L186,18 L176,18 L176,14 Z" id="形状"></path>
                <path d="M196,0 L196,2 L190,2 L190,0 L196,0 Z M192,8 L194,8 L194,10 L192,10 L192,8 Z M188,2 L190,2 L190,10 L192,10 L192,12 L190,12 L190,16 L188,16 L188,2 Z M196,8 L194,8 L194,6 L196,6 L196,2 L198,2 L198,16 L196,16 L196,8 Z M196,18 L190,18 L190,16 L196,16 L196,18 Z" id="形状"></path>
            </g>
        </g>
    </g>
</svg>