<?xml version="1.0" encoding="UTF-8"?>
<svg width="372px" height="40px" viewBox="0 0 372 40" version="1.1" xmlns="http://www.w3.org/2000/svg" xmlns:xlink="http://www.w3.org/1999/xlink">
    <title>vircon32</title>
    <g id="system-list" stroke="none" stroke-width="1" fill="none" fill-rule="evenodd">
        <g id="vircon32">
            <rect id="矩形备份-6" x="0" y="0" width="372" height="40"></rect>
            <g id="Vircon32" transform="translate(24, 0)" fill="#FFFFFF" fill-rule="nonzero">
                <path d="M0,0 L2,0 L2,4 L0,4 L0,0 Z M12,0 L14,0 L14,4 L12,4 L12,0 Z M2,4 L4,4 L4,10 L2,10 L2,4 Z M10,4 L12,4 L12,10 L10,10 L10,4 Z M4,10 L6,10 L6,14 L4,14 L4,10 Z M8,10 L10,10 L10,14 L8,14 L8,10 Z M6,14 L8,14 L8,18 L6,18 L6,14 Z" id="形状"></path>
                <path d="M18,0 L20,0 L20,2 L18,2 L18,0 Z M18,8 L16,8 L16,6 L20,6 L20,16 L22,16 L22,18 L16,18 L16,16 L18,16 L18,8 Z" id="形状"></path>
                <path d="M32,8 L28,8 L28,6 L32,6 L32,8 Z M24,6 L26,6 L26,8 L28,8 L28,10 L26,10 L26,18 L24,18 L24,6 Z" id="形状"></path>
                <path d="M42,8 L36,8 L36,6 L42,6 L42,8 Z M42,8 L44,8 L44,10 L42,10 L42,8 Z M34,8 L36,8 L36,16 L34,16 L34,8 Z M42,14 L44,14 L44,16 L42,16 L42,14 Z M42,18 L36,18 L36,16 L42,16 L42,18 Z" id="形状"></path>
                <path d="M54,8 L48,8 L48,6 L54,6 L54,8 Z M46,8 L48,8 L48,16 L46,16 L46,8 Z M54,8 L56,8 L56,16 L54,16 L54,8 Z M54,18 L48,18 L48,16 L54,16 L54,18 Z" id="形状"></path>
                <path d="M66,8 L62,8 L62,6 L66,6 L66,8 Z M58,6 L60,6 L60,8 L62,8 L62,10 L60,10 L60,18 L58,18 L58,6 Z M66,8 L68,8 L68,18 L66,18 L66,8 Z" id="形状"></path>
                <path d="M78,0 L78,2 L72,2 L72,0 L78,0 Z M70,2 L72,2 L72,4 L70,4 L70,2 Z M78,2 L80,2 L80,8 L78,8 L78,2 Z M74,8 L78,8 L78,10 L74,10 L74,8 Z M70,14 L72,14 L72,16 L70,16 L70,14 Z M78,10 L80,10 L80,16 L78,16 L78,10 Z M78,18 L72,18 L72,16 L78,16 L78,18 Z" id="形状"></path>
                <path d="M90,0 L90,2 L84,2 L84,0 L90,0 Z M82,2 L84,2 L84,4 L82,4 L82,2 Z M90,2 L92,2 L92,8 L90,8 L90,2 Z M88,8 L90,8 L90,10 L88,10 L88,8 Z M86,10 L88,10 L88,12 L86,12 L86,10 Z M84,12 L86,12 L86,14 L84,14 L84,12 Z M82,14 L84,14 L84,16 L92,16 L92,18 L82,18 L82,14 Z" id="形状"></path>
            </g>
        </g>
    </g>
</svg>