<?xml version="1.0" encoding="UTF-8"?>
<svg width="372px" height="40px" viewBox="0 0 372 40" version="1.1" xmlns="http://www.w3.org/2000/svg" xmlns:xlink="http://www.w3.org/1999/xlink">
    <title>wasm4</title>
    <g id="system-list" stroke="none" stroke-width="1" fill="none" fill-rule="evenodd">
        <g id="wasm4">
            <rect id="矩形备份-6" x="0" y="0" width="372" height="40"></rect>
            <g id="WASM-4" transform="translate(24, 0)" fill="#FFFFFF" fill-rule="nonzero">
                <path d="M0,0 L2,0 L2,6 L0,6 L0,0 Z M8,0 L10,0 L10,6 L8,6 L8,0 Z M16,0 L18,0 L18,6 L16,6 L16,0 Z M2,6 L4,6 L4,12 L2,12 L2,6 Z M6,6 L8,6 L8,12 L6,12 L6,6 Z M10,6 L12,6 L12,12 L10,12 L10,6 Z M14,6 L16,6 L16,12 L14,12 L14,6 Z M4,12 L6,12 L6,18 L4,18 L4,12 Z M12,12 L14,12 L14,18 L12,18 L12,12 Z" id="形状"></path>
                <path d="M26,0 L28,0 L28,4 L26,4 L26,0 Z M24,4 L26,4 L26,8 L24,8 L24,4 Z M28,4 L30,4 L30,8 L28,8 L28,4 Z M30,10 L30,8 L32,8 L32,14 L30,14 L30,12 L24,12 L24,14 L22,14 L22,8 L24,8 L24,10 L30,10 Z M20,14 L22,14 L22,18 L20,18 L20,14 Z M32,14 L34,14 L34,18 L32,18 L32,14 Z" id="形状"></path>
                <path d="M46,2 L38,2 L38,0 L46,0 L46,2 Z M46,2 L48,2 L48,4 L46,4 L46,2 Z M36,2 L38,2 L38,6 L36,6 L36,2 Z M38,6 L40,6 L40,8 L38,8 L38,6 Z M40,8 L44,8 L44,10 L40,10 L40,8 Z M44,10 L46,10 L46,12 L44,12 L44,10 Z M36,14 L38,14 L38,16 L36,16 L36,14 Z M46,12 L48,12 L48,16 L46,16 L46,12 Z M46,16 L46,18 L38,18 L38,16 L46,16 Z" id="形状"></path>
                <path d="M54,6 L56,6 L56,10 L54,10 L54,6 Z M62,6 L64,6 L64,10 L62,10 L62,6 Z M56,10 L58,10 L58,14 L56,14 L56,10 Z M60,10 L62,10 L62,14 L60,14 L60,10 Z M50,0 L52,0 L52,2 L54,2 L54,6 L52,6 L52,18 L50,18 L50,0 Z M58,14 L60,14 L60,18 L58,18 L58,14 Z M66,6 L64,6 L64,2 L66,2 L66,0 L68,0 L68,18 L66,18 L66,6 Z" id="形状"></path>
                <polygon id="路径" points="80 8 80 10 70 10 70 8"></polygon>
                <path d="M84,2 L86,2 L86,8 L84,8 L84,2 Z M82,8 L84,8 L84,12 L88,12 L88,2 L86,2 L86,0 L90,0 L90,12 L92,12 L92,14 L90,14 L90,18 L88,18 L88,14 L82,14 L82,8 Z" id="形状"></path>
            </g>
        </g>
    </g>
</svg>