<?xml version="1.0" encoding="UTF-8"?>
<svg width="372px" height="40px" viewBox="0 0 372 40" version="1.1" xmlns="http://www.w3.org/2000/svg" xmlns:xlink="http://www.w3.org/1999/xlink">
    <title>wonderswancolor</title>
    <g id="system-list" stroke="none" stroke-width="1" fill="none" fill-rule="evenodd">
        <g id="wonderswancolor">
            <rect id="矩形备份-6" x="0" y="0" width="372" height="40"></rect>
            <g id="WonderSwan-Color" transform="translate(24, 0)" fill="#FFFFFF" fill-rule="nonzero">
                <path d="M0,0 L2,0 L2,6 L0,6 L0,0 Z M8,0 L10,0 L10,6 L8,6 L8,0 Z M16,0 L18,0 L18,6 L16,6 L16,0 Z M2,6 L4,6 L4,12 L2,12 L2,6 Z M6,6 L8,6 L8,12 L6,12 L6,6 Z M10,6 L12,6 L12,12 L10,12 L10,6 Z M14,6 L16,6 L16,12 L14,12 L14,6 Z M4,12 L6,12 L6,18 L4,18 L4,12 Z M12,12 L14,12 L14,18 L12,18 L12,12 Z" id="形状"></path>
                <path d="M28,8 L22,8 L22,6 L28,6 L28,8 Z M20,8 L22,8 L22,16 L20,16 L20,8 Z M28,8 L30,8 L30,16 L28,16 L28,8 Z M28,18 L22,18 L22,16 L28,16 L28,18 Z" id="形状"></path>
                <path d="M40,8 L36,8 L36,6 L40,6 L40,8 Z M32,6 L34,6 L34,8 L36,8 L36,10 L34,10 L34,18 L32,18 L32,6 Z M40,8 L42,8 L42,18 L40,18 L40,8 Z" id="形状"></path>
                <path d="M44,8 L46,8 L46,16 L44,16 L44,8 Z M52,8 L46,8 L46,6 L52,6 L52,0 L54,0 L54,18 L46,18 L46,16 L52,16 L52,8 Z" id="形状"></path>
                <path d="M64,8 L58,8 L58,6 L64,6 L64,8 Z M66,12 L58,12 L58,16 L56,16 L56,8 L58,8 L58,10 L64,10 L64,8 L66,8 L66,12 Z M64,14 L66,14 L66,16 L64,16 L64,14 Z M64,18 L58,18 L58,16 L64,16 L64,18 Z" id="形状"></path>
                <path d="M76,8 L72,8 L72,6 L76,6 L76,8 Z M68,6 L70,6 L70,8 L72,8 L72,10 L70,10 L70,18 L68,18 L68,6 Z" id="形状"></path>
                <path d="M88,2 L80,2 L80,0 L88,0 L88,2 Z M88,2 L90,2 L90,4 L88,4 L88,2 Z M78,2 L80,2 L80,6 L78,6 L78,2 Z M80,6 L82,6 L82,8 L80,8 L80,6 Z M82,8 L86,8 L86,10 L82,10 L82,8 Z M86,10 L88,10 L88,12 L86,12 L86,10 Z M78,14 L80,14 L80,16 L78,16 L78,14 Z M88,12 L90,12 L90,16 L88,16 L88,12 Z M88,16 L88,18 L80,18 L80,16 L88,16 Z" id="形状"></path>
                <path d="M98,6 L100,6 L100,10 L98,10 L98,6 Z M92,6 L94,6 L94,14 L92,14 L92,6 Z M96,10 L98,10 L98,14 L96,14 L96,10 Z M100,10 L102,10 L102,14 L100,14 L100,10 Z M104,6 L106,6 L106,14 L104,14 L104,6 Z M94,14 L96,14 L96,18 L94,18 L94,14 Z M102,14 L104,14 L104,18 L102,18 L102,14 Z" id="形状"></path>
                <path d="M116,8 L110,8 L110,6 L116,6 L116,8 Z M108,12 L110,12 L110,16 L108,16 L108,12 Z M118,18 L110,18 L110,16 L116,16 L116,12 L110,12 L110,10 L116,10 L116,8 L118,8 L118,18 Z" id="形状"></path>
                <path d="M128,8 L124,8 L124,6 L128,6 L128,8 Z M120,6 L122,6 L122,8 L124,8 L124,10 L122,10 L122,18 L120,18 L120,6 Z M128,8 L130,8 L130,18 L128,18 L128,8 Z" id="形状"></path>
                <path d="M154,2 L148,2 L148,0 L154,0 L154,2 Z M146,2 L148,2 L148,4 L146,4 L146,2 Z M154,2 L156,2 L156,4 L154,4 L154,2 Z M144,4 L146,4 L146,14 L144,14 L144,4 Z M146,14 L148,14 L148,16 L146,16 L146,14 Z M154,14 L156,14 L156,16 L154,16 L154,14 Z M154,16 L154,18 L148,18 L148,16 L154,16 Z" id="形状"></path>
                <path d="M166,8 L160,8 L160,6 L166,6 L166,8 Z M158,8 L160,8 L160,16 L158,16 L158,8 Z M166,8 L168,8 L168,16 L166,16 L166,8 Z M166,18 L160,18 L160,16 L166,16 L166,18 Z" id="形状"></path>
                <polygon id="路径" points="172 2 170 2 170 0 174 0 174 16 176 16 176 18 172 18"></polygon>
                <path d="M186,8 L180,8 L180,6 L186,6 L186,8 Z M178,8 L180,8 L180,16 L178,16 L178,8 Z M186,8 L188,8 L188,16 L186,16 L186,8 Z M186,18 L180,18 L180,16 L186,16 L186,18 Z" id="形状"></path>
                <path d="M198,8 L194,8 L194,6 L198,6 L198,8 Z M190,6 L192,6 L192,8 L194,8 L194,10 L192,10 L192,18 L190,18 L190,6 Z" id="形状"></path>
            </g>
        </g>
    </g>
</svg>