<?xml version="1.0" encoding="UTF-8"?>
<svg width="372px" height="40px" viewBox="0 0 372 40" version="1.1" xmlns="http://www.w3.org/2000/svg" xmlns:xlink="http://www.w3.org/1999/xlink">
    <title>x1</title>
    <g id="system-list" stroke="none" stroke-width="1" fill="none" fill-rule="evenodd">
        <g id="x1">
            <rect id="矩形备份-6" x="0" y="0" width="372" height="40"></rect>
            <g id="Sharp-X1" transform="translate(24, 0)" fill="#FFFFFF" fill-rule="nonzero">
                <path d="M10,2 L2,2 L2,0 L10,0 L10,2 Z M10,2 L12,2 L12,4 L10,4 L10,2 Z M0,2 L2,2 L2,6 L0,6 L0,2 Z M2,6 L4,6 L4,8 L2,8 L2,6 Z M4,8 L8,8 L8,10 L4,10 L4,8 Z M8,10 L10,10 L10,12 L8,12 L8,10 Z M0,14 L2,14 L2,16 L0,16 L0,14 Z M10,12 L12,12 L12,16 L10,16 L10,12 Z M10,16 L10,18 L2,18 L2,16 L10,16 Z" id="形状"></path>
                <path d="M22,8 L18,8 L18,6 L22,6 L22,8 Z M14,0 L16,0 L16,8 L18,8 L18,10 L16,10 L16,18 L14,18 L14,0 Z M22,8 L24,8 L24,18 L22,18 L22,8 Z" id="形状"></path>
                <path d="M34,8 L28,8 L28,6 L34,6 L34,8 Z M26,12 L28,12 L28,16 L26,16 L26,12 Z M36,18 L28,18 L28,16 L34,16 L34,12 L28,12 L28,10 L34,10 L34,8 L36,8 L36,18 Z" id="形状"></path>
                <path d="M46,8 L42,8 L42,6 L46,6 L46,8 Z M38,6 L40,6 L40,8 L42,8 L42,10 L40,10 L40,18 L38,18 L38,6 Z" id="形状"></path>
                <path d="M56,8 L58,8 L58,16 L56,16 L56,8 Z M56,8 L50,8 L50,16 L56,16 L56,18 L50,18 L50,22 L48,22 L48,6 L56,6 L56,8 Z" id="形状"></path>
                <path d="M72,0 L74,0 L74,2 L72,2 L72,0 Z M84,0 L86,0 L86,2 L84,2 L84,0 Z M74,2 L76,2 L76,6 L74,6 L74,2 Z M82,2 L84,2 L84,6 L82,6 L82,2 Z M76,6 L78,6 L78,8 L76,8 L76,6 Z M80,6 L82,6 L82,8 L80,8 L80,6 Z M78,8 L80,8 L80,10 L78,10 L78,8 Z M76,10 L78,10 L78,12 L76,12 L76,10 Z M80,10 L82,10 L82,12 L80,12 L80,10 Z M74,12 L76,12 L76,16 L74,16 L74,12 Z M82,12 L84,12 L84,16 L82,16 L82,12 Z M72,16 L74,16 L74,18 L72,18 L72,16 Z M84,16 L86,16 L86,18 L84,18 L84,16 Z" id="形状"></path>
                <path d="M88,4 L90,4 L90,6 L88,6 L88,4 Z M98,18 L88,18 L88,16 L92,16 L92,4 L90,4 L90,2 L92,2 L92,0 L94,0 L94,16 L98,16 L98,18 Z" id="形状"></path>
            </g>
        </g>
    </g>
</svg>