<?xml version="1.0" encoding="UTF-8"?>
<svg width="372px" height="40px" viewBox="0 0 372 40" version="1.1" xmlns="http://www.w3.org/2000/svg" xmlns:xlink="http://www.w3.org/1999/xlink">
    <title>zx81</title>
    <g id="system-list" stroke="none" stroke-width="1" fill="none" fill-rule="evenodd">
        <g id="zx81">
            <rect id="矩形备份-6" x="0" y="0" width="372" height="40"></rect>
            <g id="ZX-81" transform="translate(24, 0)" fill="#FFFFFF" fill-rule="nonzero">
                <path d="M12,0 L12,4 L10,4 L10,2 L0,2 L0,0 L12,0 Z M8,4 L10,4 L10,6 L8,6 L8,4 Z M6,6 L8,6 L8,8 L6,8 L6,6 Z M4,8 L6,8 L6,12 L4,12 L4,8 Z M2,12 L4,12 L4,14 L2,14 L2,12 Z M0,14 L2,14 L2,16 L12,16 L12,18 L0,18 L0,14 Z" id="形状"></path>
                <path d="M14,0 L16,0 L16,2 L14,2 L14,0 Z M26,0 L28,0 L28,2 L26,2 L26,0 Z M16,2 L18,2 L18,6 L16,6 L16,2 Z M24,2 L26,2 L26,6 L24,6 L24,2 Z M18,6 L20,6 L20,8 L18,8 L18,6 Z M22,6 L24,6 L24,8 L22,8 L22,6 Z M20,8 L22,8 L22,10 L20,10 L20,8 Z M18,10 L20,10 L20,12 L18,12 L18,10 Z M22,10 L24,10 L24,12 L22,12 L22,10 Z M16,12 L18,12 L18,16 L16,16 L16,12 Z M24,12 L26,12 L26,16 L24,16 L24,12 Z M14,16 L16,16 L16,18 L14,18 L14,16 Z M26,16 L28,16 L28,18 L26,18 L26,16 Z" id="形状"></path>
                <polygon id="路径" points="40 8 40 10 30 10 30 8"></polygon>
                <path d="M50,0 L50,2 L44,2 L44,0 L50,0 Z M42,2 L44,2 L44,8 L42,8 L42,2 Z M50,2 L52,2 L52,8 L50,8 L50,2 Z M50,8 L50,10 L44,10 L44,8 L50,8 Z M42,10 L44,10 L44,16 L42,16 L42,10 Z M50,10 L52,10 L52,16 L50,16 L50,10 Z M50,18 L44,18 L44,16 L50,16 L50,18 Z" id="形状"></path>
                <path d="M54,4 L56,4 L56,6 L54,6 L54,4 Z M64,18 L54,18 L54,16 L58,16 L58,4 L56,4 L56,2 L58,2 L58,0 L60,0 L60,16 L64,16 L64,18 Z" id="形状"></path>
            </g>
        </g>
    </g>
</svg>