<?xml version="1.0" encoding="UTF-8"?>
<svg width="372px" height="40px" viewBox="0 0 372 40" version="1.1" xmlns="http://www.w3.org/2000/svg" xmlns:xlink="http://www.w3.org/1999/xlink">
    <title>zxspectrum</title>
    <g id="system-list" stroke="none" stroke-width="1" fill="none" fill-rule="evenodd">
        <g id="zxspectrum">
            <rect id="矩形备份-6" x="0" y="0" width="372" height="40"></rect>
            <g id="ZX-Spectrum" transform="translate(24, 0)" fill="#FFFFFF" fill-rule="nonzero">
                <path d="M12,0 L12,4 L10,4 L10,2 L0,2 L0,0 L12,0 Z M8,4 L10,4 L10,6 L8,6 L8,4 Z M6,6 L8,6 L8,8 L6,8 L6,6 Z M4,8 L6,8 L6,12 L4,12 L4,8 Z M2,12 L4,12 L4,14 L2,14 L2,12 Z M0,14 L2,14 L2,16 L12,16 L12,18 L0,18 L0,14 Z" id="形状"></path>
                <path d="M14,0 L16,0 L16,2 L14,2 L14,0 Z M26,0 L28,0 L28,2 L26,2 L26,0 Z M16,2 L18,2 L18,6 L16,6 L16,2 Z M24,2 L26,2 L26,6 L24,6 L24,2 Z M18,6 L20,6 L20,8 L18,8 L18,6 Z M22,6 L24,6 L24,8 L22,8 L22,6 Z M20,8 L22,8 L22,10 L20,10 L20,8 Z M18,10 L20,10 L20,12 L18,12 L18,10 Z M22,10 L24,10 L24,12 L22,12 L22,10 Z M16,12 L18,12 L18,16 L16,16 L16,12 Z M24,12 L26,12 L26,16 L24,16 L24,12 Z M14,16 L16,16 L16,18 L14,18 L14,16 Z M26,16 L28,16 L28,18 L26,18 L26,16 Z" id="形状"></path>
                <path d="M52,2 L44,2 L44,0 L52,0 L52,2 Z M52,2 L54,2 L54,4 L52,4 L52,2 Z M42,2 L44,2 L44,6 L42,6 L42,2 Z M44,6 L46,6 L46,8 L44,8 L44,6 Z M46,8 L50,8 L50,10 L46,10 L46,8 Z M50,10 L52,10 L52,12 L50,12 L50,10 Z M42,14 L44,14 L44,16 L42,16 L42,14 Z M52,12 L54,12 L54,16 L52,16 L52,12 Z M52,16 L52,18 L44,18 L44,16 L52,16 Z" id="形状"></path>
                <path d="M64,8 L66,8 L66,16 L64,16 L64,8 Z M64,8 L58,8 L58,16 L64,16 L64,18 L58,18 L58,22 L56,22 L56,6 L64,6 L64,8 Z" id="形状"></path>
                <path d="M76,8 L70,8 L70,6 L76,6 L76,8 Z M78,12 L70,12 L70,16 L68,16 L68,8 L70,8 L70,10 L76,10 L76,8 L78,8 L78,12 Z M76,14 L78,14 L78,16 L76,16 L76,14 Z M76,18 L70,18 L70,16 L76,16 L76,18 Z" id="形状"></path>
                <path d="M88,8 L82,8 L82,6 L88,6 L88,8 Z M88,8 L90,8 L90,10 L88,10 L88,8 Z M80,8 L82,8 L82,16 L80,16 L80,8 Z M88,14 L90,14 L90,16 L88,16 L88,14 Z M88,18 L82,18 L82,16 L88,16 L88,18 Z" id="形状"></path>
                <path d="M94,8 L92,8 L92,6 L94,6 L94,0 L96,0 L96,6 L100,6 L100,8 L96,8 L96,16 L94,16 L94,8 Z M100,18 L96,18 L96,16 L100,16 L100,18 Z" id="形状"></path>
                <path d="M110,8 L106,8 L106,6 L110,6 L110,8 Z M102,6 L104,6 L104,8 L106,8 L106,10 L104,10 L104,18 L102,18 L102,6 Z" id="形状"></path>
                <path d="M112,6 L114,6 L114,16 L112,16 L112,6 Z M114,16 L118,16 L118,18 L114,18 L114,16 Z M120,6 L122,6 L122,18 L120,18 L120,16 L118,16 L118,14 L120,14 L120,6 Z" id="形状"></path>
                <path d="M132,6 L136,6 L136,8 L132,8 L132,6 Z M124,6 L130,6 L130,8 L126,8 L126,18 L124,18 L124,6 Z M130,8 L132,8 L132,18 L130,18 L130,8 Z M136,8 L138,8 L138,18 L136,18 L136,8 Z" id="形状"></path>
            </g>
        </g>
    </g>
</svg>